<svg id="Layer_1" data-name="Layer 1" xmlns="http://www.w3.org/2000/svg" viewBox="0 0 490.38 156.5"><defs><style>.cls-1,.cls-3{fill:none;stroke:#231f20;stroke-miterlimit:10;}.cls-2,.cls-4,.cls-7{fill:#231f20;}.cls-3{stroke-width:0.5px;}.cls-4{font-size:12px;}.cls-4,.cls-7{font-family:MyriadPro-Regular, Myriad Pro;}.cls-5{letter-spacing:-0.03em;}.cls-6{letter-spacing:-0.01em;}.cls-7{font-size:20.7px;}.cls-8{letter-spacing:0em;}.cls-9{letter-spacing:-0.01em;}.cls-10{letter-spacing:0.01em;}.cls-11{letter-spacing:0em;}.cls-12{letter-spacing:-0.15em;}.cls-13{letter-spacing:0em;}.cls-14{letter-spacing:-0.08em;}.cls-15{letter-spacing:-0.07em;}.cls-16{letter-spacing:-0.01em;}.cls-17{letter-spacing:-0.01em;}.cls-18{letter-spacing:-0.04em;}.cls-19{letter-spacing:0.07em;}.cls-20{letter-spacing:-0.15em;}</style></defs><title>Analog-vs-Digital</title><line class="cls-1" x1="19" y1="134.5" x2="19" y2="38.53"/><path class="cls-2" d="M19,32.5A30.22,30.22,0,0,0,23.76,41L19,39.32,14.25,41A30.2,30.2,0,0,0,19,32.5Z"/><line class="cls-1" x1="18.65" y1="134.08" x2="179.61" y2="134.08"/><path class="cls-2" d="M185.65,134.08a30.22,30.22,0,0,0-8.55,4.76l1.72-4.76-1.72-4.75A30.2,30.2,0,0,0,185.65,134.08Z"/><path class="cls-3" d="M28,125.5c-.41-7.09,3-13.53,4.71-20.11,2.51-9.95,5.07-19.92,7.71-29.69,2.18-8.06,6.23-26,14.16-28.71,5-1.69,6.56,8.57,7.91,13.65,3,11.33,5,23.83,9.6,34.4,3.89,9,6.64,1.74,11.52-3.52,3-3.23,6.51-5.53,9.31-9.05,2.23-2.8,3.93-6,6.32-8.72,5.94-6.79,11.44-13,19.68-13.76,7.86-.72,13.4,6.39,19.29,11.54A63.84,63.84,0,0,0,154,82c5.26,2.29,11.61,2.88,16.5,6"/><text class="cls-4" transform="translate(0 26.5)"><tspan class="cls-5">V</tspan><tspan x="6.3" y="0">oltage</tspan></text><text class="cls-4" transform="translate(162.5 153.5)"><tspan class="cls-6">T</tspan><tspan x="5.82" y="0">ime</tspan></text><text class="cls-7" transform="translate(73 17.32)"><tspan class="cls-8">A</tspan><tspan x="12.6" y="0">nalog</tspan></text><line class="cls-1" x1="268" y1="134.5" x2="268" y2="38.53"/><path class="cls-2" d="M268,32.5A30.22,30.22,0,0,0,272.76,41L268,39.32,263.25,41A30.2,30.2,0,0,0,268,32.5Z"/><line class="cls-1" x1="267.65" y1="134.08" x2="428.61" y2="134.08"/><path class="cls-2" d="M434.65,134.08a30.23,30.23,0,0,0-8.55,4.76l1.72-4.76-1.72-4.75A30.2,30.2,0,0,0,434.65,134.08Z"/><text class="cls-4" transform="translate(249 26.5)"><tspan class="cls-5">V</tspan><tspan x="6.3" y="0">oltage</tspan></text><text class="cls-4" transform="translate(411.5 153.5)"><tspan class="cls-6">T</tspan><tspan x="5.82" y="0">ime</tspan></text><text class="cls-7" transform="translate(322 17.32)">Di<tspan class="cls-9" x="18.63" y="0">g</tspan><tspan x="30.07" y="0">ital</tspan></text><polyline class="cls-3" points="392.67 132.16 392.67 56 368 56 368 132.5 343.33 132.5 343.33 55.5 295 55.5 295 132 270.5 132"/><text class="cls-4" transform="translate(400.5 62)"><tspan class="cls-10">“</tspan><tspan class="cls-11" x="4.32" y="0">hig</tspan><tspan class="cls-5" x="20.5" y="0">h</tspan><tspan class="cls-12" x="26.76" y="0">”</tspan><tspan class="cls-13" x="29.16" y="0">,</tspan><tspan class="cls-14" x="31.64" y="0"> </tspan><tspan class="cls-15" x="33.19" y="0">“</tspan><tspan x="36.66" y="0">o</tspan><tspan class="cls-5" x="43.25" y="0">n</tspan><tspan class="cls-12" x="49.51" y="0">”</tspan><tspan class="cls-13" x="51.91" y="0">, lo</tspan><tspan class="cls-16" x="66.36" y="0">g</tspan><tspan x="73" y="0">ic 1</tspan></text><text class="cls-4" transform="translate(400.5 127)"><tspan class="cls-10">“</tspan><tspan class="cls-11" x="4.32" y="0">l</tspan><tspan class="cls-17" x="7.15" y="0">o</tspan><tspan class="cls-18" x="13.66" y="0">w</tspan><tspan class="cls-13" x="22.02" y="0">,</tspan><tspan class="cls-14" x="24.5" y="0"> </tspan><tspan class="cls-15" x="26.05" y="0">“</tspan><tspan x="29.52" y="0">o</tspan><tspan class="cls-19" x="36.11" y="0">ff</tspan><tspan class="cls-20" x="43.9" y="0">”</tspan><tspan x="46.3" y="0">, lo</tspan><tspan class="cls-16" x="60.74" y="0">g</tspan><tspan x="67.38" y="0">ic 0</tspan></text></svg>