<svg id="Layer_1" data-name="Layer 1" xmlns="http://www.w3.org/2000/svg" viewBox="0 0 30.48 65.42"><defs><style>.cls-1,.cls-2,.cls-9{fill:none;stroke:#8c8c8c;stroke-linecap:round;stroke-width:2.16px;}.cls-1{stroke-linejoin:round;}.cls-3{fill:#8c8c8c;}.cls-4{fill:#1a1a1a;}.cls-5{fill:#141414;}.cls-6{fill:#242424;}.cls-7{fill:#1f1f1f;}.cls-10,.cls-8{isolation:isolate;}.cls-8{font-size:3px;fill:#e6e6e6;font-family:OCRAStd, OCR A Std;}.cls-9{stroke-opacity:0;}.cls-10{font-size:10px;font-family:MyriadPro-Regular, Myriad Pro;}.cls-11{letter-spacing:-0.01em;}.cls-12{letter-spacing:0em;}.cls-13{letter-spacing:-0.03em;}.cls-14{letter-spacing:-0.01em;}.cls-15{letter-spacing:0em;}</style></defs><title>DS18B20-pinout</title><g id="breadboard"><g id="g213067"><path id="path212445" class="cls-1" d="M6.81,24.1l5.4-5.4V15.1"/><line id="connector3leg" class="cls-2" x1="6.81" y1="24.1" x2="6.81" y2="31.3"/><line id="connector2leg" class="cls-2" x1="15.81" y1="24.1" x2="15.81" y2="31.3"/><line id="connector1leg" class="cls-2" x1="24.81" y1="24.1" x2="24.81" y2="31.3"/><rect id="rect9506" class="cls-3" x="14.71" y="14.8" width="2.2" height="9.4"/><rect id="rect9553" class="cls-4" x="9.21" y="4.7" width="13.3" height="10.1"/><path id="path9555" class="cls-5" d="M21.41,4.7V17.2a4,4,0,0,0,1-2.5h0V4.7Z"/><path id="path9557" class="cls-6" d="M10.21,4.7h-1V14.8h0a4.17,4.17,0,0,0,1,2.5V4.7Z"/><path id="path9559" class="cls-7" d="M9.21,4.7h0a4.17,4.17,0,0,0,1,2.5h11.3a4,4,0,0,0,1-2.5H9.21Z"/><path id="path9561" class="cls-5" d="M15.81,0c-3.7,0-6.6,2.1-6.6,4.7h13.3C22.41,2.1,19.51,0,15.81,0Z"/><path id="path212957" class="cls-1" d="M24.81,24.1l-5.4-5.4V15.1"/><rect id="rect9563" x="10.21" y="7.1" width="11.3" height="10.1"/><g id="label0"><text class="cls-8" transform="translate(11.45 11.42)">DS18</text></g><g id="label0-2" data-name="label0"><text class="cls-8" transform="translate(12.54 14.46)">B20</text></g><path id="connector3pin" class="cls-9" d="M6.81,31.3v1.8"/><path id="connector2pin" class="cls-9" d="M15.81,31.3v1.8"/><path id="connector1pin" class="cls-9" d="M24.81,31.3v1.8"/></g></g><text class="cls-10" transform="translate(2.5 33.6) rotate(90)">G<tspan class="cls-11" x="6.46" y="0">r</tspan><tspan class="cls-12" x="9.63" y="0">ound</tspan></text><text class="cls-10" transform="translate(22.11 33.1) rotate(90)"><tspan class="cls-13">P</tspan><tspan class="cls-14" x="5.07" y="0">o</tspan><tspan class="cls-11" x="10.49" y="0">w</tspan><tspan x="17.75" y="0">er</tspan></text><text class="cls-10" transform="translate(12.54 33.6) rotate(90)">D<tspan class="cls-15" x="6.66" y="0">a</tspan><tspan x="11.44" y="0">ta</tspan></text></svg>