<svg id="Layer_1" data-name="Layer 1" xmlns="http://www.w3.org/2000/svg" xmlns:xlink="http://www.w3.org/1999/xlink" viewBox="0 0 741.49 487.7"><defs><style>.cls-1,.cls-3,.cls-4,.cls-50,.cls-6{fill:none;}.cls-2{fill:#fff;}.cls-3{stroke:#d9d9d9;}.cls-3,.cls-4,.cls-6{stroke-linejoin:round;}.cls-3,.cls-4{stroke-width:0.75px;}.cls-4{stroke:#bfbfbf;}.cls-5,.cls-51{fill:#5b9bd5;}.cls-50,.cls-6{stroke:#5b9bd5;}.cls-6{stroke-width:0.72px;}.cls-10,.cls-12,.cls-7{font-size:14.04px;}.cls-10,.cls-12,.cls-32,.cls-7{fill:#595959;font-family:Calibri, Calibri;}.cls-12,.cls-8{letter-spacing:0em;}.cls-9{letter-spacing:0em;}.cls-10,.cls-14{letter-spacing:0em;}.cls-11{letter-spacing:0em;}.cls-13{letter-spacing:0em;}.cls-15{letter-spacing:0em;}.cls-16{letter-spacing:0em;}.cls-17{letter-spacing:0em;}.cls-18{letter-spacing:-0.05em;}.cls-19{letter-spacing:0em;}.cls-20{letter-spacing:0em;}.cls-21{letter-spacing:-0.01em;}.cls-22{letter-spacing:0em;}.cls-23{letter-spacing:-0.01em;}.cls-24{letter-spacing:0em;}.cls-25{letter-spacing:-0.01em;}.cls-26{letter-spacing:0em;}.cls-27{letter-spacing:0em;}.cls-28{letter-spacing:-0.01em;}.cls-29{letter-spacing:0em;}.cls-30{letter-spacing:0em;}.cls-31{letter-spacing:0em;}.cls-32{font-size:15.96px;}.cls-33{letter-spacing:0em;}.cls-34{letter-spacing:-0.01em;}.cls-35{letter-spacing:-0.01em;}.cls-36{letter-spacing:0em;}.cls-37{letter-spacing:0em;}.cls-38{letter-spacing:-0.02em;}.cls-39{letter-spacing:0em;}.cls-40{letter-spacing:0em;}.cls-41{letter-spacing:0.01em;}.cls-42{letter-spacing:0em;}.cls-43{letter-spacing:0em;}.cls-44{letter-spacing:0.01em;}.cls-45{letter-spacing:-0.02em;}.cls-46{letter-spacing:0em;}.cls-47{letter-spacing:0em;}.cls-48{letter-spacing:0em;}.cls-49{clip-path:url(#clip-path);}.cls-50{stroke-miterlimit:8;stroke-width:0.5px;}.cls-51{fill-rule:evenodd;}</style><clipPath id="clip-path"><rect class="cls-1" x="0.38" y="0.38" width="741.12" height="487.32"/></clipPath></defs><title>Hysteresis</title><rect class="cls-2" x="0.38" y="0.38" width="732.61" height="478.26"/><path class="cls-3" d="M63.68,42.45H697.47M63.68,80.18H697.47M63.68,118H697.47M63.68,155.78H697.47M63.68,193.46H697.47M63.68,231.26H697.47M63.68,269.06H697.47M63.68,306.74H697.47M63.68,344.54H697.47M63.68,382.34H697.47"/><path class="cls-3" d="M697.47,42.45V420.07M634.09,42.45V420.07M570.73,42.45V420.07M507.37,42.45V420.07M444,42.45V420.07M380.53,42.45V420.07M317.17,42.45V420.07M253.81,42.45V420.07M190.45,42.45V420.07M127.09,42.45V420.07"/><line class="cls-4" x1="63.68" y1="420.07" x2="63.68" y2="42.45"/><line class="cls-4" x1="63.68" y1="420.07" x2="697.47" y2="420.07"/><path class="cls-5" d="M66.26,376.22a2.52,2.52,0,1,1-2.52-2.52,2.52,2.52,0,0,1,2.52,2.52"/><circle class="cls-6" cx="63.73" cy="376.22" r="2.52"/><path class="cls-5" d="M68.66,376.22a2.52,2.52,0,1,1-2.52-2.52,2.52,2.52,0,0,1,2.52,2.52"/><circle class="cls-6" cx="66.14" cy="376.22" r="2.52"/><path class="cls-5" d="M71.17,376.22a2.52,2.52,0,1,1-2.52-2.52,2.52,2.52,0,0,1,2.52,2.52"/><circle class="cls-6" cx="68.65" cy="376.22" r="2.52"/><path class="cls-5" d="M73.7,376.22a2.52,2.52,0,1,1-2.52-2.52,2.52,2.52,0,0,1,2.52,2.52"/><circle class="cls-6" cx="71.18" cy="376.22" r="2.52"/><path class="cls-5" d="M76.1,376.22a2.52,2.52,0,1,1-2.52-2.52,2.52,2.52,0,0,1,2.52,2.52"/><circle class="cls-6" cx="73.58" cy="376.22" r="2.52"/><path class="cls-5" d="M78.62,374.06a2.52,2.52,0,1,1-2.52-2.52,2.52,2.52,0,0,1,2.52,2.52"/><circle class="cls-6" cx="76.09" cy="374.06" r="2.52"/><path class="cls-5" d="M81.13,371.78a2.52,2.52,0,1,1-2.52-2.52,2.52,2.52,0,0,1,2.52,2.52"/><circle class="cls-6" cx="78.61" cy="371.78" r="2.52"/><path class="cls-5" d="M83.66,356.66a2.52,2.52,0,1,1-2.52-2.52,2.52,2.52,0,0,1,2.52,2.52"/><circle class="cls-6" cx="81.14" cy="356.66" r="2.52"/><path class="cls-5" d="M86.06,337a2.52,2.52,0,1,1-2.52-2.52A2.52,2.52,0,0,1,86.06,337"/><circle class="cls-6" cx="83.54" cy="336.98" r="2.52"/><path class="cls-5" d="M88.58,324.86a2.52,2.52,0,1,1-2.52-2.52,2.52,2.52,0,0,1,2.52,2.52"/><circle class="cls-6" cx="86.05" cy="324.86" r="2.52"/><path class="cls-5" d="M91.09,314.3a2.52,2.52,0,1,1-2.52-2.52,2.52,2.52,0,0,1,2.52,2.52"/><circle class="cls-6" cx="88.57" cy="314.3" r="2.52"/><path class="cls-5" d="M93.5,305.3A2.52,2.52,0,1,1,91,302.78a2.52,2.52,0,0,1,2.52,2.52"/><circle class="cls-6" cx="90.98" cy="305.3" r="2.52"/><path class="cls-5" d="M96,296.18a2.52,2.52,0,1,1-2.52-2.52A2.52,2.52,0,0,1,96,296.18"/><circle class="cls-6" cx="93.49" cy="296.18" r="2.52"/><path class="cls-5" d="M98.53,289.46A2.52,2.52,0,1,1,96,286.94a2.52,2.52,0,0,1,2.52,2.52"/><circle class="cls-6" cx="96.01" cy="289.46" r="2.52"/><path class="cls-5" d="M100.94,283.34a2.52,2.52,0,1,1-2.52-2.52,2.52,2.52,0,0,1,2.52,2.52"/><circle class="cls-6" cx="98.42" cy="283.34" r="2.52"/><path class="cls-5" d="M103.45,277.34a2.52,2.52,0,1,1-2.52-2.52,2.52,2.52,0,0,1,2.52,2.52"/><circle class="cls-6" cx="100.93" cy="277.34" r="2.52"/><path class="cls-5" d="M106,264.5a2.52,2.52,0,1,1-2.52-2.52A2.52,2.52,0,0,1,106,264.5"/><circle class="cls-6" cx="103.45" cy="264.5" r="2.52"/><path class="cls-5" d="M108.5,255.38a2.52,2.52,0,1,1-2.52-2.52,2.52,2.52,0,0,1,2.52,2.52"/><circle class="cls-6" cx="105.98" cy="255.38" r="2.52"/><path class="cls-5" d="M110.9,252.38a2.52,2.52,0,1,1-2.52-2.52,2.52,2.52,0,0,1,2.52,2.52"/><circle class="cls-6" cx="108.37" cy="252.38" r="2.52"/><path class="cls-5" d="M113.42,248.66a2.52,2.52,0,1,1-2.52-2.52,2.52,2.52,0,0,1,2.52,2.52"/><circle class="cls-6" cx="110.9" cy="248.66" r="2.52"/><path class="cls-5" d="M115.94,244.82a2.52,2.52,0,1,1-2.52-2.52,2.52,2.52,0,0,1,2.52,2.52"/><circle class="cls-6" cx="113.42" cy="244.82" r="2.52"/><path class="cls-5" d="M118.45,241.82a2.52,2.52,0,1,1-2.52-2.52,2.52,2.52,0,0,1,2.52,2.52"/><circle class="cls-6" cx="115.93" cy="241.82" r="2.52"/><path class="cls-5" d="M120.86,239.54a2.52,2.52,0,1,1-2.52-2.52,2.52,2.52,0,0,1,2.52,2.52"/><circle class="cls-6" cx="118.34" cy="239.54" r="2.52"/><path class="cls-5" d="M123.37,237.26a2.52,2.52,0,1,1-2.52-2.52,2.52,2.52,0,0,1,2.52,2.52"/><circle class="cls-6" cx="120.85" cy="237.26" r="2.52"/><path class="cls-5" d="M125.9,235.1a2.52,2.52,0,1,1-2.52-2.52,2.52,2.52,0,0,1,2.52,2.52"/><circle class="cls-6" cx="123.37" cy="235.1" r="2.52"/><path class="cls-5" d="M128.29,216.86a2.52,2.52,0,1,1-2.52-2.52,2.52,2.52,0,0,1,2.52,2.52"/><circle class="cls-6" cx="125.77" cy="216.86" r="2.52"/><path class="cls-5" d="M130.81,216.86a2.52,2.52,0,1,1-2.52-2.52,2.52,2.52,0,0,1,2.52,2.52"/><circle class="cls-6" cx="128.29" cy="216.86" r="2.52"/><path class="cls-5" d="M133.34,223a2.52,2.52,0,1,1-2.52-2.52,2.52,2.52,0,0,1,2.52,2.52"/><circle class="cls-6" cx="130.81" cy="222.98" r="2.52"/><path class="cls-5" d="M135.73,214.7a2.52,2.52,0,1,1-2.52-2.52,2.52,2.52,0,0,1,2.52,2.52"/><circle class="cls-6" cx="133.21" cy="214.7" r="2.52"/><path class="cls-5" d="M138.26,203.3a2.52,2.52,0,1,1-2.52-2.52,2.52,2.52,0,0,1,2.52,2.52"/><circle class="cls-6" cx="135.73" cy="203.3" r="2.52"/><path class="cls-5" d="M140.78,212.42a2.52,2.52,0,1,1-2.52-2.52,2.52,2.52,0,0,1,2.52,2.52"/><circle class="cls-6" cx="138.26" cy="212.42" r="2.52"/><path class="cls-5" d="M143.29,204a2.52,2.52,0,1,1-2.52-2.52,2.52,2.52,0,0,1,2.52,2.52"/><circle class="cls-6" cx="140.77" cy="204.02" r="2.52"/><path class="cls-5" d="M145.7,210.86a2.52,2.52,0,1,1-2.52-2.52,2.52,2.52,0,0,1,2.52,2.52"/><circle class="cls-6" cx="143.17" cy="210.86" r="2.52"/><path class="cls-5" d="M148.22,203.3a2.52,2.52,0,1,1-2.52-2.52,2.52,2.52,0,0,1,2.52,2.52"/><circle class="cls-6" cx="145.7" cy="203.3" r="2.52"/><path class="cls-5" d="M150.73,193.46a2.52,2.52,0,1,1-2.52-2.52,2.52,2.52,0,0,1,2.52,2.52"/><circle class="cls-6" cx="148.21" cy="193.46" r="2.52"/><path class="cls-5" d="M153.26,202.58a2.52,2.52,0,1,1-2.52-2.52,2.52,2.52,0,0,1,2.52,2.52"/><circle class="cls-6" cx="150.73" cy="202.58" r="2.52"/><path class="cls-5" d="M155.65,194.3a2.52,2.52,0,1,1-2.52-2.52,2.52,2.52,0,0,1,2.52,2.52"/><circle class="cls-6" cx="153.13" cy="194.3" r="2.52"/><path class="cls-5" d="M158.17,183.74a2.52,2.52,0,1,1-2.52-2.52,2.52,2.52,0,0,1,2.52,2.52"/><circle class="cls-6" cx="155.65" cy="183.74" r="2.52"/><path class="cls-5" d="M160.58,194.3a2.52,2.52,0,1,1-2.52-2.52,2.52,2.52,0,0,1,2.52,2.52"/><circle class="cls-6" cx="158.06" cy="194.3" r="2.52"/><path class="cls-5" d="M163.09,185.9a2.52,2.52,0,1,1-2.52-2.52,2.52,2.52,0,0,1,2.52,2.52"/><circle class="cls-6" cx="160.57" cy="185.9" r="2.52"/><path class="cls-5" d="M165.62,189a2.52,2.52,0,1,1-2.52-2.52,2.52,2.52,0,0,1,2.52,2.52"/><circle class="cls-6" cx="163.09" cy="189.02" r="2.52"/><path class="cls-5" d="M168.14,186.74a2.52,2.52,0,1,1-2.52-2.52,2.52,2.52,0,0,1,2.52,2.52"/><circle class="cls-6" cx="165.62" cy="186.74" r="2.52"/><path class="cls-5" d="M170.53,177.62A2.52,2.52,0,1,1,168,175.1a2.52,2.52,0,0,1,2.52,2.52"/><circle class="cls-6" cx="168.01" cy="177.62" r="2.52"/><path class="cls-5" d="M173.06,187.46a2.52,2.52,0,1,1-2.52-2.52,2.52,2.52,0,0,1,2.52,2.52"/><circle class="cls-6" cx="170.53" cy="187.46" r="2.52"/><path class="cls-5" d="M175.58,179.18a2.52,2.52,0,1,1-2.52-2.52,2.52,2.52,0,0,1,2.52,2.52"/><circle class="cls-6" cx="173.06" cy="179.18" r="2.52"/><path class="cls-5" d="M178.09,169.34a2.52,2.52,0,1,1-2.52-2.52,2.52,2.52,0,0,1,2.52,2.52"/><circle class="cls-6" cx="175.57" cy="169.34" r="2.52"/><path class="cls-5" d="M180.5,180.62A2.52,2.52,0,1,1,178,178.1a2.52,2.52,0,0,1,2.52,2.52"/><circle class="cls-6" cx="177.98" cy="180.62" r="2.52"/><path class="cls-5" d="M183,172.34a2.52,2.52,0,1,1-2.52-2.52,2.52,2.52,0,0,1,2.52,2.52"/><circle class="cls-6" cx="180.49" cy="172.34" r="2.52"/><path class="cls-5" d="M185.53,173.06a2.52,2.52,0,1,1-2.52-2.52,2.52,2.52,0,0,1,2.52,2.52"/><circle class="cls-6" cx="183.01" cy="173.06" r="2.52"/><path class="cls-5" d="M188.06,173.9a2.52,2.52,0,1,1-2.52-2.52,2.52,2.52,0,0,1,2.52,2.52"/><circle class="cls-6" cx="185.53" cy="173.9" r="2.52"/><path class="cls-5" d="M190.45,165.5a2.52,2.52,0,1,1-2.52-2.52,2.52,2.52,0,0,1,2.52,2.52"/><circle class="cls-6" cx="187.93" cy="165.5" r="2.52"/><path class="cls-5" d="M193,175.34a2.52,2.52,0,1,1-2.52-2.52,2.52,2.52,0,0,1,2.52,2.52"/><circle class="cls-6" cx="190.45" cy="175.34" r="2.52"/><path class="cls-5" d="M195.37,167.78a2.52,2.52,0,1,1-2.52-2.52,2.52,2.52,0,0,1,2.52,2.52"/><circle class="cls-6" cx="192.85" cy="167.78" r="2.52"/><path class="cls-5" d="M197.9,158.06a2.52,2.52,0,1,1-2.52-2.52,2.52,2.52,0,0,1,2.52,2.52"/><circle class="cls-6" cx="195.37" cy="158.06" r="2.52"/><path class="cls-5" d="M200.42,170.06a2.52,2.52,0,1,1-2.52-2.52,2.52,2.52,0,0,1,2.52,2.52"/><circle class="cls-6" cx="197.9" cy="170.06" r="2.52"/><path class="cls-5" d="M202.94,161.78a2.52,2.52,0,1,1-2.52-2.52,2.52,2.52,0,0,1,2.52,2.52"/><circle class="cls-6" cx="200.42" cy="161.78" r="2.52"/><path class="cls-5" d="M205.34,161.06a2.52,2.52,0,1,1-2.52-2.52,2.52,2.52,0,0,1,2.52,2.52"/><circle class="cls-6" cx="202.81" cy="161.06" r="2.52"/><path class="cls-5" d="M207.86,164.78a2.52,2.52,0,1,1-2.52-2.52,2.52,2.52,0,0,1,2.52,2.52"/><circle class="cls-6" cx="205.34" cy="164.78" r="2.52"/><path class="cls-5" d="M210.37,156.5a2.52,2.52,0,1,1-2.52-2.52,2.52,2.52,0,0,1,2.52,2.52"/><circle class="cls-6" cx="207.85" cy="156.5" r="2.52"/><path class="cls-5" d="M212.9,166.34a2.52,2.52,0,1,1-2.52-2.52,2.52,2.52,0,0,1,2.52,2.52"/><circle class="cls-6" cx="210.37" cy="166.34" r="2.52"/><path class="cls-5" d="M215.29,158.78a2.52,2.52,0,1,1-2.52-2.52,2.52,2.52,0,0,1,2.52,2.52"/><circle class="cls-6" cx="212.77" cy="158.78" r="2.52"/><path class="cls-5" d="M217.82,149.66a2.52,2.52,0,1,1-2.52-2.52,2.52,2.52,0,0,1,2.52,2.52"/><circle class="cls-6" cx="215.3" cy="149.66" r="2.52"/><path class="cls-5" d="M220.22,161.06a2.52,2.52,0,1,1-2.52-2.52,2.52,2.52,0,0,1,2.52,2.52"/><circle class="cls-6" cx="217.69" cy="161.06" r="2.52"/><path class="cls-5" d="M222.85,154.22a2.52,2.52,0,1,1-2.52-2.52,2.52,2.52,0,0,1,2.52,2.52"/><circle class="cls-6" cx="220.33" cy="154.22" r="2.52"/><path class="cls-5" d="M225.26,151.22a2.52,2.52,0,1,1-2.52-2.52,2.52,2.52,0,0,1,2.52,2.52"/><circle class="cls-6" cx="222.74" cy="151.22" r="2.52"/><path class="cls-5" d="M227.78,156.5a2.52,2.52,0,1,1-2.52-2.52,2.52,2.52,0,0,1,2.52,2.52"/><circle class="cls-6" cx="225.25" cy="156.5" r="2.52"/><path class="cls-5" d="M230.17,148.22a2.52,2.52,0,1,1-2.52-2.52,2.52,2.52,0,0,1,2.52,2.52"/><circle class="cls-6" cx="227.65" cy="148.22" r="2.52"/><path class="cls-5" d="M232.69,155.78a2.52,2.52,0,1,1-2.52-2.52,2.52,2.52,0,0,1,2.52,2.52"/><circle class="cls-6" cx="230.17" cy="155.78" r="2.52"/><path class="cls-5" d="M235.22,151.94a2.52,2.52,0,1,1-2.52-2.52,2.52,2.52,0,0,1,2.52,2.52"/><circle class="cls-6" cx="232.69" cy="151.94" r="2.52"/><path class="cls-5" d="M237.73,142.94a2.52,2.52,0,1,1-2.52-2.52,2.52,2.52,0,0,1,2.52,2.52"/><circle class="cls-6" cx="235.21" cy="142.94" r="2.52"/><path class="cls-5" d="M240.13,154.94a2.52,2.52,0,1,1-2.52-2.52,2.52,2.52,0,0,1,2.52,2.52"/><circle class="cls-6" cx="237.61" cy="154.94" r="2.52"/><path class="cls-5" d="M242.66,146.66a2.52,2.52,0,1,1-2.52-2.52,2.52,2.52,0,0,1,2.52,2.52"/><circle class="cls-6" cx="240.13" cy="146.66" r="2.52"/><path class="cls-5" d="M245.17,143.66a2.52,2.52,0,1,1-2.52-2.52,2.52,2.52,0,0,1,2.52,2.52"/><circle class="cls-6" cx="242.65" cy="143.66" r="2.52"/><path class="cls-5" d="M247.69,150.5a2.52,2.52,0,1,1-2.52-2.52,2.52,2.52,0,0,1,2.52,2.52"/><circle class="cls-6" cx="245.17" cy="150.5" r="2.52"/><path class="cls-5" d="M250.1,142.1a2.52,2.52,0,1,1-2.52-2.52,2.52,2.52,0,0,1,2.52,2.52"/><circle class="cls-6" cx="247.58" cy="142.1" r="2.52"/><path class="cls-5" d="M252.62,147.38a2.52,2.52,0,1,1-2.52-2.52,2.52,2.52,0,0,1,2.52,2.52"/><circle class="cls-6" cx="250.09" cy="147.38" r="2.52"/><path class="cls-5" d="M255,145.94a2.52,2.52,0,1,1-2.52-2.52,2.52,2.52,0,0,1,2.52,2.52"/><circle class="cls-6" cx="252.49" cy="145.94" r="2.52"/><path class="cls-5" d="M257.66,136.82a2.52,2.52,0,1,1-2.52-2.52,2.52,2.52,0,0,1,2.52,2.52"/><circle class="cls-6" cx="255.13" cy="136.82" r="2.52"/><path class="cls-5" d="M260.06,148.94a2.52,2.52,0,1,1-2.52-2.52,2.52,2.52,0,0,1,2.52,2.52"/><circle class="cls-6" cx="257.53" cy="148.94" r="2.52"/><path class="cls-5" d="M262.57,141.38a2.52,2.52,0,1,1-2.52-2.52,2.52,2.52,0,0,1,2.52,2.52"/><circle class="cls-6" cx="260.05" cy="141.38" r="2.52"/><path class="cls-5" d="M265,137.66a2.52,2.52,0,1,1-2.52-2.52,2.52,2.52,0,0,1,2.52,2.52"/><circle class="cls-6" cx="262.45" cy="137.66" r="2.52"/><path class="cls-5" d="M267.5,144.38a2.52,2.52,0,1,1-2.52-2.52,2.52,2.52,0,0,1,2.52,2.52"/><circle class="cls-6" cx="264.97" cy="144.38" r="2.52"/><path class="cls-5" d="M270,136.82a2.52,2.52,0,1,1-2.52-2.52,2.52,2.52,0,0,1,2.52,2.52"/><circle class="cls-6" cx="267.49" cy="136.82" r="2.52"/><path class="cls-5" d="M272.54,140.66a2.52,2.52,0,1,1-2.52-2.52,2.52,2.52,0,0,1,2.52,2.52"/><circle class="cls-6" cx="270.02" cy="140.66" r="2.52"/><path class="cls-5" d="M274.94,140.66a2.52,2.52,0,1,1-2.52-2.52,2.52,2.52,0,0,1,2.52,2.52"/><circle class="cls-6" cx="272.41" cy="140.66" r="2.52"/><path class="cls-5" d="M277.45,132.38a2.52,2.52,0,1,1-2.52-2.52,2.52,2.52,0,0,1,2.52,2.52"/><circle class="cls-6" cx="274.93" cy="132.38" r="2.52"/><path class="cls-5" d="M280,143.66a2.52,2.52,0,1,1-2.52-2.52,2.52,2.52,0,0,1,2.52,2.52"/><circle class="cls-6" cx="277.45" cy="143.66" r="2.52"/><path class="cls-5" d="M282.5,136.82A2.52,2.52,0,1,1,280,134.3a2.52,2.52,0,0,1,2.52,2.52"/><circle class="cls-6" cx="279.97" cy="136.82" r="2.52"/><path class="cls-5" d="M284.9,131.54a2.52,2.52,0,1,1-2.52-2.52,2.52,2.52,0,0,1,2.52,2.52"/><circle class="cls-6" cx="282.37" cy="131.54" r="2.52"/><path class="cls-5" d="M287.41,139.94a2.52,2.52,0,1,1-2.52-2.52,2.52,2.52,0,0,1,2.52,2.52"/><circle class="cls-6" cx="284.89" cy="139.94" r="2.52"/><path class="cls-5" d="M289.82,132.38a2.52,2.52,0,1,1-2.52-2.52,2.52,2.52,0,0,1,2.52,2.52"/><circle class="cls-6" cx="287.3" cy="132.38" r="2.52"/><path class="cls-5" d="M292.45,134.54a2.52,2.52,0,1,1-2.52-2.52,2.52,2.52,0,0,1,2.52,2.52"/><circle class="cls-6" cx="289.93" cy="134.54" r="2.52"/><path class="cls-5" d="M294.85,136.1a2.52,2.52,0,1,1-2.52-2.52,2.52,2.52,0,0,1,2.52,2.52"/><circle class="cls-6" cx="292.33" cy="136.1" r="2.52"/><path class="cls-5" d="M297.38,127.82a2.52,2.52,0,1,1-2.52-2.52,2.52,2.52,0,0,1,2.52,2.52"/><circle class="cls-6" cx="294.85" cy="127.82" r="2.52"/><path class="cls-5" d="M299.78,137.66a2.52,2.52,0,1,1-2.52-2.52,2.52,2.52,0,0,1,2.52,2.52"/><circle class="cls-6" cx="297.25" cy="137.66" r="2.52"/><path class="cls-5" d="M302.29,132.38a2.52,2.52,0,1,1-2.52-2.52,2.52,2.52,0,0,1,2.52,2.52"/><circle class="cls-6" cx="299.78" cy="132.38" r="2.52"/><path class="cls-5" d="M304.82,127.1a2.52,2.52,0,1,1-2.52-2.52,2.52,2.52,0,0,1,2.52,2.52"/><circle class="cls-6" cx="302.3" cy="127.1" r="2.52"/><path class="cls-5" d="M307.34,136.1a2.52,2.52,0,1,1-2.52-2.52,2.52,2.52,0,0,1,2.52,2.52"/><circle class="cls-6" cx="304.82" cy="136.1" r="2.52"/><path class="cls-5" d="M309.74,128.54a2.52,2.52,0,1,1-2.52-2.52,2.52,2.52,0,0,1,2.52,2.52"/><circle class="cls-6" cx="307.22" cy="128.54" r="2.52"/><path class="cls-5" d="M312.26,129.26a2.52,2.52,0,1,1-2.52-2.52,2.52,2.52,0,0,1,2.52,2.52"/><circle class="cls-6" cx="309.74" cy="129.26" r="2.52"/><path class="cls-5" d="M314.78,132.38a2.52,2.52,0,1,1-2.52-2.52,2.52,2.52,0,0,1,2.52,2.52"/><circle class="cls-6" cx="312.25" cy="132.38" r="2.52"/><path class="cls-5" d="M317.29,124.82a2.52,2.52,0,1,1-2.52-2.52,2.52,2.52,0,0,1,2.52,2.52"/><circle class="cls-6" cx="314.78" cy="124.82" r="2.52"/><path class="cls-5" d="M319.7,131.54a2.52,2.52,0,1,1-2.52-2.52,2.52,2.52,0,0,1,2.52,2.52"/><circle class="cls-6" cx="317.18" cy="131.54" r="2.52"/><path class="cls-5" d="M322.22,128.54A2.52,2.52,0,1,1,319.7,126a2.52,2.52,0,0,1,2.52,2.52"/><circle class="cls-6" cx="319.7" cy="128.54" r="2.52"/><path class="cls-5" d="M324.62,123.26a2.52,2.52,0,1,1-2.52-2.52,2.52,2.52,0,0,1,2.52,2.52"/><circle class="cls-6" cx="322.1" cy="123.26" r="2.52"/><path class="cls-5" d="M327.26,132.38a2.52,2.52,0,1,1-2.52-2.52,2.52,2.52,0,0,1,2.52,2.52"/><circle class="cls-6" cx="324.74" cy="132.38" r="2.52"/><path class="cls-5" d="M329.66,124.82a2.52,2.52,0,1,1-2.52-2.52,2.52,2.52,0,0,1,2.52,2.52"/><circle class="cls-6" cx="327.14" cy="124.82" r="2.52"/><path class="cls-5" d="M332.18,124.82a2.52,2.52,0,1,1-2.52-2.52,2.52,2.52,0,0,1,2.52,2.52"/><circle class="cls-6" cx="329.66" cy="124.82" r="2.52"/><path class="cls-5" d="M334.57,128.54a2.52,2.52,0,1,1-2.52-2.52,2.52,2.52,0,0,1,2.52,2.52"/><circle class="cls-6" cx="332.06" cy="128.54" r="2.52"/><path class="cls-5" d="M337.1,121a2.52,2.52,0,1,1-2.52-2.52A2.52,2.52,0,0,1,337.1,121"/><circle class="cls-6" cx="334.58" cy="120.98" r="2.52"/><path class="cls-5" d="M339.62,127.1a2.52,2.52,0,1,1-2.52-2.52,2.52,2.52,0,0,1,2.52,2.52"/><circle class="cls-6" cx="337.1" cy="127.1" r="2.52"/><path class="cls-5" d="M342.14,125.54a2.52,2.52,0,1,1-2.52-2.52,2.52,2.52,0,0,1,2.52,2.52"/><circle class="cls-6" cx="339.62" cy="125.54" r="2.52"/><path class="cls-5" d="M344.54,120.26a2.52,2.52,0,1,1-2.52-2.52,2.52,2.52,0,0,1,2.52,2.52"/><circle class="cls-6" cx="342.02" cy="120.26" r="2.52"/><path class="cls-5" d="M347.06,129.26a2.52,2.52,0,1,1-2.52-2.52,2.52,2.52,0,0,1,2.52,2.52"/><circle class="cls-6" cx="344.54" cy="129.26" r="2.52"/><path class="cls-5" d="M349.58,122.54a2.52,2.52,0,1,1-2.52-2.52,2.52,2.52,0,0,1,2.52,2.52"/><circle class="cls-6" cx="347.06" cy="122.54" r="2.52"/><path class="cls-5" d="M352.1,121a2.52,2.52,0,1,1-2.52-2.52A2.52,2.52,0,0,1,352.1,121"/><circle class="cls-6" cx="349.58" cy="120.98" r="2.52"/><path class="cls-5" d="M354.5,126.26a2.52,2.52,0,1,1-2.52-2.52,2.52,2.52,0,0,1,2.52,2.52"/><circle class="cls-6" cx="351.98" cy="126.26" r="2.52"/><path class="cls-5" d="M357,118a2.52,2.52,0,1,1-2.52-2.52A2.52,2.52,0,0,1,357,118"/><circle class="cls-6" cx="354.5" cy="117.98" r="2.52"/><path class="cls-5" d="M359.42,123.26a2.52,2.52,0,1,1-2.52-2.52,2.52,2.52,0,0,1,2.52,2.52"/><circle class="cls-6" cx="356.9" cy="123.26" r="2.52"/><path class="cls-5" d="M361.94,123.26a2.52,2.52,0,1,1-2.52-2.52,2.52,2.52,0,0,1,2.52,2.52"/><circle class="cls-6" cx="359.42" cy="123.26" r="2.52"/><path class="cls-5" d="M364.46,117.26a2.52,2.52,0,1,1-2.52-2.52,2.52,2.52,0,0,1,2.52,2.52"/><circle class="cls-6" cx="361.94" cy="117.26" r="2.52"/><path class="cls-5" d="M367,124.82a2.52,2.52,0,1,1-2.52-2.52,2.52,2.52,0,0,1,2.52,2.52"/><circle class="cls-6" cx="364.46" cy="124.82" r="2.52"/><path class="cls-5" d="M369.38,119.54a2.52,2.52,0,1,1-2.52-2.52,2.52,2.52,0,0,1,2.52,2.52"/><circle class="cls-6" cx="366.86" cy="119.54" r="2.52"/><path class="cls-5" d="M371.9,118a2.52,2.52,0,1,1-2.52-2.52A2.52,2.52,0,0,1,371.9,118"/><circle class="cls-6" cx="369.38" cy="117.98" r="2.52"/><path class="cls-5" d="M374.42,124a2.52,2.52,0,1,1-2.52-2.52,2.52,2.52,0,0,1,2.52,2.52"/><circle class="cls-6" cx="371.9" cy="123.98" r="2.52"/><path class="cls-5" d="M376.94,115.7a2.52,2.52,0,1,1-2.52-2.52,2.52,2.52,0,0,1,2.52,2.52"/><circle class="cls-6" cx="374.42" cy="115.7" r="2.52"/><path class="cls-5" d="M379.34,119.54a2.52,2.52,0,1,1-2.52-2.52,2.52,2.52,0,0,1,2.52,2.52"/><circle class="cls-6" cx="376.82" cy="119.54" r="2.52"/><path class="cls-5" d="M381.86,120.26a2.52,2.52,0,1,1-2.52-2.52,2.52,2.52,0,0,1,2.52,2.52"/><circle class="cls-6" cx="379.34" cy="120.26" r="2.52"/><path class="cls-5" d="M384.38,114.26a2.52,2.52,0,1,1-2.52-2.52,2.52,2.52,0,0,1,2.52,2.52"/><circle class="cls-6" cx="381.86" cy="114.26" r="2.52"/><path class="cls-5" d="M386.9,121a2.52,2.52,0,1,1-2.52-2.52A2.52,2.52,0,0,1,386.9,121"/><circle class="cls-6" cx="384.38" cy="120.98" r="2.52"/><path class="cls-5" d="M389.29,117.26a2.52,2.52,0,1,1-2.52-2.52,2.52,2.52,0,0,1,2.52,2.52"/><circle class="cls-6" cx="386.78" cy="117.26" r="2.52"/><path class="cls-5" d="M391.82,115a2.52,2.52,0,1,1-2.52-2.52,2.52,2.52,0,0,1,2.52,2.52"/><circle class="cls-6" cx="389.3" cy="114.98" r="2.52"/><path class="cls-5" d="M394.22,121a2.52,2.52,0,1,1-2.52-2.52,2.52,2.52,0,0,1,2.52,2.52"/><circle class="cls-6" cx="391.7" cy="120.98" r="2.52"/><path class="cls-5" d="M396.74,113.42a2.52,2.52,0,1,1-2.52-2.52,2.52,2.52,0,0,1,2.52,2.52"/><circle class="cls-6" cx="394.22" cy="113.42" r="2.52"/><path class="cls-5" d="M399.26,116.42a2.52,2.52,0,1,1-2.52-2.52,2.52,2.52,0,0,1,2.52,2.52"/><circle class="cls-6" cx="396.74" cy="116.42" r="2.52"/><path class="cls-5" d="M401.78,118a2.52,2.52,0,1,1-2.52-2.52,2.52,2.52,0,0,1,2.52,2.52"/><circle class="cls-6" cx="399.26" cy="117.98" r="2.52"/><path class="cls-5" d="M404.18,112a2.52,2.52,0,1,1-2.52-2.52,2.52,2.52,0,0,1,2.52,2.52"/><circle class="cls-6" cx="401.66" cy="111.98" r="2.52"/><path class="cls-5" d="M406.7,118a2.52,2.52,0,1,1-2.52-2.52A2.52,2.52,0,0,1,406.7,118"/><circle class="cls-6" cx="404.18" cy="117.98" r="2.52"/><path class="cls-5" d="M409.22,115a2.52,2.52,0,1,1-2.52-2.52,2.52,2.52,0,0,1,2.52,2.52"/><circle class="cls-6" cx="406.7" cy="114.98" r="2.52"/><path class="cls-5" d="M411.74,112.7a2.52,2.52,0,1,1-2.52-2.52,2.52,2.52,0,0,1,2.52,2.52"/><circle class="cls-6" cx="409.22" cy="112.7" r="2.52"/><path class="cls-5" d="M414.14,118.7a2.52,2.52,0,1,1-2.52-2.52,2.52,2.52,0,0,1,2.52,2.52"/><circle class="cls-6" cx="411.62" cy="118.7" r="2.52"/><path class="cls-5" d="M416.66,111.14a2.52,2.52,0,1,1-2.52-2.52,2.52,2.52,0,0,1,2.52,2.52"/><circle class="cls-6" cx="414.14" cy="111.14" r="2.52"/><path class="cls-5" d="M419.18,113.42a2.52,2.52,0,1,1-2.52-2.52,2.52,2.52,0,0,1,2.52,2.52"/><circle class="cls-6" cx="416.66" cy="113.42" r="2.52"/><path class="cls-5" d="M421.58,116.42a2.52,2.52,0,1,1-2.52-2.52,2.52,2.52,0,0,1,2.52,2.52"/><circle class="cls-6" cx="419.06" cy="116.42" r="2.52"/><path class="cls-5" d="M424.1,109.7a2.52,2.52,0,1,1-2.52-2.52,2.52,2.52,0,0,1,2.52,2.52"/><circle class="cls-6" cx="421.58" cy="109.7" r="2.52"/><path class="cls-5" d="M426.62,115a2.52,2.52,0,1,1-2.52-2.52,2.52,2.52,0,0,1,2.52,2.52"/><circle class="cls-6" cx="424.1" cy="114.98" r="2.52"/><path class="cls-5" d="M429,112.7a2.52,2.52,0,1,1-2.52-2.52A2.52,2.52,0,0,1,429,112.7"/><circle class="cls-6" cx="426.5" cy="112.7" r="2.52"/><path class="cls-5" d="M431.54,110.42A2.52,2.52,0,1,1,429,107.9a2.52,2.52,0,0,1,2.52,2.52"/><circle class="cls-6" cx="429.02" cy="110.42" r="2.52"/><path class="cls-5" d="M434.06,116.42a2.52,2.52,0,1,1-2.52-2.52,2.52,2.52,0,0,1,2.52,2.52"/><circle class="cls-6" cx="431.54" cy="116.42" r="2.52"/><path class="cls-5" d="M436.58,109.7a2.52,2.52,0,1,1-2.52-2.52,2.52,2.52,0,0,1,2.52,2.52"/><circle class="cls-6" cx="434.06" cy="109.7" r="2.52"/><path class="cls-5" d="M439,111.14a2.52,2.52,0,1,1-2.52-2.52,2.52,2.52,0,0,1,2.52,2.52"/><circle class="cls-6" cx="436.46" cy="111.14" r="2.52"/><path class="cls-5" d="M441.5,114.26a2.52,2.52,0,1,1-2.52-2.52,2.52,2.52,0,0,1,2.52,2.52"/><circle class="cls-6" cx="438.98" cy="114.26" r="2.52"/><path class="cls-5" d="M444,108.14a2.52,2.52,0,1,1-2.52-2.52,2.52,2.52,0,0,1,2.52,2.52"/><circle class="cls-6" cx="441.5" cy="108.14" r="2.52"/><path class="cls-5" d="M446.54,112a2.52,2.52,0,1,1-2.52-2.52,2.52,2.52,0,0,1,2.52,2.52"/><circle class="cls-6" cx="444.02" cy="111.98" r="2.52"/><path class="cls-5" d="M448.94,111.14a2.52,2.52,0,1,1-2.52-2.52,2.52,2.52,0,0,1,2.52,2.52"/><circle class="cls-6" cx="446.42" cy="111.14" r="2.52"/><path class="cls-5" d="M451.46,108.14a2.52,2.52,0,1,1-2.52-2.52,2.52,2.52,0,0,1,2.52,2.52"/><circle class="cls-6" cx="448.94" cy="108.14" r="2.52"/><path class="cls-5" d="M454,113.42a2.52,2.52,0,1,1-2.52-2.52,2.52,2.52,0,0,1,2.52,2.52"/><circle class="cls-6" cx="451.46" cy="113.42" r="2.52"/><path class="cls-5" d="M456.38,108.14a2.52,2.52,0,1,1-2.52-2.52,2.52,2.52,0,0,1,2.52,2.52"/><circle class="cls-6" cx="453.86" cy="108.14" r="2.52"/><path class="cls-5" d="M458.9,108.86a2.52,2.52,0,1,1-2.52-2.52,2.52,2.52,0,0,1,2.52,2.52"/><circle class="cls-6" cx="456.38" cy="108.86" r="2.52"/><path class="cls-5" d="M461.42,112.7a2.52,2.52,0,1,1-2.52-2.52,2.52,2.52,0,0,1,2.52,2.52"/><circle class="cls-6" cx="458.9" cy="112.7" r="2.52"/><path class="cls-5" d="M463.94,106.7a2.52,2.52,0,1,1-2.52-2.52,2.52,2.52,0,0,1,2.52,2.52"/><circle class="cls-6" cx="461.42" cy="106.7" r="2.52"/><path class="cls-5" d="M466.34,109.7a2.52,2.52,0,1,1-2.52-2.52,2.52,2.52,0,0,1,2.52,2.52"/><circle class="cls-6" cx="463.82" cy="109.7" r="2.52"/><path class="cls-5" d="M468.86,109.7a2.52,2.52,0,1,1-2.52-2.52,2.52,2.52,0,0,1,2.52,2.52"/><circle class="cls-6" cx="466.34" cy="109.7" r="2.52"/><path class="cls-5" d="M471.38,106.7a2.52,2.52,0,1,1-2.52-2.52,2.52,2.52,0,0,1,2.52,2.52"/><circle class="cls-6" cx="468.86" cy="106.7" r="2.52"/><path class="cls-5" d="M473.78,110.42a2.52,2.52,0,1,1-2.52-2.52,2.52,2.52,0,0,1,2.52,2.52"/><circle class="cls-6" cx="471.26" cy="110.42" r="2.52"/><path class="cls-5" d="M476.3,106.7a2.52,2.52,0,1,1-2.52-2.52,2.52,2.52,0,0,1,2.52,2.52"/><circle class="cls-6" cx="473.78" cy="106.7" r="2.52"/><path class="cls-5" d="M478.82,107.42a2.52,2.52,0,1,1-2.52-2.52,2.52,2.52,0,0,1,2.52,2.52"/><circle class="cls-6" cx="476.3" cy="107.42" r="2.52"/><path class="cls-5" d="M481.22,110.42a2.52,2.52,0,1,1-2.52-2.52,2.52,2.52,0,0,1,2.52,2.52"/><circle class="cls-6" cx="478.7" cy="110.42" r="2.52"/><path class="cls-5" d="M483.74,105.14a2.52,2.52,0,1,1-2.52-2.52,2.52,2.52,0,0,1,2.52,2.52"/><circle class="cls-6" cx="481.22" cy="105.14" r="2.52"/><path class="cls-5" d="M486.26,108.14a2.52,2.52,0,1,1-2.52-2.52,2.52,2.52,0,0,1,2.52,2.52"/><circle class="cls-6" cx="483.74" cy="108.14" r="2.52"/><path class="cls-5" d="M488.78,108.14a2.52,2.52,0,1,1-2.52-2.52,2.52,2.52,0,0,1,2.52,2.52"/><circle class="cls-6" cx="486.26" cy="108.14" r="2.52"/><path class="cls-5" d="M491.18,105.14a2.52,2.52,0,1,1-2.52-2.52,2.52,2.52,0,0,1,2.52,2.52"/><circle class="cls-6" cx="488.66" cy="105.14" r="2.52"/><path class="cls-5" d="M493.7,108.14a2.52,2.52,0,1,1-2.52-2.52,2.52,2.52,0,0,1,2.52,2.52"/><circle class="cls-6" cx="491.18" cy="108.14" r="2.52"/><path class="cls-5" d="M496.22,105.14a2.52,2.52,0,1,1-2.52-2.52,2.52,2.52,0,0,1,2.52,2.52"/><circle class="cls-6" cx="493.7" cy="105.14" r="2.52"/><path class="cls-5" d="M498.74,105.14a2.52,2.52,0,1,1-2.52-2.52,2.52,2.52,0,0,1,2.52,2.52"/><circle class="cls-6" cx="496.22" cy="105.14" r="2.52"/><path class="cls-5" d="M501.14,108.86a2.52,2.52,0,1,1-2.52-2.52,2.52,2.52,0,0,1,2.52,2.52"/><circle class="cls-6" cx="498.62" cy="108.86" r="2.52"/><path class="cls-5" d="M503.66,103.58a2.52,2.52,0,1,1-2.52-2.52,2.52,2.52,0,0,1,2.52,2.52"/><circle class="cls-6" cx="501.14" cy="103.58" r="2.52"/><path class="cls-5" d="M506.18,105.86a2.52,2.52,0,1,1-2.52-2.52,2.52,2.52,0,0,1,2.52,2.52"/><circle class="cls-6" cx="503.66" cy="105.86" r="2.52"/><path class="cls-5" d="M508.58,107.42a2.52,2.52,0,1,1-2.52-2.52,2.52,2.52,0,0,1,2.52,2.52"/><circle class="cls-6" cx="506.06" cy="107.42" r="2.52"/><path class="cls-5" d="M511.1,103.58a2.52,2.52,0,1,1-2.52-2.52,2.52,2.52,0,0,1,2.52,2.52"/><circle class="cls-6" cx="508.58" cy="103.58" r="2.52"/><path class="cls-5" d="M513.62,106.7a2.52,2.52,0,1,1-2.52-2.52,2.52,2.52,0,0,1,2.52,2.52"/><circle class="cls-6" cx="511.1" cy="106.7" r="2.52"/><path class="cls-5" d="M516,104.42a2.52,2.52,0,1,1-2.52-2.52,2.52,2.52,0,0,1,2.52,2.52"/><circle class="cls-6" cx="513.5" cy="104.42" r="2.52"/><path class="cls-5" d="M518.54,103.58a2.52,2.52,0,1,1-2.52-2.52,2.52,2.52,0,0,1,2.52,2.52"/><circle class="cls-6" cx="516.02" cy="103.58" r="2.52"/><path class="cls-5" d="M521.06,107.42a2.52,2.52,0,1,1-2.52-2.52,2.52,2.52,0,0,1,2.52,2.52"/><circle class="cls-6" cx="518.54" cy="107.42" r="2.52"/><path class="cls-5" d="M523.58,101.42a2.52,2.52,0,1,1-2.52-2.52,2.52,2.52,0,0,1,2.52,2.52"/><circle class="cls-6" cx="521.06" cy="101.42" r="2.52"/><path class="cls-5" d="M526,104.42a2.52,2.52,0,1,1-2.52-2.52,2.52,2.52,0,0,1,2.52,2.52"/><circle class="cls-6" cx="523.46" cy="104.42" r="2.52"/><path class="cls-5" d="M528.5,105.86a2.52,2.52,0,1,1-2.52-2.52,2.52,2.52,0,0,1,2.52,2.52"/><circle class="cls-6" cx="525.98" cy="105.86" r="2.52"/><path class="cls-5" d="M531,102.14a2.52,2.52,0,1,1-2.52-2.52,2.52,2.52,0,0,1,2.52,2.52"/><circle class="cls-6" cx="528.5" cy="102.14" r="2.52"/><path class="cls-5" d="M533.54,104.42A2.52,2.52,0,1,1,531,101.9a2.52,2.52,0,0,1,2.52,2.52"/><circle class="cls-6" cx="531.02" cy="104.42" r="2.52"/><path class="cls-5" d="M535.94,102.86a2.52,2.52,0,1,1-2.52-2.52,2.52,2.52,0,0,1,2.52,2.52"/><circle class="cls-6" cx="533.42" cy="102.86" r="2.52"/><path class="cls-5" d="M538.46,102.14a2.52,2.52,0,1,1-2.52-2.52,2.52,2.52,0,0,1,2.52,2.52"/><circle class="cls-6" cx="535.94" cy="102.14" r="2.52"/><path class="cls-5" d="M540.86,105.14a2.52,2.52,0,1,1-2.52-2.52,2.52,2.52,0,0,1,2.52,2.52"/><circle class="cls-6" cx="538.34" cy="105.14" r="2.52"/><path class="cls-5" d="M543.38,100.58a2.52,2.52,0,1,1-2.52-2.52,2.52,2.52,0,0,1,2.52,2.52"/><circle class="cls-6" cx="540.86" cy="100.58" r="2.52"/><path class="cls-5" d="M545.9,102.86a2.52,2.52,0,1,1-2.52-2.52,2.52,2.52,0,0,1,2.52,2.52"/><circle class="cls-6" cx="543.38" cy="102.86" r="2.52"/><path class="cls-5" d="M548.42,104.42a2.52,2.52,0,1,1-2.52-2.52,2.52,2.52,0,0,1,2.52,2.52"/><circle class="cls-6" cx="545.9" cy="104.42" r="2.52"/><path class="cls-5" d="M550.82,100.58a2.52,2.52,0,1,1-2.52-2.52,2.52,2.52,0,0,1,2.52,2.52"/><circle class="cls-6" cx="548.3" cy="100.58" r="2.52"/><path class="cls-5" d="M553.34,102.86a2.52,2.52,0,1,1-2.52-2.52,2.52,2.52,0,0,1,2.52,2.52"/><circle class="cls-6" cx="550.82" cy="102.86" r="2.52"/><path class="cls-5" d="M555.86,102.14a2.52,2.52,0,1,1-2.52-2.52,2.52,2.52,0,0,1,2.52,2.52"/><circle class="cls-6" cx="553.34" cy="102.14" r="2.52"/><path class="cls-5" d="M558.38,100.58a2.52,2.52,0,1,1-2.52-2.52,2.52,2.52,0,0,1,2.52,2.52"/><circle class="cls-6" cx="555.86" cy="100.58" r="2.52"/><path class="cls-5" d="M560.78,102.86a2.52,2.52,0,1,1-2.52-2.52,2.52,2.52,0,0,1,2.52,2.52"/><circle class="cls-6" cx="558.26" cy="102.86" r="2.52"/><path class="cls-5" d="M563.3,99.86a2.52,2.52,0,1,1-2.52-2.52,2.52,2.52,0,0,1,2.52,2.52"/><circle class="cls-6" cx="560.78" cy="99.86" r="2.52"/><path class="cls-5" d="M565.82,101.42a2.52,2.52,0,1,1-2.52-2.52,2.52,2.52,0,0,1,2.52,2.52"/><circle class="cls-6" cx="563.3" cy="101.42" r="2.52"/><path class="cls-5" d="M568.34,103.58a2.52,2.52,0,1,1-2.52-2.52,2.52,2.52,0,0,1,2.52,2.52"/><circle class="cls-6" cx="565.82" cy="103.58" r="2.52"/><path class="cls-5" d="M570.74,99.86a2.52,2.52,0,1,1-2.52-2.52,2.52,2.52,0,0,1,2.52,2.52"/><circle class="cls-6" cx="568.22" cy="99.86" r="2.52"/><path class="cls-5" d="M573.26,101.42a2.52,2.52,0,1,1-2.52-2.52,2.52,2.52,0,0,1,2.52,2.52"/><circle class="cls-6" cx="570.74" cy="101.42" r="2.52"/><path class="cls-5" d="M575.66,101.42a2.52,2.52,0,1,1-2.52-2.52,2.52,2.52,0,0,1,2.52,2.52"/><circle class="cls-6" cx="573.14" cy="101.42" r="2.52"/><path class="cls-5" d="M578.18,99.86a2.52,2.52,0,1,1-2.52-2.52,2.52,2.52,0,0,1,2.52,2.52"/><circle class="cls-6" cx="575.66" cy="99.86" r="2.52"/><path class="cls-5" d="M580.7,101.42a2.52,2.52,0,1,1-2.52-2.52,2.52,2.52,0,0,1,2.52,2.52"/><circle class="cls-6" cx="578.18" cy="101.42" r="2.52"/><path class="cls-5" d="M583.22,99.14a2.52,2.52,0,1,1-2.52-2.52,2.52,2.52,0,0,1,2.52,2.52"/><circle class="cls-6" cx="580.7" cy="99.14" r="2.52"/><path class="cls-5" d="M585.62,99.86a2.52,2.52,0,1,1-2.52-2.52,2.52,2.52,0,0,1,2.52,2.52"/><circle class="cls-6" cx="583.1" cy="99.86" r="2.52"/><path class="cls-5" d="M588.14,101.42a2.52,2.52,0,1,1-2.52-2.52,2.52,2.52,0,0,1,2.52,2.52"/><circle class="cls-6" cx="585.62" cy="101.42" r="2.52"/><path class="cls-5" d="M590.66,98.3a2.52,2.52,0,1,1-2.52-2.52,2.52,2.52,0,0,1,2.52,2.52"/><circle class="cls-6" cx="588.14" cy="98.3" r="2.52"/><path class="cls-5" d="M593.18,99.86a2.52,2.52,0,1,1-2.52-2.52,2.52,2.52,0,0,1,2.52,2.52"/><circle class="cls-6" cx="590.66" cy="99.86" r="2.52"/><path class="cls-5" d="M595.58,100.58a2.52,2.52,0,1,1-2.52-2.52,2.52,2.52,0,0,1,2.52,2.52"/><circle class="cls-6" cx="593.06" cy="100.58" r="2.52"/><path class="cls-5" d="M598.1,98.3a2.52,2.52,0,1,1-2.52-2.52,2.52,2.52,0,0,1,2.52,2.52"/><circle class="cls-6" cx="595.58" cy="98.3" r="2.52"/><path class="cls-5" d="M600.5,99.86A2.52,2.52,0,1,1,598,97.34a2.52,2.52,0,0,1,2.52,2.52"/><circle class="cls-6" cx="597.98" cy="99.86" r="2.52"/><path class="cls-5" d="M603.14,97.58a2.52,2.52,0,1,1-2.52-2.52,2.52,2.52,0,0,1,2.52,2.52"/><circle class="cls-6" cx="600.62" cy="97.58" r="2.52"/><path class="cls-5" d="M605.54,98.3A2.52,2.52,0,1,1,603,95.78a2.52,2.52,0,0,1,2.52,2.52"/><circle class="cls-6" cx="603.02" cy="98.3" r="2.52"/><path class="cls-5" d="M608.06,99.86a2.52,2.52,0,1,1-2.52-2.52,2.52,2.52,0,0,1,2.52,2.52"/><circle class="cls-6" cx="605.54" cy="99.86" r="2.52"/><path class="cls-5" d="M610.46,97.58a2.52,2.52,0,1,1-2.52-2.52,2.52,2.52,0,0,1,2.52,2.52"/><circle class="cls-6" cx="607.94" cy="97.58" r="2.52"/><path class="cls-5" d="M613,98.3a2.52,2.52,0,1,1-2.52-2.52A2.52,2.52,0,0,1,613,98.3"/><circle class="cls-6" cx="610.46" cy="98.3" r="2.52"/><path class="cls-5" d="M615.5,99.14A2.52,2.52,0,1,1,613,96.62a2.52,2.52,0,0,1,2.52,2.52"/><circle class="cls-6" cx="612.98" cy="99.14" r="2.52"/><path class="cls-5" d="M618,97.58a2.52,2.52,0,1,1-2.52-2.52A2.52,2.52,0,0,1,618,97.58"/><circle class="cls-6" cx="615.5" cy="97.58" r="2.52"/><path class="cls-5" d="M620.42,98.3a2.52,2.52,0,1,1-2.52-2.52,2.52,2.52,0,0,1,2.52,2.52"/><circle class="cls-6" cx="617.9" cy="98.3" r="2.52"/><path class="cls-5" d="M622.94,97.58a2.52,2.52,0,1,1-2.52-2.52,2.52,2.52,0,0,1,2.52,2.52"/><circle class="cls-6" cx="620.42" cy="97.58" r="2.52"/><path class="cls-5" d="M625.46,97.58a2.52,2.52,0,1,1-2.52-2.52,2.52,2.52,0,0,1,2.52,2.52"/><circle class="cls-6" cx="622.94" cy="97.58" r="2.52"/><path class="cls-5" d="M628,98.3a2.52,2.52,0,1,1-2.52-2.52A2.52,2.52,0,0,1,628,98.3"/><circle class="cls-6" cx="625.46" cy="98.3" r="2.52"/><path class="cls-5" d="M630.38,96.86a2.52,2.52,0,1,1-2.52-2.52,2.52,2.52,0,0,1,2.52,2.52"/><circle class="cls-6" cx="627.86" cy="96.86" r="2.52"/><path class="cls-5" d="M632.9,96.86a2.52,2.52,0,1,1-2.52-2.52,2.52,2.52,0,0,1,2.52,2.52"/><circle class="cls-6" cx="630.38" cy="96.86" r="2.52"/><path class="cls-5" d="M635.3,98.3a2.52,2.52,0,1,1-2.52-2.52,2.52,2.52,0,0,1,2.52,2.52"/><circle class="cls-6" cx="632.78" cy="98.3" r="2.52"/><path class="cls-5" d="M637.94,96.86a2.52,2.52,0,1,1-2.52-2.52,2.52,2.52,0,0,1,2.52,2.52"/><circle class="cls-6" cx="635.42" cy="96.86" r="2.52"/><path class="cls-5" d="M640.34,97.58a2.52,2.52,0,1,1-2.52-2.52,2.52,2.52,0,0,1,2.52,2.52"/><circle class="cls-6" cx="637.82" cy="97.58" r="2.52"/><path class="cls-5" d="M642.86,96.86a2.52,2.52,0,1,1-2.52-2.52,2.52,2.52,0,0,1,2.52,2.52"/><circle class="cls-6" cx="640.34" cy="96.86" r="2.52"/><path class="cls-5" d="M645.26,96a2.52,2.52,0,1,1-2.52-2.52A2.52,2.52,0,0,1,645.26,96"/><circle class="cls-6" cx="642.74" cy="96.02" r="2.52"/><path class="cls-5" d="M647.77,96.86a2.52,2.52,0,1,1-2.52-2.52,2.52,2.52,0,0,1,2.52,2.52"/><circle class="cls-6" cx="645.25" cy="96.86" r="2.52"/><path class="cls-5" d="M650.3,96a2.52,2.52,0,1,1-2.52-2.52A2.52,2.52,0,0,1,650.3,96"/><circle class="cls-6" cx="647.78" cy="96.02" r="2.52"/><path class="cls-5" d="M652.82,96a2.52,2.52,0,1,1-2.52-2.52A2.52,2.52,0,0,1,652.82,96"/><circle class="cls-6" cx="650.29" cy="96.02" r="2.52"/><path class="cls-5" d="M655.21,96.86a2.52,2.52,0,1,1-2.52-2.52,2.52,2.52,0,0,1,2.52,2.52"/><circle class="cls-6" cx="652.69" cy="96.86" r="2.52"/><path class="cls-5" d="M657.73,96a2.52,2.52,0,1,1-2.52-2.52A2.52,2.52,0,0,1,657.73,96"/><circle class="cls-6" cx="655.21" cy="96.02" r="2.52"/><path class="cls-5" d="M660.25,96a2.52,2.52,0,1,1-2.52-2.52A2.52,2.52,0,0,1,660.25,96"/><circle class="cls-6" cx="657.73" cy="96.02" r="2.52"/><path class="cls-5" d="M662.77,96a2.52,2.52,0,1,1-2.52-2.52A2.52,2.52,0,0,1,662.77,96"/><circle class="cls-6" cx="660.25" cy="96.02" r="2.52"/><path class="cls-5" d="M665.17,95.3a2.52,2.52,0,1,1-2.52-2.52,2.52,2.52,0,0,1,2.52,2.52"/><circle class="cls-6" cx="662.65" cy="95.3" r="2.52"/><path class="cls-5" d="M667.69,96a2.52,2.52,0,1,1-2.52-2.52A2.52,2.52,0,0,1,667.69,96"/><circle class="cls-6" cx="665.17" cy="96.02" r="2.52"/><path class="cls-5" d="M670.09,95.3a2.52,2.52,0,1,1-2.52-2.52,2.52,2.52,0,0,1,2.52,2.52"/><circle class="cls-6" cx="667.57" cy="95.3" r="2.52"/><path class="cls-5" d="M672.73,95.3a2.52,2.52,0,1,1-2.52-2.52,2.52,2.52,0,0,1,2.52,2.52"/><circle class="cls-6" cx="670.21" cy="95.3" r="2.52"/><path class="cls-5" d="M675.13,95.3a2.52,2.52,0,1,1-2.52-2.52,2.52,2.52,0,0,1,2.52,2.52"/><circle class="cls-6" cx="672.61" cy="95.3" r="2.52"/><path class="cls-5" d="M677.65,95.3a2.52,2.52,0,1,1-2.52-2.52,2.52,2.52,0,0,1,2.52,2.52"/><circle class="cls-6" cx="675.13" cy="95.3" r="2.52"/><path class="cls-5" d="M680.05,95.3a2.52,2.52,0,1,1-2.52-2.52,2.52,2.52,0,0,1,2.52,2.52"/><circle class="cls-6" cx="677.53" cy="95.3" r="2.52"/><path class="cls-5" d="M682.57,95.3a2.52,2.52,0,1,1-2.52-2.52,2.52,2.52,0,0,1,2.52,2.52"/><circle class="cls-6" cx="680.05" cy="95.3" r="2.52"/><path class="cls-5" d="M685.09,94.58a2.52,2.52,0,1,1-2.52-2.52,2.52,2.52,0,0,1,2.52,2.52"/><circle class="cls-6" cx="682.57" cy="94.58" r="2.52"/><path class="cls-5" d="M687.61,94.58a2.52,2.52,0,1,1-2.52-2.52,2.52,2.52,0,0,1,2.52,2.52"/><circle class="cls-6" cx="685.09" cy="94.58" r="2.52"/><path class="cls-5" d="M690,94.58a2.52,2.52,0,1,1-2.52-2.52A2.52,2.52,0,0,1,690,94.58"/><circle class="cls-6" cx="687.49" cy="94.58" r="2.52"/><path class="cls-5" d="M692.53,94.58A2.52,2.52,0,1,1,690,92.06a2.52,2.52,0,0,1,2.52,2.52"/><circle class="cls-6" cx="690.01" cy="94.58" r="2.52"/><path class="cls-5" d="M695.05,94.58a2.52,2.52,0,1,1-2.52-2.52,2.52,2.52,0,0,1,2.52,2.52"/><circle class="cls-6" cx="692.53" cy="94.58" r="2.52"/><path class="cls-5" d="M697.57,94.58a2.52,2.52,0,1,1-2.52-2.52,2.52,2.52,0,0,1,2.52,2.52"/><circle class="cls-6" cx="695.05" cy="94.58" r="2.52"/><path class="cls-5" d="M700,94.58a2.52,2.52,0,1,1-2.52-2.52A2.52,2.52,0,0,1,700,94.58"/><circle class="cls-6" cx="697.45" cy="94.58" r="2.52"/><path class="cls-5" d="M697.57,93.86a2.52,2.52,0,1,1-2.52-2.52,2.52,2.52,0,0,1,2.52,2.52"/><circle class="cls-6" cx="695.05" cy="93.86" r="2.52"/><path class="cls-5" d="M695.05,93.86a2.52,2.52,0,1,1-2.52-2.52,2.52,2.52,0,0,1,2.52,2.52"/><circle class="cls-6" cx="692.53" cy="93.86" r="2.52"/><path class="cls-5" d="M692.53,94.58A2.52,2.52,0,1,1,690,92.06a2.52,2.52,0,0,1,2.52,2.52"/><circle class="cls-6" cx="690.01" cy="94.58" r="2.52"/><path class="cls-5" d="M690,94.58a2.52,2.52,0,1,1-2.52-2.52A2.52,2.52,0,0,1,690,94.58"/><circle class="cls-6" cx="687.5" cy="94.58" r="2.52"/><path class="cls-5" d="M687.62,94.58a2.52,2.52,0,1,1-2.52-2.52,2.52,2.52,0,0,1,2.52,2.52"/><circle class="cls-6" cx="685.09" cy="94.58" r="2.52"/><path class="cls-5" d="M685.09,94.58a2.52,2.52,0,1,1-2.52-2.52,2.52,2.52,0,0,1,2.52,2.52"/><circle class="cls-6" cx="682.57" cy="94.58" r="2.52"/><path class="cls-5" d="M682.58,94.58a2.52,2.52,0,1,1-2.52-2.52,2.52,2.52,0,0,1,2.52,2.52"/><circle class="cls-6" cx="680.06" cy="94.58" r="2.52"/><path class="cls-5" d="M680.06,94.58a2.52,2.52,0,1,1-2.52-2.52,2.52,2.52,0,0,1,2.52,2.52"/><circle class="cls-6" cx="677.54" cy="94.58" r="2.52"/><path class="cls-5" d="M677.66,94.58a2.52,2.52,0,1,1-2.52-2.52,2.52,2.52,0,0,1,2.52,2.52"/><circle class="cls-6" cx="675.14" cy="94.58" r="2.52"/><path class="cls-5" d="M675.14,95.3a2.52,2.52,0,1,1-2.52-2.52,2.52,2.52,0,0,1,2.52,2.52"/><circle class="cls-6" cx="672.62" cy="95.3" r="2.52"/><path class="cls-5" d="M672.74,94.58a2.52,2.52,0,1,1-2.52-2.52,2.52,2.52,0,0,1,2.52,2.52"/><circle class="cls-6" cx="670.22" cy="94.58" r="2.52"/><path class="cls-5" d="M670.1,95.3a2.52,2.52,0,1,1-2.52-2.52,2.52,2.52,0,0,1,2.52,2.52"/><circle class="cls-6" cx="667.58" cy="95.3" r="2.52"/><path class="cls-5" d="M667.7,96a2.52,2.52,0,1,1-2.52-2.52A2.52,2.52,0,0,1,667.7,96"/><circle class="cls-6" cx="665.18" cy="96.02" r="2.52"/><path class="cls-5" d="M665.17,95.3a2.52,2.52,0,1,1-2.52-2.52,2.52,2.52,0,0,1,2.52,2.52"/><circle class="cls-6" cx="662.65" cy="95.3" r="2.52"/><path class="cls-5" d="M662.77,96a2.52,2.52,0,1,1-2.52-2.52A2.52,2.52,0,0,1,662.77,96"/><circle class="cls-6" cx="660.25" cy="96.02" r="2.52"/><path class="cls-5" d="M660.26,95.3a2.52,2.52,0,1,1-2.52-2.52,2.52,2.52,0,0,1,2.52,2.52"/><circle class="cls-6" cx="657.73" cy="95.3" r="2.52"/><path class="cls-5" d="M657.73,96a2.52,2.52,0,1,1-2.52-2.52A2.52,2.52,0,0,1,657.73,96"/><circle class="cls-6" cx="655.21" cy="96.02" r="2.52"/><path class="cls-5" d="M655.21,96.86a2.52,2.52,0,1,1-2.52-2.52,2.52,2.52,0,0,1,2.52,2.52"/><circle class="cls-6" cx="652.69" cy="96.86" r="2.52"/><path class="cls-5" d="M652.81,96a2.52,2.52,0,1,1-2.52-2.52A2.52,2.52,0,0,1,652.81,96"/><circle class="cls-6" cx="650.29" cy="96.02" r="2.52"/><path class="cls-5" d="M650.29,96a2.52,2.52,0,1,1-2.52-2.52A2.52,2.52,0,0,1,650.29,96"/><circle class="cls-6" cx="647.77" cy="96.02" r="2.52"/><path class="cls-5" d="M647.77,97.58a2.52,2.52,0,1,1-2.52-2.52,2.52,2.52,0,0,1,2.52,2.52"/><circle class="cls-6" cx="645.25" cy="97.58" r="2.52"/><path class="cls-5" d="M645.25,96a2.52,2.52,0,1,1-2.52-2.52A2.52,2.52,0,0,1,645.25,96"/><circle class="cls-6" cx="642.73" cy="96.02" r="2.52"/><path class="cls-5" d="M642.85,96.86a2.52,2.52,0,1,1-2.52-2.52,2.52,2.52,0,0,1,2.52,2.52"/><circle class="cls-6" cx="640.33" cy="96.86" r="2.52"/><path class="cls-5" d="M640.33,96.86a2.52,2.52,0,1,1-2.52-2.52,2.52,2.52,0,0,1,2.52,2.52"/><circle class="cls-6" cx="637.81" cy="96.86" r="2.52"/><path class="cls-5" d="M637.93,96.86a2.52,2.52,0,1,1-2.52-2.52,2.52,2.52,0,0,1,2.52,2.52"/><circle class="cls-6" cx="635.41" cy="96.86" r="2.52"/><path class="cls-5" d="M635.29,97.58a2.52,2.52,0,1,1-2.52-2.52,2.52,2.52,0,0,1,2.52,2.52"/><circle class="cls-6" cx="632.77" cy="97.58" r="2.52"/><path class="cls-5" d="M632.89,96.86a2.52,2.52,0,1,1-2.52-2.52,2.52,2.52,0,0,1,2.52,2.52"/><circle class="cls-6" cx="630.37" cy="96.86" r="2.52"/><path class="cls-5" d="M630.37,97.58a2.52,2.52,0,1,1-2.52-2.52,2.52,2.52,0,0,1,2.52,2.52"/><circle class="cls-6" cx="627.85" cy="97.58" r="2.52"/><path class="cls-5" d="M628,99.14a2.52,2.52,0,1,1-2.52-2.52A2.52,2.52,0,0,1,628,99.14"/><circle class="cls-6" cx="625.45" cy="99.14" r="2.52"/><path class="cls-5" d="M625.45,97.58a2.52,2.52,0,1,1-2.52-2.52,2.52,2.52,0,0,1,2.52,2.52"/><circle class="cls-6" cx="622.93" cy="97.58" r="2.52"/><path class="cls-5" d="M622.93,98.3a2.52,2.52,0,1,1-2.52-2.52,2.52,2.52,0,0,1,2.52,2.52"/><circle class="cls-6" cx="620.41" cy="98.3" r="2.52"/><path class="cls-5" d="M620.41,97.58a2.52,2.52,0,1,1-2.52-2.52,2.52,2.52,0,0,1,2.52,2.52"/><circle class="cls-6" cx="617.89" cy="97.58" r="2.52"/><path class="cls-5" d="M618,97.58a2.52,2.52,0,1,1-2.52-2.52A2.52,2.52,0,0,1,618,97.58"/><circle class="cls-6" cx="615.49" cy="97.58" r="2.52"/><path class="cls-5" d="M615.49,99.14A2.52,2.52,0,1,1,613,96.62a2.52,2.52,0,0,1,2.52,2.52"/><circle class="cls-6" cx="612.97" cy="99.14" r="2.52"/><path class="cls-5" d="M613,97.58a2.52,2.52,0,1,1-2.52-2.52A2.52,2.52,0,0,1,613,97.58"/><circle class="cls-6" cx="610.45" cy="97.58" r="2.52"/><path class="cls-5" d="M610.45,98.3a2.52,2.52,0,1,1-2.52-2.52,2.52,2.52,0,0,1,2.52,2.52"/><circle class="cls-6" cx="607.93" cy="98.3" r="2.52"/><path class="cls-5" d="M608.05,100.58a2.52,2.52,0,1,1-2.52-2.52,2.52,2.52,0,0,1,2.52,2.52"/><circle class="cls-6" cx="605.53" cy="100.58" r="2.52"/><path class="cls-5" d="M605.53,98.3A2.52,2.52,0,1,1,603,95.78a2.52,2.52,0,0,1,2.52,2.52"/><circle class="cls-6" cx="603.01" cy="98.3" r="2.52"/><path class="cls-5" d="M603.13,99.14a2.52,2.52,0,1,1-2.52-2.52,2.52,2.52,0,0,1,2.52,2.52"/><circle class="cls-6" cx="600.61" cy="99.14" r="2.52"/><path class="cls-5" d="M600.49,99.14A2.52,2.52,0,1,1,598,96.62a2.52,2.52,0,0,1,2.52,2.52"/><circle class="cls-6" cx="597.97" cy="99.14" r="2.52"/><path class="cls-5" d="M598.09,99.14a2.52,2.52,0,1,1-2.52-2.52,2.52,2.52,0,0,1,2.52,2.52"/><circle class="cls-6" cx="595.57" cy="99.14" r="2.52"/><path class="cls-5" d="M595.57,100.58a2.52,2.52,0,1,1-2.52-2.52,2.52,2.52,0,0,1,2.52,2.52"/><circle class="cls-6" cx="593.05" cy="100.58" r="2.52"/><path class="cls-5" d="M593.17,98.3a2.52,2.52,0,1,1-2.52-2.52,2.52,2.52,0,0,1,2.52,2.52"/><circle class="cls-6" cx="590.65" cy="98.3" r="2.52"/><path class="cls-5" d="M590.65,99.86a2.52,2.52,0,1,1-2.52-2.52,2.52,2.52,0,0,1,2.52,2.52"/><circle class="cls-6" cx="588.13" cy="99.86" r="2.52"/><path class="cls-5" d="M588.13,102.14a2.52,2.52,0,1,1-2.52-2.52,2.52,2.52,0,0,1,2.52,2.52"/><circle class="cls-6" cx="585.61" cy="102.14" r="2.52"/><path class="cls-5" d="M585.61,99.14a2.52,2.52,0,1,1-2.52-2.52,2.52,2.52,0,0,1,2.52,2.52"/><circle class="cls-6" cx="583.09" cy="99.14" r="2.52"/><path class="cls-5" d="M583.21,100.58a2.52,2.52,0,1,1-2.52-2.52,2.52,2.52,0,0,1,2.52,2.52"/><circle class="cls-6" cx="580.69" cy="100.58" r="2.52"/><path class="cls-5" d="M580.69,101.42a2.52,2.52,0,1,1-2.52-2.52,2.52,2.52,0,0,1,2.52,2.52"/><circle class="cls-6" cx="578.17" cy="101.42" r="2.52"/><path class="cls-5" d="M578.17,99.86a2.52,2.52,0,1,1-2.52-2.52,2.52,2.52,0,0,1,2.52,2.52"/><circle class="cls-6" cx="575.65" cy="99.86" r="2.52"/><path class="cls-5" d="M575.65,102.14a2.52,2.52,0,1,1-2.52-2.52,2.52,2.52,0,0,1,2.52,2.52"/><circle class="cls-6" cx="573.13" cy="102.14" r="2.52"/><path class="cls-5" d="M573.25,99.86a2.52,2.52,0,1,1-2.52-2.52,2.52,2.52,0,0,1,2.52,2.52"/><circle class="cls-6" cx="570.73" cy="99.86" r="2.52"/><path class="cls-5" d="M570.73,100.58a2.52,2.52,0,1,1-2.52-2.52,2.52,2.52,0,0,1,2.52,2.52"/><circle class="cls-6" cx="568.21" cy="100.58" r="2.52"/><path class="cls-5" d="M568.33,103.58a2.52,2.52,0,1,1-2.52-2.52,2.52,2.52,0,0,1,2.52,2.52"/><circle class="cls-6" cx="565.81" cy="103.58" r="2.52"/><path class="cls-5" d="M565.81,100.58a2.52,2.52,0,1,1-2.52-2.52,2.52,2.52,0,0,1,2.52,2.52"/><circle class="cls-6" cx="563.29" cy="100.58" r="2.52"/><path class="cls-5" d="M563.29,102.14a2.52,2.52,0,1,1-2.52-2.52,2.52,2.52,0,0,1,2.52,2.52"/><circle class="cls-6" cx="560.77" cy="102.14" r="2.52"/><path class="cls-5" d="M560.77,102.86a2.52,2.52,0,1,1-2.52-2.52,2.52,2.52,0,0,1,2.52,2.52"/><circle class="cls-6" cx="558.25" cy="102.86" r="2.52"/><path class="cls-5" d="M558.37,101.42a2.52,2.52,0,1,1-2.52-2.52,2.52,2.52,0,0,1,2.52,2.52"/><circle class="cls-6" cx="555.85" cy="101.42" r="2.52"/><path class="cls-5" d="M555.85,103.58a2.52,2.52,0,1,1-2.52-2.52,2.52,2.52,0,0,1,2.52,2.52"/><circle class="cls-6" cx="553.33" cy="103.58" r="2.52"/><path class="cls-5" d="M553.33,100.58a2.52,2.52,0,1,1-2.52-2.52,2.52,2.52,0,0,1,2.52,2.52"/><circle class="cls-6" cx="550.81" cy="100.58" r="2.52"/><path class="cls-5" d="M550.81,102.14a2.52,2.52,0,1,1-2.52-2.52,2.52,2.52,0,0,1,2.52,2.52"/><circle class="cls-6" cx="548.29" cy="102.14" r="2.52"/><path class="cls-5" d="M548.41,105.14a2.52,2.52,0,1,1-2.52-2.52,2.52,2.52,0,0,1,2.52,2.52"/><circle class="cls-6" cx="545.89" cy="105.14" r="2.52"/><path class="cls-5" d="M545.89,101.42a2.52,2.52,0,1,1-2.52-2.52,2.52,2.52,0,0,1,2.52,2.52"/><circle class="cls-6" cx="543.37" cy="101.42" r="2.52"/><path class="cls-5" d="M543.37,103.58a2.52,2.52,0,1,1-2.52-2.52,2.52,2.52,0,0,1,2.52,2.52"/><circle class="cls-6" cx="540.85" cy="103.58" r="2.52"/><path class="cls-5" d="M540.85,105.14a2.52,2.52,0,1,1-2.52-2.52,2.52,2.52,0,0,1,2.52,2.52"/><circle class="cls-6" cx="538.33" cy="105.14" r="2.52"/><path class="cls-5" d="M538.45,102.14a2.52,2.52,0,1,1-2.52-2.52,2.52,2.52,0,0,1,2.52,2.52"/><circle class="cls-6" cx="535.93" cy="102.14" r="2.52"/><path class="cls-5" d="M535.93,105.14a2.52,2.52,0,1,1-2.52-2.52,2.52,2.52,0,0,1,2.52,2.52"/><circle class="cls-6" cx="533.41" cy="105.14" r="2.52"/><path class="cls-5" d="M533.53,102.86a2.52,2.52,0,1,1-2.52-2.52,2.52,2.52,0,0,1,2.52,2.52"/><circle class="cls-6" cx="531.01" cy="102.86" r="2.52"/><path class="cls-5" d="M531,103.58a2.52,2.52,0,1,1-2.52-2.52,2.52,2.52,0,0,1,2.52,2.52"/><circle class="cls-6" cx="528.49" cy="103.58" r="2.52"/><path class="cls-5" d="M528.49,106.7a2.52,2.52,0,1,1-2.52-2.52,2.52,2.52,0,0,1,2.52,2.52"/><circle class="cls-6" cx="525.97" cy="106.7" r="2.52"/><path class="cls-5" d="M526,102.14a2.52,2.52,0,1,1-2.52-2.52,2.52,2.52,0,0,1,2.52,2.52"/><circle class="cls-6" cx="523.45" cy="102.14" r="2.52"/><path class="cls-5" d="M523.57,105.14a2.52,2.52,0,1,1-2.52-2.52,2.52,2.52,0,0,1,2.52,2.52"/><circle class="cls-6" cx="521.05" cy="105.14" r="2.52"/><path class="cls-5" d="M521.05,106.7a2.52,2.52,0,1,1-2.52-2.52,2.52,2.52,0,0,1,2.52,2.52"/><circle class="cls-6" cx="518.53" cy="106.7" r="2.52"/><path class="cls-5" d="M518.53,103.58a2.52,2.52,0,1,1-2.52-2.52,2.52,2.52,0,0,1,2.52,2.52"/><circle class="cls-6" cx="516.01" cy="103.58" r="2.52"/><path class="cls-5" d="M516,106.7a2.52,2.52,0,1,1-2.52-2.52A2.52,2.52,0,0,1,516,106.7"/><circle class="cls-6" cx="513.49" cy="106.7" r="2.52"/><path class="cls-5" d="M513.61,105.14a2.52,2.52,0,1,1-2.52-2.52,2.52,2.52,0,0,1,2.52,2.52"/><circle class="cls-6" cx="511.09" cy="105.14" r="2.52"/><path class="cls-5" d="M511.09,105.14a2.52,2.52,0,1,1-2.52-2.52,2.52,2.52,0,0,1,2.52,2.52"/><circle class="cls-6" cx="508.57" cy="105.14" r="2.52"/><path class="cls-5" d="M508.57,108.14a2.52,2.52,0,1,1-2.52-2.52,2.52,2.52,0,0,1,2.52,2.52"/><circle class="cls-6" cx="506.05" cy="108.14" r="2.52"/><path class="cls-5" d="M506.17,103.58a2.52,2.52,0,1,1-2.52-2.52,2.52,2.52,0,0,1,2.52,2.52"/><circle class="cls-6" cx="503.65" cy="103.58" r="2.52"/><path class="cls-5" d="M503.65,105.86a2.52,2.52,0,1,1-2.52-2.52,2.52,2.52,0,0,1,2.52,2.52"/><circle class="cls-6" cx="501.13" cy="105.86" r="2.52"/><path class="cls-5" d="M501.13,108.14a2.52,2.52,0,1,1-2.52-2.52,2.52,2.52,0,0,1,2.52,2.52"/><circle class="cls-6" cx="498.61" cy="108.14" r="2.52"/><path class="cls-5" d="M498.73,105.14a2.52,2.52,0,1,1-2.52-2.52,2.52,2.52,0,0,1,2.52,2.52"/><circle class="cls-6" cx="496.21" cy="105.14" r="2.52"/><path class="cls-5" d="M496.21,108.14a2.52,2.52,0,1,1-2.52-2.52,2.52,2.52,0,0,1,2.52,2.52"/><circle class="cls-6" cx="493.69" cy="108.14" r="2.52"/><path class="cls-5" d="M493.69,107.42a2.52,2.52,0,1,1-2.52-2.52,2.52,2.52,0,0,1,2.52,2.52"/><circle class="cls-6" cx="491.17" cy="107.42" r="2.52"/><path class="cls-5" d="M491.17,105.86a2.52,2.52,0,1,1-2.52-2.52,2.52,2.52,0,0,1,2.52,2.52"/><circle class="cls-6" cx="488.65" cy="105.86" r="2.52"/><path class="cls-5" d="M488.77,110.42a2.52,2.52,0,1,1-2.52-2.52,2.52,2.52,0,0,1,2.52,2.52"/><circle class="cls-6" cx="486.25" cy="110.42" r="2.52"/><path class="cls-5" d="M486.25,105.14a2.52,2.52,0,1,1-2.52-2.52,2.52,2.52,0,0,1,2.52,2.52"/><circle class="cls-6" cx="483.73" cy="105.14" r="2.52"/><path class="cls-5" d="M483.73,107.42a2.52,2.52,0,1,1-2.52-2.52,2.52,2.52,0,0,1,2.52,2.52"/><circle class="cls-6" cx="481.21" cy="107.42" r="2.52"/><path class="cls-5" d="M481.21,110.42a2.52,2.52,0,1,1-2.52-2.52,2.52,2.52,0,0,1,2.52,2.52"/><circle class="cls-6" cx="478.69" cy="110.42" r="2.52"/><path class="cls-5" d="M478.81,105.86a2.52,2.52,0,1,1-2.52-2.52,2.52,2.52,0,0,1,2.52,2.52"/><circle class="cls-6" cx="476.29" cy="105.86" r="2.52"/><path class="cls-5" d="M476.29,109.7a2.52,2.52,0,1,1-2.52-2.52,2.52,2.52,0,0,1,2.52,2.52"/><circle class="cls-6" cx="473.77" cy="109.7" r="2.52"/><path class="cls-5" d="M473.77,108.86a2.52,2.52,0,1,1-2.52-2.52,2.52,2.52,0,0,1,2.52,2.52"/><circle class="cls-6" cx="471.25" cy="108.86" r="2.52"/><path class="cls-5" d="M471.37,107.42a2.52,2.52,0,1,1-2.52-2.52,2.52,2.52,0,0,1,2.52,2.52"/><circle class="cls-6" cx="468.85" cy="107.42" r="2.52"/><path class="cls-5" d="M468.85,112a2.52,2.52,0,1,1-2.52-2.52,2.52,2.52,0,0,1,2.52,2.52"/><circle class="cls-6" cx="466.33" cy="111.98" r="2.52"/><path class="cls-5" d="M466.33,107.42a2.52,2.52,0,1,1-2.52-2.52,2.52,2.52,0,0,1,2.52,2.52"/><circle class="cls-6" cx="463.81" cy="107.42" r="2.52"/><path class="cls-5" d="M463.93,108.86a2.52,2.52,0,1,1-2.52-2.52,2.52,2.52,0,0,1,2.52,2.52"/><circle class="cls-6" cx="461.41" cy="108.86" r="2.52"/><path class="cls-5" d="M461.41,112.7a2.52,2.52,0,1,1-2.52-2.52,2.52,2.52,0,0,1,2.52,2.52"/><circle class="cls-6" cx="458.89" cy="112.7" r="2.52"/><path class="cls-5" d="M458.89,107.42a2.52,2.52,0,1,1-2.52-2.52,2.52,2.52,0,0,1,2.52,2.52"/><circle class="cls-6" cx="456.37" cy="107.42" r="2.52"/><path class="cls-5" d="M456.37,111.14a2.52,2.52,0,1,1-2.52-2.52,2.52,2.52,0,0,1,2.52,2.52"/><circle class="cls-6" cx="453.85" cy="111.14" r="2.52"/><path class="cls-5" d="M454,111.14a2.52,2.52,0,1,1-2.52-2.52,2.52,2.52,0,0,1,2.52,2.52"/><circle class="cls-6" cx="451.45" cy="111.14" r="2.52"/><path class="cls-5" d="M451.45,108.86a2.52,2.52,0,1,1-2.52-2.52,2.52,2.52,0,0,1,2.52,2.52"/><circle class="cls-6" cx="448.93" cy="108.86" r="2.52"/><path class="cls-5" d="M448.93,114.26a2.52,2.52,0,1,1-2.52-2.52,2.52,2.52,0,0,1,2.52,2.52"/><circle class="cls-6" cx="446.41" cy="114.26" r="2.52"/><path class="cls-5" d="M446.53,109.7a2.52,2.52,0,1,1-2.52-2.52,2.52,2.52,0,0,1,2.52,2.52"/><circle class="cls-6" cx="444.01" cy="109.7" r="2.52"/><path class="cls-5" d="M444,110.42a2.52,2.52,0,1,1-2.52-2.52,2.52,2.52,0,0,1,2.52,2.52"/><circle class="cls-6" cx="441.49" cy="110.42" r="2.52"/><path class="cls-5" d="M441.49,115a2.52,2.52,0,1,1-2.52-2.52,2.52,2.52,0,0,1,2.52,2.52"/><circle class="cls-6" cx="438.97" cy="114.98" r="2.52"/><path class="cls-5" d="M439,108.14a2.52,2.52,0,1,1-2.52-2.52,2.52,2.52,0,0,1,2.52,2.52"/><circle class="cls-6" cx="436.45" cy="108.14" r="2.52"/><path class="cls-5" d="M436.57,113.42a2.52,2.52,0,1,1-2.52-2.52,2.52,2.52,0,0,1,2.52,2.52"/><circle class="cls-6" cx="434.05" cy="113.42" r="2.52"/><path class="cls-5" d="M434.05,113.42a2.52,2.52,0,1,1-2.52-2.52,2.52,2.52,0,0,1,2.52,2.52"/><circle class="cls-6" cx="431.53" cy="113.42" r="2.52"/><path class="cls-5" d="M431.53,110.42A2.52,2.52,0,1,1,429,107.9a2.52,2.52,0,0,1,2.52,2.52"/><circle class="cls-6" cx="429.01" cy="110.42" r="2.52"/><path class="cls-5" d="M429,116.42a2.52,2.52,0,1,1-2.52-2.52,2.52,2.52,0,0,1,2.52,2.52"/><circle class="cls-6" cx="426.49" cy="116.42" r="2.52"/><path class="cls-5" d="M426.61,112a2.52,2.52,0,1,1-2.52-2.52,2.52,2.52,0,0,1,2.52,2.52"/><circle class="cls-6" cx="424.09" cy="111.98" r="2.52"/><path class="cls-5" d="M424.09,112.7a2.52,2.52,0,1,1-2.52-2.52,2.52,2.52,0,0,1,2.52,2.52"/><circle class="cls-6" cx="421.57" cy="112.7" r="2.52"/><path class="cls-5" d="M421.57,117.26a2.52,2.52,0,1,1-2.52-2.52,2.52,2.52,0,0,1,2.52,2.52"/><circle class="cls-6" cx="419.05" cy="117.26" r="2.52"/><path class="cls-5" d="M419.17,110.42a2.52,2.52,0,1,1-2.52-2.52,2.52,2.52,0,0,1,2.52,2.52"/><circle class="cls-6" cx="416.65" cy="110.42" r="2.52"/><path class="cls-5" d="M416.65,115a2.52,2.52,0,1,1-2.52-2.52,2.52,2.52,0,0,1,2.52,2.52"/><circle class="cls-6" cx="414.13" cy="114.98" r="2.52"/><path class="cls-5" d="M414.13,116.42a2.52,2.52,0,1,1-2.52-2.52,2.52,2.52,0,0,1,2.52,2.52"/><circle class="cls-6" cx="411.61" cy="116.42" r="2.52"/><path class="cls-5" d="M411.73,112a2.52,2.52,0,1,1-2.52-2.52,2.52,2.52,0,0,1,2.52,2.52"/><circle class="cls-6" cx="409.21" cy="111.98" r="2.52"/><path class="cls-5" d="M409.21,118.7a2.52,2.52,0,1,1-2.52-2.52,2.52,2.52,0,0,1,2.52,2.52"/><circle class="cls-6" cx="406.69" cy="118.7" r="2.52"/><path class="cls-5" d="M406.69,115a2.52,2.52,0,1,1-2.52-2.52,2.52,2.52,0,0,1,2.52,2.52"/><circle class="cls-6" cx="404.17" cy="114.98" r="2.52"/><path class="cls-5" d="M404.17,114.26a2.52,2.52,0,1,1-2.52-2.52,2.52,2.52,0,0,1,2.52,2.52"/><circle class="cls-6" cx="401.65" cy="114.26" r="2.52"/><path class="cls-5" d="M401.77,120.26a2.52,2.52,0,1,1-2.52-2.52,2.52,2.52,0,0,1,2.52,2.52"/><circle class="cls-6" cx="399.25" cy="120.26" r="2.52"/><path class="cls-5" d="M399.25,112.7a2.52,2.52,0,1,1-2.52-2.52,2.52,2.52,0,0,1,2.52,2.52"/><circle class="cls-6" cx="396.73" cy="112.7" r="2.52"/><path class="cls-5" d="M396.73,117.26a2.52,2.52,0,1,1-2.52-2.52,2.52,2.52,0,0,1,2.52,2.52"/><circle class="cls-6" cx="394.21" cy="117.26" r="2.52"/><path class="cls-5" d="M394.21,118.7a2.52,2.52,0,1,1-2.52-2.52,2.52,2.52,0,0,1,2.52,2.52"/><circle class="cls-6" cx="391.69" cy="118.7" r="2.52"/><path class="cls-5" d="M391.81,114.26a2.52,2.52,0,1,1-2.52-2.52,2.52,2.52,0,0,1,2.52,2.52"/><circle class="cls-6" cx="389.29" cy="114.26" r="2.52"/><path class="cls-5" d="M389.29,121a2.52,2.52,0,1,1-2.52-2.52,2.52,2.52,0,0,1,2.52,2.52"/><circle class="cls-6" cx="386.77" cy="120.98" r="2.52"/><path class="cls-5" d="M386.89,118a2.52,2.52,0,1,1-2.52-2.52,2.52,2.52,0,0,1,2.52,2.52"/><circle class="cls-6" cx="384.37" cy="117.98" r="2.52"/><path class="cls-5" d="M384.37,116.42a2.52,2.52,0,1,1-2.52-2.52,2.52,2.52,0,0,1,2.52,2.52"/><circle class="cls-6" cx="381.85" cy="116.42" r="2.52"/><path class="cls-5" d="M381.85,123.26a2.52,2.52,0,1,1-2.52-2.52,2.52,2.52,0,0,1,2.52,2.52"/><circle class="cls-6" cx="379.33" cy="123.26" r="2.52"/><path class="cls-5" d="M379.33,116.42a2.52,2.52,0,1,1-2.52-2.52,2.52,2.52,0,0,1,2.52,2.52"/><circle class="cls-6" cx="376.81" cy="116.42" r="2.52"/><path class="cls-5" d="M376.93,119.54a2.52,2.52,0,1,1-2.52-2.52,2.52,2.52,0,0,1,2.52,2.52"/><circle class="cls-6" cx="374.41" cy="119.54" r="2.52"/><path class="cls-5" d="M374.41,121.7a2.52,2.52,0,1,1-2.52-2.52,2.52,2.52,0,0,1,2.52,2.52"/><circle class="cls-6" cx="371.89" cy="121.7" r="2.52"/><path class="cls-5" d="M371.89,115.7a2.52,2.52,0,1,1-2.52-2.52,2.52,2.52,0,0,1,2.52,2.52"/><circle class="cls-6" cx="369.37" cy="115.7" r="2.52"/><path class="cls-5" d="M369.37,124a2.52,2.52,0,1,1-2.52-2.52,2.52,2.52,0,0,1,2.52,2.52"/><circle class="cls-6" cx="366.85" cy="123.98" r="2.52"/><path class="cls-5" d="M367,121a2.52,2.52,0,1,1-2.52-2.52A2.52,2.52,0,0,1,367,121"/><circle class="cls-6" cx="364.45" cy="120.98" r="2.52"/><path class="cls-5" d="M364.45,118.7a2.52,2.52,0,1,1-2.52-2.52,2.52,2.52,0,0,1,2.52,2.52"/><circle class="cls-6" cx="361.93" cy="118.7" r="2.52"/><path class="cls-5" d="M361.93,126.26a2.52,2.52,0,1,1-2.52-2.52,2.52,2.52,0,0,1,2.52,2.52"/><circle class="cls-6" cx="359.41" cy="126.26" r="2.52"/><path class="cls-5" d="M359.41,119.54a2.52,2.52,0,1,1-2.52-2.52,2.52,2.52,0,0,1,2.52,2.52"/><circle class="cls-6" cx="356.89" cy="119.54" r="2.52"/><path class="cls-5" d="M357,122.54a2.52,2.52,0,1,1-2.52-2.52,2.52,2.52,0,0,1,2.52,2.52"/><circle class="cls-6" cx="354.49" cy="122.54" r="2.52"/><path class="cls-5" d="M354.49,124.82A2.52,2.52,0,1,1,352,122.3a2.52,2.52,0,0,1,2.52,2.52"/><circle class="cls-6" cx="351.97" cy="124.82" r="2.52"/><path class="cls-5" d="M352.09,118a2.52,2.52,0,1,1-2.52-2.52,2.52,2.52,0,0,1,2.52,2.52"/><circle class="cls-6" cx="349.57" cy="117.98" r="2.52"/><path class="cls-5" d="M349.57,126.26a2.52,2.52,0,1,1-2.52-2.52,2.52,2.52,0,0,1,2.52,2.52"/><circle class="cls-6" cx="347.05" cy="126.26" r="2.52"/><path class="cls-5" d="M347.05,124a2.52,2.52,0,1,1-2.52-2.52,2.52,2.52,0,0,1,2.52,2.52"/><circle class="cls-6" cx="344.53" cy="123.98" r="2.52"/><path class="cls-5" d="M344.53,121a2.52,2.52,0,1,1-2.52-2.52,2.52,2.52,0,0,1,2.52,2.52"/><circle class="cls-6" cx="342.01" cy="120.98" r="2.52"/><path class="cls-5" d="M342.13,129.26a2.52,2.52,0,1,1-2.52-2.52,2.52,2.52,0,0,1,2.52,2.52"/><circle class="cls-6" cx="339.61" cy="129.26" r="2.52"/><path class="cls-5" d="M339.61,123.26a2.52,2.52,0,1,1-2.52-2.52,2.52,2.52,0,0,1,2.52,2.52"/><circle class="cls-6" cx="337.09" cy="123.26" r="2.52"/><path class="cls-5" d="M337.09,124.82a2.52,2.52,0,1,1-2.52-2.52,2.52,2.52,0,0,1,2.52,2.52"/><circle class="cls-6" cx="334.57" cy="124.82" r="2.52"/><path class="cls-5" d="M334.57,128.54a2.52,2.52,0,1,1-2.52-2.52,2.52,2.52,0,0,1,2.52,2.52"/><circle class="cls-6" cx="332.05" cy="128.54" r="2.52"/><path class="cls-5" d="M332.17,121.7a2.52,2.52,0,1,1-2.52-2.52,2.52,2.52,0,0,1,2.52,2.52"/><circle class="cls-6" cx="329.65" cy="121.7" r="2.52"/><path class="cls-5" d="M329.65,129.26a2.52,2.52,0,1,1-2.52-2.52,2.52,2.52,0,0,1,2.52,2.52"/><circle class="cls-6" cx="327.13" cy="129.26" r="2.52"/><path class="cls-5" d="M327.25,127.82a2.52,2.52,0,1,1-2.52-2.52,2.52,2.52,0,0,1,2.52,2.52"/><circle class="cls-6" cx="324.73" cy="127.82" r="2.52"/><path class="cls-5" d="M324.61,123.26a2.52,2.52,0,1,1-2.52-2.52,2.52,2.52,0,0,1,2.52,2.52"/><circle class="cls-6" cx="322.09" cy="123.26" r="2.52"/><path class="cls-5" d="M322.21,133.1a2.52,2.52,0,1,1-2.52-2.52,2.52,2.52,0,0,1,2.52,2.52"/><circle class="cls-6" cx="319.69" cy="133.1" r="2.52"/><path class="cls-5" d="M319.69,127.1a2.52,2.52,0,1,1-2.52-2.52,2.52,2.52,0,0,1,2.52,2.52"/><circle class="cls-6" cx="317.17" cy="127.1" r="2.52"/><path class="cls-5" d="M317.29,127.82a2.52,2.52,0,1,1-2.52-2.52,2.52,2.52,0,0,1,2.52,2.52"/><circle class="cls-6" cx="314.77" cy="127.82" r="2.52"/><path class="cls-5" d="M314.77,132.38a2.52,2.52,0,1,1-2.52-2.52,2.52,2.52,0,0,1,2.52,2.52"/><circle class="cls-6" cx="312.25" cy="132.38" r="2.52"/><path class="cls-5" d="M312.25,125.54a2.52,2.52,0,1,1-2.52-2.52,2.52,2.52,0,0,1,2.52,2.52"/><circle class="cls-6" cx="309.73" cy="125.54" r="2.52"/><path class="cls-5" d="M309.73,133.1a2.52,2.52,0,1,1-2.52-2.52,2.52,2.52,0,0,1,2.52,2.52"/><circle class="cls-6" cx="307.21" cy="133.1" r="2.52"/><path class="cls-5" d="M307.33,131.54a2.52,2.52,0,1,1-2.52-2.52,2.52,2.52,0,0,1,2.52,2.52"/><circle class="cls-6" cx="304.81" cy="131.54" r="2.52"/><path class="cls-5" d="M304.81,126.26a2.52,2.52,0,1,1-2.52-2.52,2.52,2.52,0,0,1,2.52,2.52"/><circle class="cls-6" cx="302.29" cy="126.26" r="2.52"/><path class="cls-5" d="M302.29,137.66a2.52,2.52,0,1,1-2.52-2.52,2.52,2.52,0,0,1,2.52,2.52"/><circle class="cls-6" cx="299.77" cy="137.66" r="2.52"/><path class="cls-5" d="M299.77,130.82a2.52,2.52,0,1,1-2.52-2.52,2.52,2.52,0,0,1,2.52,2.52"/><circle class="cls-6" cx="297.25" cy="130.82" r="2.52"/><path class="cls-5" d="M297.37,130.82a2.52,2.52,0,1,1-2.52-2.52,2.52,2.52,0,0,1,2.52,2.52"/><circle class="cls-6" cx="294.85" cy="130.82" r="2.52"/><path class="cls-5" d="M294.85,136.82a2.52,2.52,0,1,1-2.52-2.52,2.52,2.52,0,0,1,2.52,2.52"/><circle class="cls-6" cx="292.33" cy="136.82" r="2.52"/><path class="cls-5" d="M292.45,130.1a2.52,2.52,0,1,1-2.52-2.52,2.52,2.52,0,0,1,2.52,2.52"/><circle class="cls-6" cx="289.93" cy="130.1" r="2.52"/><path class="cls-5" d="M289.81,136.82a2.52,2.52,0,1,1-2.52-2.52,2.52,2.52,0,0,1,2.52,2.52"/><circle class="cls-6" cx="287.29" cy="136.82" r="2.52"/><path class="cls-5" d="M287.41,136.1a2.52,2.52,0,1,1-2.52-2.52,2.52,2.52,0,0,1,2.52,2.52"/><circle class="cls-6" cx="284.89" cy="136.1" r="2.52"/><path class="cls-5" d="M284.89,130.1a2.52,2.52,0,1,1-2.52-2.52,2.52,2.52,0,0,1,2.52,2.52"/><circle class="cls-6" cx="282.37" cy="130.1" r="2.52"/><path class="cls-5" d="M282.49,141.38a2.52,2.52,0,1,1-2.52-2.52,2.52,2.52,0,0,1,2.52,2.52"/><circle class="cls-6" cx="279.97" cy="141.38" r="2.52"/><path class="cls-5" d="M280,136.1a2.52,2.52,0,1,1-2.52-2.52A2.52,2.52,0,0,1,280,136.1"/><circle class="cls-6" cx="277.45" cy="136.1" r="2.52"/><path class="cls-5" d="M277.45,133.82a2.52,2.52,0,1,1-2.52-2.52,2.52,2.52,0,0,1,2.52,2.52"/><circle class="cls-6" cx="274.93" cy="133.82" r="2.52"/><path class="cls-5" d="M274.93,141.38a2.52,2.52,0,1,1-2.52-2.52,2.52,2.52,0,0,1,2.52,2.52"/><circle class="cls-6" cx="272.41" cy="141.38" r="2.52"/><path class="cls-5" d="M272.53,135.38a2.52,2.52,0,1,1-2.52-2.52,2.52,2.52,0,0,1,2.52,2.52"/><circle class="cls-6" cx="270.01" cy="135.38" r="2.52"/><path class="cls-5" d="M270,140.66a2.52,2.52,0,1,1-2.52-2.52,2.52,2.52,0,0,1,2.52,2.52"/><circle class="cls-6" cx="267.49" cy="140.66" r="2.52"/><path class="cls-5" d="M267.49,141.38a2.52,2.52,0,1,1-2.52-2.52,2.52,2.52,0,0,1,2.52,2.52"/><circle class="cls-6" cx="264.97" cy="141.38" r="2.52"/><path class="cls-5" d="M265,133.82a2.52,2.52,0,1,1-2.52-2.52,2.52,2.52,0,0,1,2.52,2.52"/><circle class="cls-6" cx="262.45" cy="133.82" r="2.52"/><path class="cls-5" d="M262.57,146.66a2.52,2.52,0,1,1-2.52-2.52,2.52,2.52,0,0,1,2.52,2.52"/><circle class="cls-6" cx="260.05" cy="146.66" r="2.52"/><path class="cls-5" d="M260.05,140.66a2.52,2.52,0,1,1-2.52-2.52,2.52,2.52,0,0,1,2.52,2.52"/><circle class="cls-6" cx="257.53" cy="140.66" r="2.52"/><path class="cls-5" d="M257.65,138.38a2.52,2.52,0,1,1-2.52-2.52,2.52,2.52,0,0,1,2.52,2.52"/><circle class="cls-6" cx="255.13" cy="138.38" r="2.52"/><path class="cls-5" d="M255,146.66a2.52,2.52,0,1,1-2.52-2.52,2.52,2.52,0,0,1,2.52,2.52"/><circle class="cls-6" cx="252.49" cy="146.66" r="2.52"/><path class="cls-5" d="M252.61,140.66a2.52,2.52,0,1,1-2.52-2.52,2.52,2.52,0,0,1,2.52,2.52"/><circle class="cls-6" cx="250.09" cy="140.66" r="2.52"/><path class="cls-5" d="M250.09,145.22a2.52,2.52,0,1,1-2.52-2.52,2.52,2.52,0,0,1,2.52,2.52"/><circle class="cls-6" cx="247.57" cy="145.22" r="2.52"/><path class="cls-5" d="M247.69,146.66a2.52,2.52,0,1,1-2.52-2.52,2.52,2.52,0,0,1,2.52,2.52"/><circle class="cls-6" cx="245.17" cy="146.66" r="2.52"/><path class="cls-5" d="M245.17,139.94a2.52,2.52,0,1,1-2.52-2.52,2.52,2.52,0,0,1,2.52,2.52"/><circle class="cls-6" cx="242.65" cy="139.94" r="2.52"/><path class="cls-5" d="M242.65,152.66a2.52,2.52,0,1,1-2.52-2.52,2.52,2.52,0,0,1,2.52,2.52"/><circle class="cls-6" cx="240.13" cy="152.66" r="2.52"/><path class="cls-5" d="M240.13,146.66a2.52,2.52,0,1,1-2.52-2.52,2.52,2.52,0,0,1,2.52,2.52"/><circle class="cls-6" cx="237.61" cy="146.66" r="2.52"/><path class="cls-5" d="M237.73,142.1a2.52,2.52,0,1,1-2.52-2.52,2.52,2.52,0,0,1,2.52,2.52"/><circle class="cls-6" cx="235.21" cy="142.1" r="2.52"/><path class="cls-5" d="M235.21,152.66a2.52,2.52,0,1,1-2.52-2.52,2.52,2.52,0,0,1,2.52,2.52"/><circle class="cls-6" cx="232.69" cy="152.66" r="2.52"/><path class="cls-5" d="M232.69,146.66a2.52,2.52,0,1,1-2.52-2.52,2.52,2.52,0,0,1,2.52,2.52"/><circle class="cls-6" cx="230.17" cy="146.66" r="2.52"/><path class="cls-5" d="M230.17,150.5a2.52,2.52,0,1,1-2.52-2.52,2.52,2.52,0,0,1,2.52,2.52"/><circle class="cls-6" cx="227.65" cy="150.5" r="2.52"/><path class="cls-5" d="M227.77,153.5a2.52,2.52,0,1,1-2.52-2.52,2.52,2.52,0,0,1,2.52,2.52"/><circle class="cls-6" cx="225.25" cy="153.5" r="2.52"/><path class="cls-5" d="M225.25,146.66a2.52,2.52,0,1,1-2.52-2.52,2.52,2.52,0,0,1,2.52,2.52"/><circle class="cls-6" cx="222.73" cy="146.66" r="2.52"/><path class="cls-5" d="M222.85,158.78a2.52,2.52,0,1,1-2.52-2.52,2.52,2.52,0,0,1,2.52,2.52"/><circle class="cls-6" cx="220.33" cy="158.78" r="2.52"/><path class="cls-5" d="M220.21,153.5a2.52,2.52,0,1,1-2.52-2.52,2.52,2.52,0,0,1,2.52,2.52"/><circle class="cls-6" cx="217.69" cy="153.5" r="2.52"/><path class="cls-5" d="M217.81,148.22a2.52,2.52,0,1,1-2.52-2.52,2.52,2.52,0,0,1,2.52,2.52"/><circle class="cls-6" cx="215.29" cy="148.22" r="2.52"/><path class="cls-5" d="M215.29,159.5a2.52,2.52,0,1,1-2.52-2.52,2.52,2.52,0,0,1,2.52,2.52"/><circle class="cls-6" cx="212.77" cy="159.5" r="2.52"/><path class="cls-5" d="M212.89,154.22a2.52,2.52,0,1,1-2.52-2.52,2.52,2.52,0,0,1,2.52,2.52"/><circle class="cls-6" cx="210.37" cy="154.22" r="2.52"/><path class="cls-5" d="M210.37,157.22a2.52,2.52,0,1,1-2.52-2.52,2.52,2.52,0,0,1,2.52,2.52"/><circle class="cls-6" cx="207.85" cy="157.22" r="2.52"/><path class="cls-5" d="M207.85,160.22a2.52,2.52,0,1,1-2.52-2.52,2.52,2.52,0,0,1,2.52,2.52"/><circle class="cls-6" cx="205.33" cy="160.22" r="2.52"/><path class="cls-5" d="M205.33,154.94a2.52,2.52,0,1,1-2.52-2.52,2.52,2.52,0,0,1,2.52,2.52"/><circle class="cls-6" cx="202.81" cy="154.94" r="2.52"/><path class="cls-5" d="M202.93,166.34a2.52,2.52,0,1,1-2.52-2.52,2.52,2.52,0,0,1,2.52,2.52"/><circle class="cls-6" cx="200.41" cy="166.34" r="2.52"/><path class="cls-5" d="M200.41,161.78a2.52,2.52,0,1,1-2.52-2.52,2.52,2.52,0,0,1,2.52,2.52"/><circle class="cls-6" cx="197.89" cy="161.78" r="2.52"/><path class="cls-5" d="M197.89,154.94a2.52,2.52,0,1,1-2.52-2.52,2.52,2.52,0,0,1,2.52,2.52"/><circle class="cls-6" cx="195.37" cy="154.94" r="2.52"/><path class="cls-5" d="M195.37,167.78a2.52,2.52,0,1,1-2.52-2.52,2.52,2.52,0,0,1,2.52,2.52"/><circle class="cls-6" cx="192.85" cy="167.78" r="2.52"/><path class="cls-5" d="M193,162.5a2.52,2.52,0,1,1-2.52-2.52A2.52,2.52,0,0,1,193,162.5"/><circle class="cls-6" cx="190.45" cy="162.5" r="2.52"/><path class="cls-5" d="M190.45,164.06a2.52,2.52,0,1,1-2.52-2.52,2.52,2.52,0,0,1,2.52,2.52"/><circle class="cls-6" cx="187.93" cy="164.06" r="2.52"/><path class="cls-5" d="M188.05,169.34a2.52,2.52,0,1,1-2.52-2.52,2.52,2.52,0,0,1,2.52,2.52"/><circle class="cls-6" cx="185.53" cy="169.34" r="2.52"/><path class="cls-5" d="M185.53,164.06a2.52,2.52,0,1,1-2.52-2.52,2.52,2.52,0,0,1,2.52,2.52"/><circle class="cls-6" cx="183.01" cy="164.06" r="2.52"/><path class="cls-5" d="M183,175.34a2.52,2.52,0,1,1-2.52-2.52,2.52,2.52,0,0,1,2.52,2.52"/><circle class="cls-6" cx="180.49" cy="175.34" r="2.52"/><path class="cls-5" d="M180.49,171.62A2.52,2.52,0,1,1,178,169.1a2.52,2.52,0,0,1,2.52,2.52"/><circle class="cls-6" cx="177.97" cy="171.62" r="2.52"/><path class="cls-5" d="M178.09,164.78a2.52,2.52,0,1,1-2.52-2.52,2.52,2.52,0,0,1,2.52,2.52"/><circle class="cls-6" cx="175.57" cy="164.78" r="2.52"/><path class="cls-5" d="M175.57,177.62a2.52,2.52,0,1,1-2.52-2.52,2.52,2.52,0,0,1,2.52,2.52"/><circle class="cls-6" cx="173.05" cy="177.62" r="2.52"/><path class="cls-5" d="M173.05,173.06a2.52,2.52,0,1,1-2.52-2.52,2.52,2.52,0,0,1,2.52,2.52"/><circle class="cls-6" cx="170.53" cy="173.06" r="2.52"/><path class="cls-5" d="M170.53,172.34a2.52,2.52,0,1,1-2.52-2.52,2.52,2.52,0,0,1,2.52,2.52"/><circle class="cls-6" cx="168.01" cy="172.34" r="2.52"/><path class="cls-5" d="M168.13,179.9a2.52,2.52,0,1,1-2.52-2.52,2.52,2.52,0,0,1,2.52,2.52"/><circle class="cls-6" cx="165.61" cy="179.9" r="2.52"/><path class="cls-5" d="M165.61,175.34a2.52,2.52,0,1,1-2.52-2.52,2.52,2.52,0,0,1,2.52,2.52"/><circle class="cls-6" cx="163.09" cy="175.34" r="2.52"/><path class="cls-5" d="M163.09,186.74a2.52,2.52,0,1,1-2.52-2.52,2.52,2.52,0,0,1,2.52,2.52"/><circle class="cls-6" cx="160.57" cy="186.74" r="2.52"/><path class="cls-5" d="M160.57,182.9a2.52,2.52,0,1,1-2.52-2.52,2.52,2.52,0,0,1,2.52,2.52"/><circle class="cls-6" cx="158.05" cy="182.9" r="2.52"/><path class="cls-5" d="M158.17,177.62a2.52,2.52,0,1,1-2.52-2.52,2.52,2.52,0,0,1,2.52,2.52"/><circle class="cls-6" cx="155.65" cy="177.62" r="2.52"/><path class="cls-5" d="M155.65,190.46a2.52,2.52,0,1,1-2.52-2.52,2.52,2.52,0,0,1,2.52,2.52"/><circle class="cls-6" cx="153.13" cy="190.46" r="2.52"/><path class="cls-5" d="M153.25,185.9a2.52,2.52,0,1,1-2.52-2.52,2.52,2.52,0,0,1,2.52,2.52"/><circle class="cls-6" cx="150.73" cy="185.9" r="2.52"/><path class="cls-5" d="M150.73,182.9a2.52,2.52,0,1,1-2.52-2.52,2.52,2.52,0,0,1,2.52,2.52"/><circle class="cls-6" cx="148.21" cy="182.9" r="2.52"/><path class="cls-5" d="M148.21,193.46a2.52,2.52,0,1,1-2.52-2.52,2.52,2.52,0,0,1,2.52,2.52"/><circle class="cls-6" cx="145.69" cy="193.46" r="2.52"/><path class="cls-5" d="M145.69,189.74a2.52,2.52,0,1,1-2.52-2.52,2.52,2.52,0,0,1,2.52,2.52"/><circle class="cls-6" cx="143.17" cy="189.74" r="2.52"/><path class="cls-5" d="M143.29,201a2.52,2.52,0,1,1-2.52-2.52,2.52,2.52,0,0,1,2.52,2.52"/><circle class="cls-6" cx="140.77" cy="201.02" r="2.52"/><path class="cls-5" d="M140.77,197.3a2.52,2.52,0,1,1-2.52-2.52,2.52,2.52,0,0,1,2.52,2.52"/><circle class="cls-6" cx="138.25" cy="197.3" r="2.52"/><path class="cls-5" d="M138.25,193.46a2.52,2.52,0,1,1-2.52-2.52,2.52,2.52,0,0,1,2.52,2.52"/><circle class="cls-6" cx="135.73" cy="193.46" r="2.52"/><path class="cls-5" d="M135.73,205.58a2.52,2.52,0,1,1-2.52-2.52,2.52,2.52,0,0,1,2.52,2.52"/><circle class="cls-6" cx="133.21" cy="205.58" r="2.52"/><path class="cls-5" d="M133.33,202.58a2.52,2.52,0,1,1-2.52-2.52,2.52,2.52,0,0,1,2.52,2.52"/><circle class="cls-6" cx="130.81" cy="202.58" r="2.52"/><path class="cls-5" d="M130.81,197.3a2.52,2.52,0,1,1-2.52-2.52,2.52,2.52,0,0,1,2.52,2.52"/><circle class="cls-6" cx="128.29" cy="197.3" r="2.52"/><path class="cls-5" d="M128.29,210.14a2.52,2.52,0,1,1-2.52-2.52,2.52,2.52,0,0,1,2.52,2.52"/><circle class="cls-6" cx="125.77" cy="210.14" r="2.52"/><path class="cls-5" d="M125.89,214.7a2.52,2.52,0,1,1-2.52-2.52,2.52,2.52,0,0,1,2.52,2.52"/><circle class="cls-6" cx="123.37" cy="214.7" r="2.52"/><path class="cls-5" d="M123.37,218.42a2.52,2.52,0,1,1-2.52-2.52,2.52,2.52,0,0,1,2.52,2.52"/><circle class="cls-6" cx="120.85" cy="218.42" r="2.52"/><path class="cls-5" d="M120.85,207.86a2.52,2.52,0,1,1-2.52-2.52,2.52,2.52,0,0,1,2.52,2.52"/><circle class="cls-6" cx="118.33" cy="207.86" r="2.52"/><path class="cls-5" d="M118.45,213.14a2.52,2.52,0,1,1-2.52-2.52,2.52,2.52,0,0,1,2.52,2.52"/><circle class="cls-6" cx="115.93" cy="213.14" r="2.52"/><path class="cls-5" d="M115.93,218.42a2.52,2.52,0,1,1-2.52-2.52,2.52,2.52,0,0,1,2.52,2.52"/><circle class="cls-6" cx="113.41" cy="218.42" r="2.52"/><path class="cls-5" d="M113.41,223a2.52,2.52,0,1,1-2.52-2.52,2.52,2.52,0,0,1,2.52,2.52"/><circle class="cls-6" cx="110.89" cy="222.98" r="2.52"/><path class="cls-5" d="M110.89,227.54a2.52,2.52,0,1,1-2.52-2.52,2.52,2.52,0,0,1,2.52,2.52"/><circle class="cls-6" cx="108.37" cy="227.54" r="2.52"/><path class="cls-5" d="M108.49,232.82A2.52,2.52,0,1,1,106,230.3a2.52,2.52,0,0,1,2.52,2.52"/><circle class="cls-6" cx="105.97" cy="232.82" r="2.52"/><path class="cls-5" d="M106,237.26a2.52,2.52,0,1,1-2.52-2.52,2.52,2.52,0,0,1,2.52,2.52"/><circle class="cls-6" cx="103.45" cy="237.26" r="2.52"/><path class="cls-5" d="M103.45,241.82a2.52,2.52,0,1,1-2.52-2.52,2.52,2.52,0,0,1,2.52,2.52"/><circle class="cls-6" cx="100.93" cy="241.82" r="2.52"/><path class="cls-5" d="M100.93,244.1a2.52,2.52,0,1,1-2.52-2.52,2.52,2.52,0,0,1,2.52,2.52"/><circle class="cls-6" cx="98.41" cy="244.1" r="2.52"/><path class="cls-5" d="M98.53,240.38A2.52,2.52,0,1,1,96,237.86a2.52,2.52,0,0,1,2.52,2.52"/><circle class="cls-6" cx="96.01" cy="240.38" r="2.52"/><path class="cls-5" d="M96,247.1a2.52,2.52,0,1,1-2.52-2.52A2.52,2.52,0,0,1,96,247.1"/><circle class="cls-6" cx="93.49" cy="247.1" r="2.52"/><path class="cls-5" d="M93.49,253.22A2.52,2.52,0,1,1,91,250.7a2.52,2.52,0,0,1,2.52,2.52"/><circle class="cls-6" cx="90.97" cy="253.22" r="2.52"/><path class="cls-5" d="M91.09,259.22a2.52,2.52,0,1,1-2.52-2.52,2.52,2.52,0,0,1,2.52,2.52"/><circle class="cls-6" cx="88.57" cy="259.22" r="2.52"/><path class="cls-5" d="M88.57,265.22a2.52,2.52,0,1,1-2.52-2.52,2.52,2.52,0,0,1,2.52,2.52"/><circle class="cls-6" cx="86.05" cy="265.22" r="2.52"/><path class="cls-5" d="M86.05,271.34a2.52,2.52,0,1,1-2.52-2.52,2.52,2.52,0,0,1,2.52,2.52"/><circle class="cls-6" cx="83.53" cy="271.34" r="2.52"/><path class="cls-5" d="M83.65,277.34a2.52,2.52,0,1,1-2.52-2.52,2.52,2.52,0,0,1,2.52,2.52"/><circle class="cls-6" cx="81.13" cy="277.34" r="2.52"/><path class="cls-5" d="M81.13,283.34a2.52,2.52,0,1,1-2.52-2.52,2.52,2.52,0,0,1,2.52,2.52"/><circle class="cls-6" cx="78.61" cy="283.34" r="2.52"/><path class="cls-5" d="M78.61,284.18a2.52,2.52,0,1,1-2.52-2.52,2.52,2.52,0,0,1,2.52,2.52"/><circle class="cls-6" cx="76.09" cy="284.18" r="2.52"/><path class="cls-5" d="M76.09,292.46a2.52,2.52,0,1,1-2.52-2.52,2.52,2.52,0,0,1,2.52,2.52"/><circle class="cls-6" cx="73.57" cy="292.46" r="2.52"/><path class="cls-5" d="M73.69,300.74a2.52,2.52,0,1,1-2.52-2.52,2.52,2.52,0,0,1,2.52,2.52"/><circle class="cls-6" cx="71.17" cy="300.74" r="2.52"/><path class="cls-5" d="M71.17,309a2.52,2.52,0,1,1-2.52-2.52A2.52,2.52,0,0,1,71.17,309"/><circle class="cls-6" cx="68.65" cy="309.02" r="2.52"/><path class="cls-5" d="M68.65,318.14a2.52,2.52,0,1,1-2.52-2.52,2.52,2.52,0,0,1,2.52,2.52"/><circle class="cls-6" cx="66.13" cy="318.14" r="2.52"/><text class="cls-7" transform="translate(43.59 424.07)">0</text><text class="cls-7" transform="translate(32.97 386.3)"><tspan class="cls-8">0</tspan><tspan class="cls-9" x="7.09" y="0">.</tspan><tspan x="10.67" y="0">5</tspan></text><text class="cls-7" transform="translate(43.59 348.54)">1</text><text class="cls-7" transform="translate(32.97 310.77)"><tspan class="cls-8">1</tspan><tspan class="cls-9" x="7.09" y="0">.</tspan><tspan x="10.67" y="0">5</tspan></text><text class="cls-7" transform="translate(43.59 273)">2</text><text class="cls-7" transform="translate(32.97 235.23)"><tspan class="cls-8">2</tspan><tspan class="cls-9" x="7.09" y="0">.</tspan><tspan x="10.67" y="0">5</tspan></text><text class="cls-7" transform="translate(43.59 197.47)">3</text><text class="cls-7" transform="translate(32.97 159.7)"><tspan class="cls-8">3</tspan><tspan class="cls-9" x="7.09" y="0">.</tspan><tspan x="10.67" y="0">5</tspan></text><text class="cls-7" transform="translate(43.59 121.93)">4</text><text class="cls-7" transform="translate(32.97 84.16)"><tspan class="cls-8">4</tspan><tspan class="cls-9" x="7.09" y="0">.</tspan><tspan x="10.67" y="0">5</tspan></text><text class="cls-7" transform="translate(43.59 46.4)">5</text><text class="cls-10" transform="translate(46.26 442.23)">0<tspan class="cls-9" x="7.09" y="0">.</tspan><tspan class="cls-8" x="10.67" y="0">00</tspan><tspan class="cls-11" x="24.85" y="0">%</tspan></text><text class="cls-10" transform="translate(106.1 442.23)">10<tspan class="cls-9" x="14.18" y="0">.</tspan><tspan class="cls-8" x="17.76" y="0">00</tspan><tspan class="cls-11" x="31.94" y="0">%</tspan></text><text class="cls-12" transform="translate(169.48 442.23)">20<tspan class="cls-9" x="14.18" y="0">.</tspan><tspan x="17.76" y="0">00</tspan><tspan class="cls-11" x="31.94" y="0">%</tspan></text><text class="cls-10" transform="translate(232.85 442.23)">30<tspan class="cls-9" x="14.18" y="0">.</tspan><tspan class="cls-8" x="17.76" y="0">00</tspan><tspan class="cls-11" x="31.94" y="0">%</tspan></text><text class="cls-12" transform="translate(296.23 442.23)">40<tspan class="cls-9" x="14.18" y="0">.</tspan><tspan x="17.76" y="0">00</tspan><tspan class="cls-11" x="31.94" y="0">%</tspan></text><text class="cls-10" transform="translate(359.61 442.23)">50<tspan class="cls-9" x="14.18" y="0">.</tspan><tspan x="17.76" y="0">00</tspan><tspan class="cls-13" x="31.94" y="0">%</tspan></text><text class="cls-10" transform="translate(422.98 442.23)">60<tspan class="cls-9" x="14.18" y="0">.</tspan><tspan x="17.76" y="0">00</tspan><tspan class="cls-13" x="31.94" y="0">%</tspan></text><text class="cls-10" transform="translate(486.36 442.23)">70<tspan class="cls-9" x="14.18" y="0">.</tspan><tspan x="17.76" y="0">00</tspan><tspan class="cls-13" x="31.94" y="0">%</tspan></text><text class="cls-10" transform="translate(549.74 442.23)">80<tspan class="cls-9" x="14.18" y="0">.</tspan><tspan x="17.76" y="0">00</tspan><tspan class="cls-13" x="31.94" y="0">%</tspan></text><text class="cls-10" transform="translate(613.11 442.23)">90<tspan class="cls-9" x="14.18" y="0">.</tspan><tspan x="17.76" y="0">00</tspan><tspan class="cls-13" x="31.94" y="0">%</tspan></text><text class="cls-7" transform="translate(672.95 442.23)"><tspan class="cls-14">100</tspan><tspan class="cls-15" x="21.26" y="0">.</tspan><tspan class="cls-14" x="24.86" y="0">00</tspan><tspan x="39.04" y="0">%</tspan></text><text class="cls-7" transform="translate(26.19 274.96) rotate(-90)"><tspan class="cls-16">L</tspan><tspan x="5.89" y="0">D</tspan><tspan class="cls-15" x="14.53" y="0">R</tspan><tspan class="cls-17" x="22.21" y="0"> </tspan><tspan class="cls-18" x="25.34" y="0">V</tspan><tspan class="cls-19" x="32.67" y="0">o</tspan><tspan class="cls-20" x="40.1" y="0">l</tspan><tspan class="cls-21" x="43.34" y="0">t</tspan><tspan class="cls-22" x="47.9" y="0">a</tspan><tspan class="cls-23" x="54.63" y="0">g</tspan><tspan class="cls-24" x="61.11" y="0">e</tspan><tspan class="cls-25" x="68.08" y="0"> </tspan><tspan class="cls-26" x="71.09" y="0">(</tspan><tspan class="cls-17" x="75.29" y="0">V</tspan><tspan x="83.21" y="0">)</tspan></text><text class="cls-7" transform="translate(338.69 462.37)"><tspan class="cls-16">LE</tspan><tspan x="12.73" y="0">D</tspan><tspan class="cls-26" x="21.37" y="0" xml:space="preserve"> b</tspan><tspan class="cls-27" x="31.81" y="0">ri</tspan><tspan x="39.95" y="0">g</tspan><tspan class="cls-28" x="46.56" y="0">h</tspan><tspan class="cls-29" x="53.77" y="0">t</tspan><tspan class="cls-30" x="58.46" y="0">n</tspan><tspan class="cls-16" x="65.79" y="0">e</tspan><tspan class="cls-31" x="72.76" y="0">s</tspan><tspan x="78.27" y="0">s</tspan></text><text class="cls-32" transform="translate(270.8 23.12)"><tspan class="cls-33">H</tspan><tspan class="cls-34" x="9.96" y="0">y</tspan><tspan class="cls-35" x="17.04" y="0">s</tspan><tspan class="cls-36" x="23.17" y="0">t</tspan><tspan class="cls-37" x="28.45" y="0">e</tspan><tspan class="cls-38" x="36.38" y="0">r</tspan><tspan class="cls-39" x="41.67" y="0">e</tspan><tspan x="49.6" y="0">s</tspan><tspan class="cls-40" x="55.84" y="0">i</tspan><tspan x="59.55" y="0">s</tspan><tspan class="cls-41" x="65.79" y="0"> </tspan><tspan class="cls-39" x="69.49" y="0">o</tspan><tspan class="cls-40" x="77.9" y="0">f</tspan><tspan class="cls-42" x="82.81" y="0" xml:space="preserve"> s</tspan><tspan class="cls-37" x="92.66" y="0">e</tspan><tspan x="100.59" y="0">ns</tspan><tspan class="cls-37" x="115.22" y="0">o</tspan><tspan class="cls-43" x="123.62" y="0">r</tspan><tspan class="cls-44" x="129.15" y="0"> </tspan><tspan class="cls-45" x="132.85" y="0">r</tspan><tspan class="cls-46" x="138.15" y="0">e</tspan><tspan x="146.07" y="0">s</tspan><tspan class="cls-47" x="152.31" y="0">p</tspan><tspan class="cls-37" x="160.71" y="0">o</tspan><tspan class="cls-48" x="169.11" y="0">nse</tspan></text><g class="cls-49"><rect class="cls-3" x="0.38" y="0.38" width="732.61" height="478.26"/></g><line class="cls-50" x1="100.81" y1="300.62" x2="145.09" y2="224.64"/><polygon class="cls-51" points="147.18 227.02 147.61 220.32 142 224 147.18 227.02"/><line class="cls-50" x1="118.19" y1="180.81" x2="78.23" y2="244.29"/><polygon class="cls-51" points="76.22 241.84 75.56 248.52 81.3 245.04 76.22 241.84"/></svg>