<svg id="Layer_1" data-name="Layer 1" xmlns="http://www.w3.org/2000/svg" xmlns:xlink="http://www.w3.org/1999/xlink" viewBox="0 0 741.49 487.7"><defs><style>.cls-1,.cls-3,.cls-4,.cls-6,.cls-8{fill:none;}.cls-2{fill:#fff;}.cls-3{stroke:#d9d9d9;}.cls-3,.cls-4,.cls-6,.cls-8{stroke-linejoin:round;}.cls-3,.cls-4{stroke-width:0.75px;}.cls-4{stroke:#bfbfbf;}.cls-5{fill:#70ad47;}.cls-6{stroke:#70ad47;stroke-width:0.72px;}.cls-7{clip-path:url(#clip-path);}.cls-8{stroke:#000;stroke-linecap:round;stroke-width:3px;}.cls-10,.cls-13,.cls-9{font-size:14.04px;}.cls-10,.cls-13,.cls-32,.cls-9{fill:#595959;font-family:Calibri, Calibri;}.cls-10,.cls-14{letter-spacing:0em;}.cls-11{letter-spacing:0em;}.cls-12{letter-spacing:0em;}.cls-13,.cls-16{letter-spacing:0em;}.cls-15{letter-spacing:0em;}.cls-17{letter-spacing:0em;}.cls-18{letter-spacing:0em;}.cls-19{letter-spacing:0em;}.cls-20{letter-spacing:-0.01em;}.cls-21{letter-spacing:0em;}.cls-22{letter-spacing:0em;}.cls-23{letter-spacing:-0.01em;}.cls-24{letter-spacing:-0.01em;}.cls-25{letter-spacing:0em;}.cls-26{letter-spacing:0em;}.cls-27{letter-spacing:-0.01em;}.cls-28{letter-spacing:0em;}.cls-29{letter-spacing:0em;}.cls-30{letter-spacing:0em;}.cls-31{letter-spacing:0em;}.cls-32{font-size:15.96px;}.cls-33{letter-spacing:0em;}.cls-34{letter-spacing:0em;}.cls-35{letter-spacing:0em;}.cls-36{letter-spacing:0em;}.cls-37{letter-spacing:0em;}.cls-38{letter-spacing:0em;}.cls-39{letter-spacing:0em;}.cls-40{letter-spacing:0em;}.cls-41{letter-spacing:0em;}.cls-42{letter-spacing:0.01em;}.cls-43{letter-spacing:-0.02em;}.cls-44{letter-spacing:0em;}.cls-45{clip-path:url(#clip-path-2);}</style><clipPath id="clip-path"><rect class="cls-1" x="84.85" y="42.38" width="612.48" height="377.88"/></clipPath><clipPath id="clip-path-2"><rect class="cls-1" x="0.38" y="0.38" width="741.12" height="487.32"/></clipPath></defs><title>LDR-Nonlinearity</title><rect class="cls-2" x="0.38" y="0.38" width="732.54" height="478.45"/><path class="cls-3" d="M85,42.45H697.41M85,96.38H697.41M85,150.38H697.41M85,204.38H697.41M85,258.38H697.41M85,312.26H697.41M85,366.26H697.41"/><path class="cls-3" d="M697.41,42.45V420.26M636.13,42.45V420.26M574.94,42.45V420.26M513.62,42.45V420.26M452.41,42.45V420.26M391.21,42.45V420.26M329.9,42.45V420.26M268.69,42.45V420.26M207.49,42.45V420.26M146.17,42.45V420.26"/><line class="cls-4" x1="84.96" y1="420.26" x2="84.96" y2="42.45"/><line class="cls-4" x1="84.96" y1="420.26" x2="697.41" y2="420.26"/><path class="cls-5" d="M89.9,414.62a2.52,2.52,0,1,1-2.52-2.52,2.52,2.52,0,0,1,2.52,2.52"/><circle class="cls-6" cx="87.37" cy="414.62" r="2.52"/><path class="cls-5" d="M92.29,412.58a2.52,2.52,0,1,1-2.52-2.52,2.52,2.52,0,0,1,2.52,2.52"/><circle class="cls-6" cx="89.77" cy="412.58" r="2.52"/><path class="cls-5" d="M94.7,410.06a2.52,2.52,0,1,1-2.52-2.52,2.52,2.52,0,0,1,2.52,2.52"/><circle class="cls-6" cx="92.17" cy="410.06" r="2.52"/><path class="cls-5" d="M97.09,406.58a2.52,2.52,0,1,1-2.52-2.52,2.52,2.52,0,0,1,2.52,2.52"/><circle class="cls-6" cx="94.57" cy="406.58" r="2.52"/><path class="cls-5" d="M99.5,404.18A2.52,2.52,0,1,1,97,401.66a2.52,2.52,0,0,1,2.52,2.52"/><circle class="cls-6" cx="96.98" cy="404.18" r="2.52"/><path class="cls-5" d="M101.9,401.78a2.52,2.52,0,1,1-2.52-2.52,2.52,2.52,0,0,1,2.52,2.52"/><circle class="cls-6" cx="99.37" cy="401.78" r="2.52"/><path class="cls-5" d="M104.29,397.82a2.52,2.52,0,1,1-2.52-2.52,2.52,2.52,0,0,1,2.52,2.52"/><circle class="cls-6" cx="101.77" cy="397.82" r="2.52"/><path class="cls-5" d="M106.7,396a2.52,2.52,0,1,1-2.52-2.52A2.52,2.52,0,0,1,106.7,396"/><circle class="cls-6" cx="104.17" cy="396.02" r="2.52"/><path class="cls-5" d="M109.09,394.34a2.52,2.52,0,1,1-2.52-2.52,2.52,2.52,0,0,1,2.52,2.52"/><circle class="cls-6" cx="106.57" cy="394.34" r="2.52"/><path class="cls-5" d="M111.5,390A2.52,2.52,0,1,1,109,387.5,2.52,2.52,0,0,1,111.5,390"/><circle class="cls-6" cx="108.98" cy="390.02" r="2.52"/><path class="cls-5" d="M113.9,388.94a2.52,2.52,0,1,1-2.52-2.52,2.52,2.52,0,0,1,2.52,2.52"/><circle class="cls-6" cx="111.37" cy="388.94" r="2.52"/><path class="cls-5" d="M116.29,383.54a2.52,2.52,0,1,1-2.52-2.52,2.52,2.52,0,0,1,2.52,2.52"/><circle class="cls-6" cx="113.77" cy="383.54" r="2.52"/><path class="cls-5" d="M118.7,383.18a2.52,2.52,0,1,1-2.52-2.52,2.52,2.52,0,0,1,2.52,2.52"/><circle class="cls-6" cx="116.17" cy="383.18" r="2.52"/><path class="cls-5" d="M121.09,382.34a2.52,2.52,0,1,1-2.52-2.52,2.52,2.52,0,0,1,2.52,2.52"/><circle class="cls-6" cx="118.57" cy="382.34" r="2.52"/><path class="cls-5" d="M123.5,376.7a2.52,2.52,0,1,1-2.52-2.52,2.52,2.52,0,0,1,2.52,2.52"/><circle class="cls-6" cx="120.98" cy="376.7" r="2.52"/><path class="cls-5" d="M125.9,376.7a2.52,2.52,0,1,1-2.52-2.52,2.52,2.52,0,0,1,2.52,2.52"/><circle class="cls-6" cx="123.37" cy="376.7" r="2.52"/><path class="cls-5" d="M128.29,376.46a2.52,2.52,0,1,1-2.52-2.52,2.52,2.52,0,0,1,2.52,2.52"/><circle class="cls-6" cx="125.77" cy="376.46" r="2.52"/><path class="cls-5" d="M130.7,370.7a2.52,2.52,0,1,1-2.52-2.52,2.52,2.52,0,0,1,2.52,2.52"/><circle class="cls-6" cx="128.17" cy="370.7" r="2.52"/><path class="cls-5" d="M133.09,371.06a2.52,2.52,0,1,1-2.52-2.52,2.52,2.52,0,0,1,2.52,2.52"/><circle class="cls-6" cx="130.57" cy="371.06" r="2.52"/><path class="cls-5" d="M135.5,363.62A2.52,2.52,0,1,1,133,361.1a2.52,2.52,0,0,1,2.52,2.52"/><circle class="cls-6" cx="132.98" cy="363.62" r="2.52"/><path class="cls-5" d="M137.9,365.06a2.52,2.52,0,1,1-2.52-2.52,2.52,2.52,0,0,1,2.52,2.52"/><circle class="cls-6" cx="135.37" cy="365.06" r="2.52"/><path class="cls-5" d="M140.29,366a2.52,2.52,0,1,1-2.52-2.52,2.52,2.52,0,0,1,2.52,2.52"/><circle class="cls-6" cx="137.77" cy="366.02" r="2.52"/><path class="cls-5" d="M142.7,358.22a2.52,2.52,0,1,1-2.52-2.52,2.52,2.52,0,0,1,2.52,2.52"/><circle class="cls-6" cx="140.17" cy="358.22" r="2.52"/><path class="cls-5" d="M145.09,359.9a2.52,2.52,0,1,1-2.52-2.52,2.52,2.52,0,0,1,2.52,2.52"/><circle class="cls-6" cx="142.57" cy="359.9" r="2.52"/><path class="cls-5" d="M147.49,357A2.52,2.52,0,1,1,145,354.5a2.52,2.52,0,0,1,2.52,2.52"/><circle class="cls-6" cx="144.97" cy="357.02" r="2.52"/><path class="cls-5" d="M149.89,353.42a2.52,2.52,0,1,1-2.52-2.52,2.52,2.52,0,0,1,2.52,2.52"/><circle class="cls-6" cx="147.37" cy="353.42" r="2.52"/><path class="cls-5" d="M152.29,355.7a2.52,2.52,0,1,1-2.52-2.52,2.52,2.52,0,0,1,2.52,2.52"/><circle class="cls-6" cx="149.77" cy="355.7" r="2.52"/><path class="cls-5" d="M154.69,346.1a2.52,2.52,0,1,1-2.52-2.52,2.52,2.52,0,0,1,2.52,2.52"/><circle class="cls-6" cx="152.17" cy="346.1" r="2.52"/><path class="cls-5" d="M157.09,349.82a2.52,2.52,0,1,1-2.52-2.52,2.52,2.52,0,0,1,2.52,2.52"/><circle class="cls-6" cx="154.57" cy="349.82" r="2.52"/><path class="cls-5" d="M159.49,349.58a2.52,2.52,0,1,1-2.52-2.52,2.52,2.52,0,0,1,2.52,2.52"/><circle class="cls-6" cx="156.97" cy="349.58" r="2.52"/><path class="cls-5" d="M161.89,343.1a2.52,2.52,0,1,1-2.52-2.52,2.52,2.52,0,0,1,2.52,2.52"/><circle class="cls-6" cx="159.37" cy="343.1" r="2.52"/><path class="cls-5" d="M164.29,346.7a2.52,2.52,0,1,1-2.52-2.52,2.52,2.52,0,0,1,2.52,2.52"/><circle class="cls-6" cx="161.77" cy="346.7" r="2.52"/><path class="cls-5" d="M166.69,335.54a2.52,2.52,0,1,1-2.52-2.52,2.52,2.52,0,0,1,2.52,2.52"/><circle class="cls-6" cx="164.17" cy="335.54" r="2.52"/><path class="cls-5" d="M169.09,340.22a2.52,2.52,0,1,1-2.52-2.52,2.52,2.52,0,0,1,2.52,2.52"/><circle class="cls-6" cx="166.57" cy="340.22" r="2.52"/><path class="cls-5" d="M171.49,340.82A2.52,2.52,0,1,1,169,338.3a2.52,2.52,0,0,1,2.52,2.52"/><circle class="cls-6" cx="168.97" cy="340.82" r="2.52"/><path class="cls-5" d="M173.89,333.38a2.52,2.52,0,1,1-2.52-2.52,2.52,2.52,0,0,1,2.52,2.52"/><circle class="cls-6" cx="171.37" cy="333.38" r="2.52"/><path class="cls-5" d="M176.29,337.94a2.52,2.52,0,1,1-2.52-2.52,2.52,2.52,0,0,1,2.52,2.52"/><circle class="cls-6" cx="173.77" cy="337.94" r="2.52"/><path class="cls-5" d="M178.69,324.62a2.52,2.52,0,1,1-2.52-2.52,2.52,2.52,0,0,1,2.52,2.52"/><circle class="cls-6" cx="176.17" cy="324.62" r="2.52"/><path class="cls-5" d="M181.09,331.22a2.52,2.52,0,1,1-2.52-2.52,2.52,2.52,0,0,1,2.52,2.52"/><circle class="cls-6" cx="178.57" cy="331.22" r="2.52"/><path class="cls-5" d="M183.49,333.38a2.52,2.52,0,1,1-2.52-2.52,2.52,2.52,0,0,1,2.52,2.52"/><circle class="cls-6" cx="180.97" cy="333.38" r="2.52"/><path class="cls-5" d="M186,323.78a2.52,2.52,0,1,1-2.52-2.52,2.52,2.52,0,0,1,2.52,2.52"/><circle class="cls-6" cx="183.49" cy="323.78" r="2.52"/><path class="cls-5" d="M188.41,329.3a2.52,2.52,0,1,1-2.52-2.52,2.52,2.52,0,0,1,2.52,2.52"/><circle class="cls-6" cx="185.89" cy="329.3" r="2.52"/><path class="cls-5" d="M190.81,313.7a2.52,2.52,0,1,1-2.52-2.52,2.52,2.52,0,0,1,2.52,2.52"/><circle class="cls-6" cx="188.29" cy="313.7" r="2.52"/><path class="cls-5" d="M193.21,322.1a2.52,2.52,0,1,1-2.52-2.52,2.52,2.52,0,0,1,2.52,2.52"/><circle class="cls-6" cx="190.69" cy="322.1" r="2.52"/><path class="cls-5" d="M195.61,326.66a2.52,2.52,0,1,1-2.52-2.52,2.52,2.52,0,0,1,2.52,2.52"/><circle class="cls-6" cx="193.09" cy="326.66" r="2.52"/><path class="cls-5" d="M198,313.7a2.52,2.52,0,1,1-2.52-2.52A2.52,2.52,0,0,1,198,313.7"/><circle class="cls-6" cx="195.49" cy="313.7" r="2.52"/><path class="cls-5" d="M200.41,321.26a2.52,2.52,0,1,1-2.52-2.52,2.52,2.52,0,0,1,2.52,2.52"/><circle class="cls-6" cx="197.89" cy="321.26" r="2.52"/><path class="cls-5" d="M202.81,303.86a2.52,2.52,0,1,1-2.52-2.52,2.52,2.52,0,0,1,2.52,2.52"/><circle class="cls-6" cx="200.29" cy="303.86" r="2.52"/><path class="cls-5" d="M205.21,313.7a2.52,2.52,0,1,1-2.52-2.52,2.52,2.52,0,0,1,2.52,2.52"/><circle class="cls-6" cx="202.69" cy="313.7" r="2.52"/><path class="cls-5" d="M207.61,318.26a2.52,2.52,0,1,1-2.52-2.52,2.52,2.52,0,0,1,2.52,2.52"/><circle class="cls-6" cx="205.09" cy="318.26" r="2.52"/><path class="cls-5" d="M210,305.42a2.52,2.52,0,1,1-2.52-2.52,2.52,2.52,0,0,1,2.52,2.52"/><circle class="cls-6" cx="207.49" cy="305.42" r="2.52"/><path class="cls-5" d="M212.41,312.26a2.52,2.52,0,1,1-2.52-2.52,2.52,2.52,0,0,1,2.52,2.52"/><circle class="cls-6" cx="209.89" cy="312.26" r="2.52"/><path class="cls-5" d="M214.81,296.18a2.52,2.52,0,1,1-2.52-2.52,2.52,2.52,0,0,1,2.52,2.52"/><circle class="cls-6" cx="212.29" cy="296.18" r="2.52"/><path class="cls-5" d="M217.21,304.82a2.52,2.52,0,1,1-2.52-2.52,2.52,2.52,0,0,1,2.52,2.52"/><circle class="cls-6" cx="214.69" cy="304.82" r="2.52"/><path class="cls-5" d="M219.61,311.9a2.52,2.52,0,1,1-2.52-2.52,2.52,2.52,0,0,1,2.52,2.52"/><circle class="cls-6" cx="217.09" cy="311.9" r="2.52"/><path class="cls-5" d="M222,295.58a2.52,2.52,0,1,1-2.52-2.52,2.52,2.52,0,0,1,2.52,2.52"/><circle class="cls-6" cx="219.49" cy="295.58" r="2.52"/><path class="cls-5" d="M224.41,305.42a2.52,2.52,0,1,1-2.52-2.52,2.52,2.52,0,0,1,2.52,2.52"/><circle class="cls-6" cx="221.89" cy="305.42" r="2.52"/><path class="cls-5" d="M226.81,287.66a2.52,2.52,0,1,1-2.52-2.52,2.52,2.52,0,0,1,2.52,2.52"/><circle class="cls-6" cx="224.29" cy="287.66" r="2.52"/><path class="cls-5" d="M229.21,296.66a2.52,2.52,0,1,1-2.52-2.52,2.52,2.52,0,0,1,2.52,2.52"/><circle class="cls-6" cx="226.69" cy="296.66" r="2.52"/><path class="cls-5" d="M231.61,305.42a2.52,2.52,0,1,1-2.52-2.52,2.52,2.52,0,0,1,2.52,2.52"/><circle class="cls-6" cx="229.09" cy="305.42" r="2.52"/><path class="cls-5" d="M234,287.06a2.52,2.52,0,1,1-2.52-2.52,2.52,2.52,0,0,1,2.52,2.52"/><circle class="cls-6" cx="231.49" cy="287.06" r="2.52"/><path class="cls-5" d="M236.41,298.34a2.52,2.52,0,1,1-2.52-2.52,2.52,2.52,0,0,1,2.52,2.52"/><circle class="cls-6" cx="233.89" cy="298.34" r="2.52"/><path class="cls-5" d="M238.81,279.14a2.52,2.52,0,1,1-2.52-2.52,2.52,2.52,0,0,1,2.52,2.52"/><circle class="cls-6" cx="236.29" cy="279.14" r="2.52"/><path class="cls-5" d="M241.21,289.58a2.52,2.52,0,1,1-2.52-2.52,2.52,2.52,0,0,1,2.52,2.52"/><circle class="cls-6" cx="238.69" cy="289.58" r="2.52"/><path class="cls-5" d="M243.61,297.86a2.52,2.52,0,1,1-2.52-2.52,2.52,2.52,0,0,1,2.52,2.52"/><circle class="cls-6" cx="241.09" cy="297.86" r="2.52"/><path class="cls-5" d="M246,278.42a2.52,2.52,0,1,1-2.52-2.52,2.52,2.52,0,0,1,2.52,2.52"/><circle class="cls-6" cx="243.49" cy="278.42" r="2.52"/><path class="cls-5" d="M248.41,290.78a2.52,2.52,0,1,1-2.52-2.52,2.52,2.52,0,0,1,2.52,2.52"/><circle class="cls-6" cx="245.89" cy="290.78" r="2.52"/><path class="cls-5" d="M250.81,272.78a2.52,2.52,0,1,1-2.52-2.52,2.52,2.52,0,0,1,2.52,2.52"/><circle class="cls-6" cx="248.29" cy="272.78" r="2.52"/><path class="cls-5" d="M253.21,281.9a2.52,2.52,0,1,1-2.52-2.52,2.52,2.52,0,0,1,2.52,2.52"/><circle class="cls-6" cx="250.69" cy="281.9" r="2.52"/><path class="cls-5" d="M255.61,291.38a2.52,2.52,0,1,1-2.52-2.52,2.52,2.52,0,0,1,2.52,2.52"/><circle class="cls-6" cx="253.09" cy="291.38" r="2.52"/><path class="cls-5" d="M258,270.5a2.52,2.52,0,1,1-2.52-2.52A2.52,2.52,0,0,1,258,270.5"/><circle class="cls-6" cx="255.49" cy="270.5" r="2.52"/><path class="cls-5" d="M260.41,283.82a2.52,2.52,0,1,1-2.52-2.52,2.52,2.52,0,0,1,2.52,2.52"/><circle class="cls-6" cx="257.89" cy="283.82" r="2.52"/><path class="cls-5" d="M262.81,266.66a2.52,2.52,0,1,1-2.52-2.52,2.52,2.52,0,0,1,2.52,2.52"/><circle class="cls-6" cx="260.29" cy="266.66" r="2.52"/><path class="cls-5" d="M265.21,274.22a2.52,2.52,0,1,1-2.52-2.52,2.52,2.52,0,0,1,2.52,2.52"/><circle class="cls-6" cx="262.69" cy="274.22" r="2.52"/><path class="cls-5" d="M267.61,285.14a2.52,2.52,0,1,1-2.52-2.52,2.52,2.52,0,0,1,2.52,2.52"/><circle class="cls-6" cx="265.09" cy="285.14" r="2.52"/><path class="cls-5" d="M270,261.86a2.52,2.52,0,1,1-2.52-2.52,2.52,2.52,0,0,1,2.52,2.52"/><circle class="cls-6" cx="267.49" cy="261.86" r="2.52"/><path class="cls-5" d="M272.41,277.1a2.52,2.52,0,1,1-2.52-2.52,2.52,2.52,0,0,1,2.52,2.52"/><circle class="cls-6" cx="269.89" cy="277.1" r="2.52"/><path class="cls-5" d="M274.81,260.18a2.52,2.52,0,1,1-2.52-2.52,2.52,2.52,0,0,1,2.52,2.52"/><circle class="cls-6" cx="272.29" cy="260.18" r="2.52"/><path class="cls-5" d="M277.21,266.66a2.52,2.52,0,1,1-2.52-2.52,2.52,2.52,0,0,1,2.52,2.52"/><circle class="cls-6" cx="274.69" cy="266.66" r="2.52"/><path class="cls-5" d="M279.61,278.42a2.52,2.52,0,1,1-2.52-2.52,2.52,2.52,0,0,1,2.52,2.52"/><circle class="cls-6" cx="277.09" cy="278.42" r="2.52"/><path class="cls-5" d="M282,253.34a2.52,2.52,0,1,1-2.52-2.52,2.52,2.52,0,0,1,2.52,2.52"/><circle class="cls-6" cx="279.49" cy="253.34" r="2.52"/><path class="cls-5" d="M284.41,269.78a2.52,2.52,0,1,1-2.52-2.52,2.52,2.52,0,0,1,2.52,2.52"/><circle class="cls-6" cx="281.89" cy="269.78" r="2.52"/><path class="cls-5" d="M286.81,255.14a2.52,2.52,0,1,1-2.52-2.52,2.52,2.52,0,0,1,2.52,2.52"/><circle class="cls-6" cx="284.29" cy="255.14" r="2.52"/><path class="cls-5" d="M289.21,258.5a2.52,2.52,0,1,1-2.52-2.52,2.52,2.52,0,0,1,2.52,2.52"/><circle class="cls-6" cx="286.69" cy="258.5" r="2.52"/><path class="cls-5" d="M291.61,272.78a2.52,2.52,0,1,1-2.52-2.52,2.52,2.52,0,0,1,2.52,2.52"/><circle class="cls-6" cx="289.09" cy="272.78" r="2.52"/><path class="cls-5" d="M294,245.18a2.52,2.52,0,1,1-2.52-2.52,2.52,2.52,0,0,1,2.52,2.52"/><circle class="cls-6" cx="291.49" cy="245.18" r="2.52"/><path class="cls-5" d="M296.41,263.54a2.52,2.52,0,1,1-2.52-2.52,2.52,2.52,0,0,1,2.52,2.52"/><circle class="cls-6" cx="293.89" cy="263.54" r="2.52"/><path class="cls-5" d="M298.81,248.9a2.52,2.52,0,1,1-2.52-2.52,2.52,2.52,0,0,1,2.52,2.52"/><circle class="cls-6" cx="296.29" cy="248.9" r="2.52"/><path class="cls-5" d="M301.21,251.54a2.52,2.52,0,1,1-2.52-2.52,2.52,2.52,0,0,1,2.52,2.52"/><circle class="cls-6" cx="298.69" cy="251.54" r="2.52"/><path class="cls-5" d="M303.61,266.66a2.52,2.52,0,1,1-2.52-2.52,2.52,2.52,0,0,1,2.52,2.52"/><circle class="cls-6" cx="301.09" cy="266.66" r="2.52"/><path class="cls-5" d="M306,237.26a2.52,2.52,0,1,1-2.52-2.52,2.52,2.52,0,0,1,2.52,2.52"/><circle class="cls-6" cx="303.49" cy="237.26" r="2.52"/><path class="cls-5" d="M308.41,256.82a2.52,2.52,0,1,1-2.52-2.52,2.52,2.52,0,0,1,2.52,2.52"/><circle class="cls-6" cx="305.89" cy="256.82" r="2.52"/><path class="cls-5" d="M310.81,243.26a2.52,2.52,0,1,1-2.52-2.52,2.52,2.52,0,0,1,2.52,2.52"/><circle class="cls-6" cx="308.29" cy="243.26" r="2.52"/><path class="cls-5" d="M313.21,245.18a2.52,2.52,0,1,1-2.52-2.52,2.52,2.52,0,0,1,2.52,2.52"/><circle class="cls-6" cx="310.69" cy="245.18" r="2.52"/><path class="cls-5" d="M315.61,260.18a2.52,2.52,0,1,1-2.52-2.52,2.52,2.52,0,0,1,2.52,2.52"/><circle class="cls-6" cx="313.09" cy="260.18" r="2.52"/><path class="cls-5" d="M318,228.86a2.52,2.52,0,1,1-2.52-2.52,2.52,2.52,0,0,1,2.52,2.52"/><circle class="cls-6" cx="315.49" cy="228.86" r="2.52"/><path class="cls-5" d="M320.41,249.74a2.52,2.52,0,1,1-2.52-2.52,2.52,2.52,0,0,1,2.52,2.52"/><circle class="cls-6" cx="317.89" cy="249.74" r="2.52"/><path class="cls-5" d="M322.81,238.22a2.52,2.52,0,1,1-2.52-2.52,2.52,2.52,0,0,1,2.52,2.52"/><circle class="cls-6" cx="320.29" cy="238.22" r="2.52"/><path class="cls-5" d="M325.21,237.26a2.52,2.52,0,1,1-2.52-2.52,2.52,2.52,0,0,1,2.52,2.52"/><circle class="cls-6" cx="322.69" cy="237.26" r="2.52"/><path class="cls-5" d="M327.61,254.3a2.52,2.52,0,1,1-2.52-2.52,2.52,2.52,0,0,1,2.52,2.52"/><circle class="cls-6" cx="325.09" cy="254.3" r="2.52"/><path class="cls-5" d="M330,219.74a2.52,2.52,0,1,1-2.52-2.52,2.52,2.52,0,0,1,2.52,2.52"/><circle class="cls-6" cx="327.49" cy="219.74" r="2.52"/><path class="cls-5" d="M332.41,244.22a2.52,2.52,0,1,1-2.52-2.52,2.52,2.52,0,0,1,2.52,2.52"/><circle class="cls-6" cx="329.89" cy="244.22" r="2.52"/><path class="cls-5" d="M334.81,234.14a2.52,2.52,0,1,1-2.52-2.52,2.52,2.52,0,0,1,2.52,2.52"/><circle class="cls-6" cx="332.29" cy="234.14" r="2.52"/><path class="cls-5" d="M337.21,228.86a2.52,2.52,0,1,1-2.52-2.52,2.52,2.52,0,0,1,2.52,2.52"/><circle class="cls-6" cx="334.69" cy="228.86" r="2.52"/><path class="cls-5" d="M339.61,247.94a2.52,2.52,0,1,1-2.52-2.52,2.52,2.52,0,0,1,2.52,2.52"/><circle class="cls-6" cx="337.09" cy="247.94" r="2.52"/><path class="cls-5" d="M342,216.26a2.52,2.52,0,1,1-2.52-2.52,2.52,2.52,0,0,1,2.52,2.52"/><circle class="cls-6" cx="339.49" cy="216.26" r="2.52"/><path class="cls-5" d="M344.41,236.3a2.52,2.52,0,1,1-2.52-2.52,2.52,2.52,0,0,1,2.52,2.52"/><circle class="cls-6" cx="341.89" cy="236.3" r="2.52"/><path class="cls-5" d="M346.82,229.94a2.52,2.52,0,1,1-2.52-2.52,2.52,2.52,0,0,1,2.52,2.52"/><circle class="cls-6" cx="344.3" cy="229.94" r="2.52"/><path class="cls-5" d="M349.22,222.14a2.52,2.52,0,1,1-2.52-2.52,2.52,2.52,0,0,1,2.52,2.52"/><circle class="cls-6" cx="346.69" cy="222.14" r="2.52"/><path class="cls-5" d="M351.73,242.3a2.52,2.52,0,1,1-2.52-2.52,2.52,2.52,0,0,1,2.52,2.52"/><circle class="cls-6" cx="349.21" cy="242.3" r="2.52"/><path class="cls-5" d="M354.13,211.34a2.52,2.52,0,1,1-2.52-2.52,2.52,2.52,0,0,1,2.52,2.52"/><circle class="cls-6" cx="351.61" cy="211.34" r="2.52"/><path class="cls-5" d="M356.53,229.94a2.52,2.52,0,1,1-2.52-2.52,2.52,2.52,0,0,1,2.52,2.52"/><circle class="cls-6" cx="354.01" cy="229.94" r="2.52"/><path class="cls-5" d="M358.93,222.14a2.52,2.52,0,1,1-2.52-2.52,2.52,2.52,0,0,1,2.52,2.52"/><circle class="cls-6" cx="356.41" cy="222.14" r="2.52"/><path class="cls-5" d="M361.33,216.26a2.52,2.52,0,1,1-2.52-2.52,2.52,2.52,0,0,1,2.52,2.52"/><circle class="cls-6" cx="358.81" cy="216.26" r="2.52"/><path class="cls-5" d="M363.73,236.3a2.52,2.52,0,1,1-2.52-2.52,2.52,2.52,0,0,1,2.52,2.52"/><circle class="cls-6" cx="361.21" cy="236.3" r="2.52"/><path class="cls-5" d="M366.13,206.18a2.52,2.52,0,1,1-2.52-2.52,2.52,2.52,0,0,1,2.52,2.52"/><circle class="cls-6" cx="363.61" cy="206.18" r="2.52"/><path class="cls-5" d="M368.53,224.42A2.52,2.52,0,1,1,366,221.9a2.52,2.52,0,0,1,2.52,2.52"/><circle class="cls-6" cx="366.01" cy="224.42" r="2.52"/><path class="cls-5" d="M370.93,217.46a2.52,2.52,0,1,1-2.52-2.52,2.52,2.52,0,0,1,2.52,2.52"/><circle class="cls-6" cx="368.41" cy="217.46" r="2.52"/><path class="cls-5" d="M373.33,208.82a2.52,2.52,0,1,1-2.52-2.52,2.52,2.52,0,0,1,2.52,2.52"/><circle class="cls-6" cx="370.81" cy="208.82" r="2.52"/><path class="cls-5" d="M375.73,231a2.52,2.52,0,1,1-2.52-2.52,2.52,2.52,0,0,1,2.52,2.52"/><circle class="cls-6" cx="373.21" cy="231.02" r="2.52"/><path class="cls-5" d="M378.13,199.58a2.52,2.52,0,1,1-2.52-2.52,2.52,2.52,0,0,1,2.52,2.52"/><circle class="cls-6" cx="375.61" cy="199.58" r="2.52"/><path class="cls-5" d="M380.53,218.66a2.52,2.52,0,1,1-2.52-2.52,2.52,2.52,0,0,1,2.52,2.52"/><circle class="cls-6" cx="378.01" cy="218.66" r="2.52"/><path class="cls-5" d="M382.93,211.34a2.52,2.52,0,1,1-2.52-2.52,2.52,2.52,0,0,1,2.52,2.52"/><circle class="cls-6" cx="380.41" cy="211.34" r="2.52"/><path class="cls-5" d="M385.33,202.22a2.52,2.52,0,1,1-2.52-2.52,2.52,2.52,0,0,1,2.52,2.52"/><circle class="cls-6" cx="382.81" cy="202.22" r="2.52"/><path class="cls-5" d="M387.73,225.5a2.52,2.52,0,1,1-2.52-2.52,2.52,2.52,0,0,1,2.52,2.52"/><circle class="cls-6" cx="385.21" cy="225.5" r="2.52"/><path class="cls-5" d="M390.13,195.38a2.52,2.52,0,1,1-2.52-2.52,2.52,2.52,0,0,1,2.52,2.52"/><circle class="cls-6" cx="387.61" cy="195.38" r="2.52"/><path class="cls-5" d="M392.53,211.34a2.52,2.52,0,1,1-2.52-2.52,2.52,2.52,0,0,1,2.52,2.52"/><circle class="cls-6" cx="390.01" cy="211.34" r="2.52"/><path class="cls-5" d="M394.93,207.5a2.52,2.52,0,1,1-2.52-2.52,2.52,2.52,0,0,1,2.52,2.52"/><circle class="cls-6" cx="392.41" cy="207.5" r="2.52"/><path class="cls-5" d="M397.33,193.94a2.52,2.52,0,1,1-2.52-2.52,2.52,2.52,0,0,1,2.52,2.52"/><circle class="cls-6" cx="394.81" cy="193.94" r="2.52"/><path class="cls-5" d="M399.73,219.74a2.52,2.52,0,1,1-2.52-2.52,2.52,2.52,0,0,1,2.52,2.52"/><circle class="cls-6" cx="397.21" cy="219.74" r="2.52"/><path class="cls-5" d="M402.13,191.06a2.52,2.52,0,1,1-2.52-2.52,2.52,2.52,0,0,1,2.52,2.52"/><circle class="cls-6" cx="399.61" cy="191.06" r="2.52"/><path class="cls-5" d="M404.53,204.86a2.52,2.52,0,1,1-2.52-2.52,2.52,2.52,0,0,1,2.52,2.52"/><circle class="cls-6" cx="402.01" cy="204.86" r="2.52"/><path class="cls-5" d="M406.93,202.22a2.52,2.52,0,1,1-2.52-2.52,2.52,2.52,0,0,1,2.52,2.52"/><circle class="cls-6" cx="404.41" cy="202.22" r="2.52"/><path class="cls-5" d="M409.33,185.18a2.52,2.52,0,1,1-2.52-2.52,2.52,2.52,0,0,1,2.52,2.52"/><circle class="cls-6" cx="406.81" cy="185.18" r="2.52"/><path class="cls-5" d="M411.73,213.74a2.52,2.52,0,1,1-2.52-2.52,2.52,2.52,0,0,1,2.52,2.52"/><circle class="cls-6" cx="409.21" cy="213.74" r="2.52"/><path class="cls-5" d="M414.13,186.62a2.52,2.52,0,1,1-2.52-2.52,2.52,2.52,0,0,1,2.52,2.52"/><circle class="cls-6" cx="411.61" cy="186.62" r="2.52"/><path class="cls-5" d="M416.53,199.58a2.52,2.52,0,1,1-2.52-2.52,2.52,2.52,0,0,1,2.52,2.52"/><circle class="cls-6" cx="414.01" cy="199.58" r="2.52"/><path class="cls-5" d="M418.93,198.14a2.52,2.52,0,1,1-2.52-2.52,2.52,2.52,0,0,1,2.52,2.52"/><circle class="cls-6" cx="416.41" cy="198.14" r="2.52"/><path class="cls-5" d="M421.33,177.38a2.52,2.52,0,1,1-2.52-2.52,2.52,2.52,0,0,1,2.52,2.52"/><circle class="cls-6" cx="418.81" cy="177.38" r="2.52"/><path class="cls-5" d="M423.73,207.5a2.52,2.52,0,1,1-2.52-2.52,2.52,2.52,0,0,1,2.52,2.52"/><circle class="cls-6" cx="421.21" cy="207.5" r="2.52"/><path class="cls-5" d="M426.13,183.62a2.52,2.52,0,1,1-2.52-2.52,2.52,2.52,0,0,1,2.52,2.52"/><circle class="cls-6" cx="423.61" cy="183.62" r="2.52"/><path class="cls-5" d="M428.53,191.06a2.52,2.52,0,1,1-2.52-2.52,2.52,2.52,0,0,1,2.52,2.52"/><circle class="cls-6" cx="426.01" cy="191.06" r="2.52"/><path class="cls-5" d="M430.93,193.94a2.52,2.52,0,1,1-2.52-2.52,2.52,2.52,0,0,1,2.52,2.52"/><circle class="cls-6" cx="428.41" cy="193.94" r="2.52"/><path class="cls-5" d="M433.33,172.46a2.52,2.52,0,1,1-2.52-2.52,2.52,2.52,0,0,1,2.52,2.52"/><circle class="cls-6" cx="430.81" cy="172.46" r="2.52"/><path class="cls-5" d="M435.73,202.22a2.52,2.52,0,1,1-2.52-2.52,2.52,2.52,0,0,1,2.52,2.52"/><circle class="cls-6" cx="433.21" cy="202.22" r="2.52"/><path class="cls-5" d="M438.13,182.06a2.52,2.52,0,1,1-2.52-2.52,2.52,2.52,0,0,1,2.52,2.52"/><circle class="cls-6" cx="435.61" cy="182.06" r="2.52"/><path class="cls-5" d="M440.54,183.62A2.52,2.52,0,1,1,438,181.1a2.52,2.52,0,0,1,2.52,2.52"/><circle class="cls-6" cx="438.02" cy="183.62" r="2.52"/><path class="cls-5" d="M442.94,191.06a2.52,2.52,0,1,1-2.52-2.52,2.52,2.52,0,0,1,2.52,2.52"/><circle class="cls-6" cx="440.41" cy="191.06" r="2.52"/><path class="cls-5" d="M445.34,167.54a2.52,2.52,0,1,1-2.52-2.52,2.52,2.52,0,0,1,2.52,2.52"/><circle class="cls-6" cx="442.81" cy="167.54" r="2.52"/><path class="cls-5" d="M447.73,195.38a2.52,2.52,0,1,1-2.52-2.52,2.52,2.52,0,0,1,2.52,2.52"/><circle class="cls-6" cx="445.21" cy="195.38" r="2.52"/><path class="cls-5" d="M450.13,175.82a2.52,2.52,0,1,1-2.52-2.52,2.52,2.52,0,0,1,2.52,2.52"/><circle class="cls-6" cx="447.61" cy="175.82" r="2.52"/><path class="cls-5" d="M452.54,177.38a2.52,2.52,0,1,1-2.52-2.52,2.52,2.52,0,0,1,2.52,2.52"/><circle class="cls-6" cx="450.02" cy="177.38" r="2.52"/><path class="cls-5" d="M454.94,186.62a2.52,2.52,0,1,1-2.52-2.52,2.52,2.52,0,0,1,2.52,2.52"/><circle class="cls-6" cx="452.41" cy="186.62" r="2.52"/><path class="cls-5" d="M457.34,165.74a2.52,2.52,0,1,1-2.52-2.52,2.52,2.52,0,0,1,2.52,2.52"/><circle class="cls-6" cx="454.81" cy="165.74" r="2.52"/><path class="cls-5" d="M459.73,186.62a2.52,2.52,0,1,1-2.52-2.52,2.52,2.52,0,0,1,2.52,2.52"/><circle class="cls-6" cx="457.22" cy="186.62" r="2.52"/><path class="cls-5" d="M462.14,174.14a2.52,2.52,0,1,1-2.52-2.52,2.52,2.52,0,0,1,2.52,2.52"/><circle class="cls-6" cx="459.62" cy="174.14" r="2.52"/><path class="cls-5" d="M464.54,165.74a2.52,2.52,0,1,1-2.52-2.52,2.52,2.52,0,0,1,2.52,2.52"/><circle class="cls-6" cx="462.02" cy="165.74" r="2.52"/><path class="cls-5" d="M466.94,185.18a2.52,2.52,0,1,1-2.52-2.52,2.52,2.52,0,0,1,2.52,2.52"/><circle class="cls-6" cx="464.42" cy="185.18" r="2.52"/><path class="cls-5" d="M469.34,162.26a2.52,2.52,0,1,1-2.52-2.52,2.52,2.52,0,0,1,2.52,2.52"/><circle class="cls-6" cx="466.82" cy="162.26" r="2.52"/><path class="cls-5" d="M471.74,182.06a2.52,2.52,0,1,1-2.52-2.52,2.52,2.52,0,0,1,2.52,2.52"/><circle class="cls-6" cx="469.22" cy="182.06" r="2.52"/><path class="cls-5" d="M474.14,169.22a2.52,2.52,0,1,1-2.52-2.52,2.52,2.52,0,0,1,2.52,2.52"/><circle class="cls-6" cx="471.62" cy="169.22" r="2.52"/><path class="cls-5" d="M476.54,160.46a2.52,2.52,0,1,1-2.52-2.52,2.52,2.52,0,0,1,2.52,2.52"/><circle class="cls-6" cx="474.02" cy="160.46" r="2.52"/><path class="cls-5" d="M478.94,178.94a2.52,2.52,0,1,1-2.52-2.52,2.52,2.52,0,0,1,2.52,2.52"/><circle class="cls-6" cx="476.42" cy="178.94" r="2.52"/><path class="cls-5" d="M481.34,156.86a2.52,2.52,0,1,1-2.52-2.52,2.52,2.52,0,0,1,2.52,2.52"/><circle class="cls-6" cx="478.82" cy="156.86" r="2.52"/><path class="cls-5" d="M483.74,175.82a2.52,2.52,0,1,1-2.52-2.52,2.52,2.52,0,0,1,2.52,2.52"/><circle class="cls-6" cx="481.22" cy="175.82" r="2.52"/><path class="cls-5" d="M486.14,164.06a2.52,2.52,0,1,1-2.52-2.52,2.52,2.52,0,0,1,2.52,2.52"/><circle class="cls-6" cx="483.62" cy="164.06" r="2.52"/><path class="cls-5" d="M488.54,153.26a2.52,2.52,0,1,1-2.52-2.52,2.52,2.52,0,0,1,2.52,2.52"/><circle class="cls-6" cx="486.02" cy="153.26" r="2.52"/><path class="cls-5" d="M490.94,175.82a2.52,2.52,0,1,1-2.52-2.52,2.52,2.52,0,0,1,2.52,2.52"/><circle class="cls-6" cx="488.42" cy="175.82" r="2.52"/><path class="cls-5" d="M493.34,153.26a2.52,2.52,0,1,1-2.52-2.52,2.52,2.52,0,0,1,2.52,2.52"/><circle class="cls-6" cx="490.82" cy="153.26" r="2.52"/><path class="cls-5" d="M495.74,169.22a2.52,2.52,0,1,1-2.52-2.52,2.52,2.52,0,0,1,2.52,2.52"/><circle class="cls-6" cx="493.22" cy="169.22" r="2.52"/><path class="cls-5" d="M498.14,160.46a2.52,2.52,0,1,1-2.52-2.52,2.52,2.52,0,0,1,2.52,2.52"/><circle class="cls-6" cx="495.62" cy="160.46" r="2.52"/><path class="cls-5" d="M500.54,147.5A2.52,2.52,0,1,1,498,145a2.52,2.52,0,0,1,2.52,2.52"/><circle class="cls-6" cx="498.02" cy="147.5" r="2.52"/><path class="cls-5" d="M502.94,169.22a2.52,2.52,0,1,1-2.52-2.52,2.52,2.52,0,0,1,2.52,2.52"/><circle class="cls-6" cx="500.42" cy="169.22" r="2.52"/><path class="cls-5" d="M505.34,149.42a2.52,2.52,0,1,1-2.52-2.52,2.52,2.52,0,0,1,2.52,2.52"/><circle class="cls-6" cx="502.82" cy="149.42" r="2.52"/><path class="cls-5" d="M507.74,164.06a2.52,2.52,0,1,1-2.52-2.52,2.52,2.52,0,0,1,2.52,2.52"/><circle class="cls-6" cx="505.22" cy="164.06" r="2.52"/><path class="cls-5" d="M510.14,156.86a2.52,2.52,0,1,1-2.52-2.52,2.52,2.52,0,0,1,2.52,2.52"/><circle class="cls-6" cx="507.62" cy="156.86" r="2.52"/><path class="cls-5" d="M512.54,143.66a2.52,2.52,0,1,1-2.52-2.52,2.52,2.52,0,0,1,2.52,2.52"/><circle class="cls-6" cx="510.02" cy="143.66" r="2.52"/><path class="cls-5" d="M514.94,164.06a2.52,2.52,0,1,1-2.52-2.52,2.52,2.52,0,0,1,2.52,2.52"/><circle class="cls-6" cx="512.42" cy="164.06" r="2.52"/><path class="cls-5" d="M517.46,145.58a2.52,2.52,0,1,1-2.52-2.52,2.52,2.52,0,0,1,2.52,2.52"/><circle class="cls-6" cx="514.94" cy="145.58" r="2.52"/><path class="cls-5" d="M519.86,158.78a2.52,2.52,0,1,1-2.52-2.52,2.52,2.52,0,0,1,2.52,2.52"/><circle class="cls-6" cx="517.34" cy="158.78" r="2.52"/><path class="cls-5" d="M522.26,151.34a2.52,2.52,0,1,1-2.52-2.52,2.52,2.52,0,0,1,2.52,2.52"/><circle class="cls-6" cx="519.74" cy="151.34" r="2.52"/><path class="cls-5" d="M524.66,137.54a2.52,2.52,0,1,1-2.52-2.52,2.52,2.52,0,0,1,2.52,2.52"/><circle class="cls-6" cx="522.14" cy="137.54" r="2.52"/><path class="cls-5" d="M527.06,160.46a2.52,2.52,0,1,1-2.52-2.52,2.52,2.52,0,0,1,2.52,2.52"/><circle class="cls-6" cx="524.54" cy="160.46" r="2.52"/><path class="cls-5" d="M529.46,141.62a2.52,2.52,0,1,1-2.52-2.52,2.52,2.52,0,0,1,2.52,2.52"/><circle class="cls-6" cx="526.94" cy="141.62" r="2.52"/><path class="cls-5" d="M531.86,153.26a2.52,2.52,0,1,1-2.52-2.52,2.52,2.52,0,0,1,2.52,2.52"/><circle class="cls-6" cx="529.34" cy="153.26" r="2.52"/><path class="cls-5" d="M534.26,147.5a2.52,2.52,0,1,1-2.52-2.52,2.52,2.52,0,0,1,2.52,2.52"/><circle class="cls-6" cx="531.74" cy="147.5" r="2.52"/><path class="cls-5" d="M536.66,133.46a2.52,2.52,0,1,1-2.52-2.52,2.52,2.52,0,0,1,2.52,2.52"/><circle class="cls-6" cx="534.14" cy="133.46" r="2.52"/><path class="cls-5" d="M539.06,156.86a2.52,2.52,0,1,1-2.52-2.52,2.52,2.52,0,0,1,2.52,2.52"/><circle class="cls-6" cx="536.54" cy="156.86" r="2.52"/><path class="cls-5" d="M541.46,137.54a2.52,2.52,0,1,1-2.52-2.52,2.52,2.52,0,0,1,2.52,2.52"/><circle class="cls-6" cx="538.94" cy="137.54" r="2.52"/><path class="cls-5" d="M543.86,147.5a2.52,2.52,0,1,1-2.52-2.52,2.52,2.52,0,0,1,2.52,2.52"/><circle class="cls-6" cx="541.34" cy="147.5" r="2.52"/><path class="cls-5" d="M546.26,143.66a2.52,2.52,0,1,1-2.52-2.52,2.52,2.52,0,0,1,2.52,2.52"/><circle class="cls-6" cx="543.74" cy="143.66" r="2.52"/><path class="cls-5" d="M548.66,131.3a2.52,2.52,0,1,1-2.52-2.52,2.52,2.52,0,0,1,2.52,2.52"/><circle class="cls-6" cx="546.14" cy="131.3" r="2.52"/><path class="cls-5" d="M551.06,149.42a2.52,2.52,0,1,1-2.52-2.52,2.52,2.52,0,0,1,2.52,2.52"/><circle class="cls-6" cx="548.54" cy="149.42" r="2.52"/><path class="cls-5" d="M553.46,133.46a2.52,2.52,0,1,1-2.52-2.52,2.52,2.52,0,0,1,2.52,2.52"/><circle class="cls-6" cx="550.94" cy="133.46" r="2.52"/><path class="cls-5" d="M555.86,141.62a2.52,2.52,0,1,1-2.52-2.52,2.52,2.52,0,0,1,2.52,2.52"/><circle class="cls-6" cx="553.34" cy="141.62" r="2.52"/><path class="cls-5" d="M558.26,137.54a2.52,2.52,0,1,1-2.52-2.52,2.52,2.52,0,0,1,2.52,2.52"/><circle class="cls-6" cx="555.74" cy="137.54" r="2.52"/><path class="cls-5" d="M560.66,127a2.52,2.52,0,1,1-2.52-2.52,2.52,2.52,0,0,1,2.52,2.52"/><circle class="cls-6" cx="558.14" cy="126.98" r="2.52"/><path class="cls-5" d="M563.06,143.66a2.52,2.52,0,1,1-2.52-2.52,2.52,2.52,0,0,1,2.52,2.52"/><circle class="cls-6" cx="560.54" cy="143.66" r="2.52"/><path class="cls-5" d="M565.46,129.14a2.52,2.52,0,1,1-2.52-2.52,2.52,2.52,0,0,1,2.52,2.52"/><circle class="cls-6" cx="562.94" cy="129.14" r="2.52"/><path class="cls-5" d="M567.86,135.5a2.52,2.52,0,1,1-2.52-2.52,2.52,2.52,0,0,1,2.52,2.52"/><circle class="cls-6" cx="565.34" cy="135.5" r="2.52"/><path class="cls-5" d="M570.26,133.46a2.52,2.52,0,1,1-2.52-2.52,2.52,2.52,0,0,1,2.52,2.52"/><circle class="cls-6" cx="567.74" cy="133.46" r="2.52"/><path class="cls-5" d="M572.66,122.54a2.52,2.52,0,1,1-2.52-2.52,2.52,2.52,0,0,1,2.52,2.52"/><circle class="cls-6" cx="570.14" cy="122.54" r="2.52"/><path class="cls-5" d="M575.06,137.54a2.52,2.52,0,1,1-2.52-2.52,2.52,2.52,0,0,1,2.52,2.52"/><circle class="cls-6" cx="572.54" cy="137.54" r="2.52"/><path class="cls-5" d="M577.46,127a2.52,2.52,0,1,1-2.52-2.52,2.52,2.52,0,0,1,2.52,2.52"/><circle class="cls-6" cx="574.94" cy="126.98" r="2.52"/><path class="cls-5" d="M579.86,127a2.52,2.52,0,1,1-2.52-2.52,2.52,2.52,0,0,1,2.52,2.52"/><circle class="cls-6" cx="577.34" cy="126.98" r="2.52"/><path class="cls-5" d="M582.26,129.14a2.52,2.52,0,1,1-2.52-2.52,2.52,2.52,0,0,1,2.52,2.52"/><circle class="cls-6" cx="579.74" cy="129.14" r="2.52"/><path class="cls-5" d="M584.66,120.26a2.52,2.52,0,1,1-2.52-2.52,2.52,2.52,0,0,1,2.52,2.52"/><circle class="cls-6" cx="582.14" cy="120.26" r="2.52"/><path class="cls-5" d="M587.06,135.5a2.52,2.52,0,1,1-2.52-2.52,2.52,2.52,0,0,1,2.52,2.52"/><circle class="cls-6" cx="584.54" cy="135.5" r="2.52"/><path class="cls-5" d="M589.46,122.54a2.52,2.52,0,1,1-2.52-2.52,2.52,2.52,0,0,1,2.52,2.52"/><circle class="cls-6" cx="586.94" cy="122.54" r="2.52"/><path class="cls-5" d="M591.86,124.82a2.52,2.52,0,1,1-2.52-2.52,2.52,2.52,0,0,1,2.52,2.52"/><circle class="cls-6" cx="589.34" cy="124.82" r="2.52"/><path class="cls-5" d="M594.26,124.82a2.52,2.52,0,1,1-2.52-2.52,2.52,2.52,0,0,1,2.52,2.52"/><circle class="cls-6" cx="591.74" cy="124.82" r="2.52"/><path class="cls-5" d="M596.66,118a2.52,2.52,0,1,1-2.52-2.52,2.52,2.52,0,0,1,2.52,2.52"/><circle class="cls-6" cx="594.14" cy="117.98" r="2.52"/><path class="cls-5" d="M599.06,129.14a2.52,2.52,0,1,1-2.52-2.52,2.52,2.52,0,0,1,2.52,2.52"/><circle class="cls-6" cx="596.54" cy="129.14" r="2.52"/><path class="cls-5" d="M601.46,118a2.52,2.52,0,1,1-2.52-2.52,2.52,2.52,0,0,1,2.52,2.52"/><circle class="cls-6" cx="598.94" cy="117.98" r="2.52"/><path class="cls-5" d="M603.86,122.54a2.52,2.52,0,1,1-2.52-2.52,2.52,2.52,0,0,1,2.52,2.52"/><circle class="cls-6" cx="601.34" cy="122.54" r="2.52"/><path class="cls-5" d="M606.26,120.26a2.52,2.52,0,1,1-2.52-2.52,2.52,2.52,0,0,1,2.52,2.52"/><circle class="cls-6" cx="603.74" cy="120.26" r="2.52"/><path class="cls-5" d="M608.66,113.3a2.52,2.52,0,1,1-2.52-2.52,2.52,2.52,0,0,1,2.52,2.52"/><circle class="cls-6" cx="606.14" cy="113.3" r="2.52"/><path class="cls-5" d="M611.06,124.82a2.52,2.52,0,1,1-2.52-2.52,2.52,2.52,0,0,1,2.52,2.52"/><circle class="cls-6" cx="608.54" cy="124.82" r="2.52"/><path class="cls-5" d="M613.46,115.7a2.52,2.52,0,1,1-2.52-2.52,2.52,2.52,0,0,1,2.52,2.52"/><circle class="cls-6" cx="610.94" cy="115.7" r="2.52"/><path class="cls-5" d="M615.86,115.7a2.52,2.52,0,1,1-2.52-2.52,2.52,2.52,0,0,1,2.52,2.52"/><circle class="cls-6" cx="613.34" cy="115.7" r="2.52"/><path class="cls-5" d="M618.26,118a2.52,2.52,0,1,1-2.52-2.52,2.52,2.52,0,0,1,2.52,2.52"/><circle class="cls-6" cx="615.74" cy="117.98" r="2.52"/><path class="cls-5" d="M620.66,108.62a2.52,2.52,0,1,1-2.52-2.52,2.52,2.52,0,0,1,2.52,2.52"/><circle class="cls-6" cx="618.14" cy="108.62" r="2.52"/><path class="cls-5" d="M623.06,120.26a2.52,2.52,0,1,1-2.52-2.52,2.52,2.52,0,0,1,2.52,2.52"/><circle class="cls-6" cx="620.54" cy="120.26" r="2.52"/><path class="cls-5" d="M625.46,111a2.52,2.52,0,1,1-2.52-2.52,2.52,2.52,0,0,1,2.52,2.52"/><circle class="cls-6" cx="622.94" cy="111.02" r="2.52"/><path class="cls-5" d="M627.86,113.3a2.52,2.52,0,1,1-2.52-2.52,2.52,2.52,0,0,1,2.52,2.52"/><circle class="cls-6" cx="625.34" cy="113.3" r="2.52"/><path class="cls-5" d="M630.26,113.3a2.52,2.52,0,1,1-2.52-2.52,2.52,2.52,0,0,1,2.52,2.52"/><circle class="cls-6" cx="627.74" cy="113.3" r="2.52"/><path class="cls-5" d="M632.65,106.1a2.52,2.52,0,1,1-2.52-2.52,2.52,2.52,0,0,1,2.52,2.52"/><circle class="cls-6" cx="630.13" cy="106.1" r="2.52"/><path class="cls-5" d="M635.06,115.7a2.52,2.52,0,1,1-2.52-2.52,2.52,2.52,0,0,1,2.52,2.52"/><circle class="cls-6" cx="632.54" cy="115.7" r="2.52"/><path class="cls-5" d="M637.46,111a2.52,2.52,0,1,1-2.52-2.52,2.52,2.52,0,0,1,2.52,2.52"/><circle class="cls-6" cx="634.94" cy="111.02" r="2.52"/><path class="cls-5" d="M639.86,106.1a2.52,2.52,0,1,1-2.52-2.52,2.52,2.52,0,0,1,2.52,2.52"/><circle class="cls-6" cx="637.34" cy="106.1" r="2.52"/><path class="cls-5" d="M642.26,108.62a2.52,2.52,0,1,1-2.52-2.52,2.52,2.52,0,0,1,2.52,2.52"/><circle class="cls-6" cx="639.74" cy="108.62" r="2.52"/><path class="cls-5" d="M644.65,103.7a2.52,2.52,0,1,1-2.52-2.52,2.52,2.52,0,0,1,2.52,2.52"/><circle class="cls-6" cx="642.13" cy="103.7" r="2.52"/><path class="cls-5" d="M647.06,108.62a2.52,2.52,0,1,1-2.52-2.52,2.52,2.52,0,0,1,2.52,2.52"/><circle class="cls-6" cx="644.54" cy="108.62" r="2.52"/><path class="cls-5" d="M649.46,103.7a2.52,2.52,0,1,1-2.52-2.52,2.52,2.52,0,0,1,2.52,2.52"/><circle class="cls-6" cx="646.94" cy="103.7" r="2.52"/><path class="cls-5" d="M651.86,103.7a2.52,2.52,0,1,1-2.52-2.52,2.52,2.52,0,0,1,2.52,2.52"/><circle class="cls-6" cx="649.34" cy="103.7" r="2.52"/><path class="cls-5" d="M654.26,103.7a2.52,2.52,0,1,1-2.52-2.52,2.52,2.52,0,0,1,2.52,2.52"/><circle class="cls-6" cx="651.74" cy="103.7" r="2.52"/><path class="cls-5" d="M656.65,101.18a2.52,2.52,0,1,1-2.52-2.52,2.52,2.52,0,0,1,2.52,2.52"/><circle class="cls-6" cx="654.13" cy="101.18" r="2.52"/><path class="cls-5" d="M659.06,106.1a2.52,2.52,0,1,1-2.52-2.52,2.52,2.52,0,0,1,2.52,2.52"/><circle class="cls-6" cx="656.54" cy="106.1" r="2.52"/><path class="cls-5" d="M661.46,101.18a2.52,2.52,0,1,1-2.52-2.52,2.52,2.52,0,0,1,2.52,2.52"/><circle class="cls-6" cx="658.94" cy="101.18" r="2.52"/><path class="cls-5" d="M663.86,98.66a2.52,2.52,0,1,1-2.52-2.52,2.52,2.52,0,0,1,2.52,2.52"/><circle class="cls-6" cx="661.34" cy="98.66" r="2.52"/><path class="cls-5" d="M666.26,98.66a2.52,2.52,0,1,1-2.52-2.52,2.52,2.52,0,0,1,2.52,2.52"/><circle class="cls-6" cx="663.74" cy="98.66" r="2.52"/><path class="cls-5" d="M668.65,96a2.52,2.52,0,1,1-2.52-2.52A2.52,2.52,0,0,1,668.65,96"/><circle class="cls-6" cx="666.13" cy="96.02" r="2.52"/><path class="cls-5" d="M671.06,101.18a2.52,2.52,0,1,1-2.52-2.52,2.52,2.52,0,0,1,2.52,2.52"/><circle class="cls-6" cx="668.54" cy="101.18" r="2.52"/><path class="cls-5" d="M673.46,96a2.52,2.52,0,1,1-2.52-2.52A2.52,2.52,0,0,1,673.46,96"/><circle class="cls-6" cx="670.94" cy="96.02" r="2.52"/><path class="cls-5" d="M675.86,96a2.52,2.52,0,1,1-2.52-2.52A2.52,2.52,0,0,1,675.86,96"/><circle class="cls-6" cx="673.34" cy="96.02" r="2.52"/><path class="cls-5" d="M678.26,96a2.52,2.52,0,1,1-2.52-2.52A2.52,2.52,0,0,1,678.26,96"/><circle class="cls-6" cx="675.74" cy="96.02" r="2.52"/><path class="cls-5" d="M680.65,93.5A2.52,2.52,0,1,1,678.13,91a2.52,2.52,0,0,1,2.52,2.52"/><circle class="cls-6" cx="678.13" cy="93.5" r="2.52"/><path class="cls-5" d="M683.17,96a2.52,2.52,0,1,1-2.52-2.52A2.52,2.52,0,0,1,683.17,96"/><circle class="cls-6" cx="680.65" cy="96.02" r="2.52"/><path class="cls-5" d="M685.58,90.86a2.52,2.52,0,1,1-2.52-2.52,2.52,2.52,0,0,1,2.52,2.52"/><circle class="cls-6" cx="683.06" cy="90.86" r="2.52"/><path class="cls-5" d="M688,90.86a2.52,2.52,0,1,1-2.52-2.52A2.52,2.52,0,0,1,688,90.86"/><circle class="cls-6" cx="685.45" cy="90.86" r="2.52"/><path class="cls-5" d="M690.38,93.5A2.52,2.52,0,1,1,687.85,91a2.52,2.52,0,0,1,2.52,2.52"/><circle class="cls-6" cx="687.86" cy="93.5" r="2.52"/><path class="cls-5" d="M692.78,90.86a2.52,2.52,0,1,1-2.52-2.52,2.52,2.52,0,0,1,2.52,2.52"/><circle class="cls-6" cx="690.26" cy="90.86" r="2.52"/><path class="cls-5" d="M695.18,90.86a2.52,2.52,0,1,1-2.52-2.52,2.52,2.52,0,0,1,2.52,2.52"/><circle class="cls-6" cx="692.66" cy="90.86" r="2.52"/><path class="cls-5" d="M697.58,90.86a2.52,2.52,0,1,1-2.52-2.52,2.52,2.52,0,0,1,2.52,2.52"/><circle class="cls-6" cx="695.06" cy="90.86" r="2.52"/><path class="cls-5" d="M700,88.1a2.52,2.52,0,1,1-2.52-2.52A2.52,2.52,0,0,1,700,88.1"/><circle class="cls-6" cx="697.46" cy="88.1" r="2.52"/><path class="cls-5" d="M697.58,90.86a2.52,2.52,0,1,1-2.52-2.52,2.52,2.52,0,0,1,2.52,2.52"/><circle class="cls-6" cx="695.06" cy="90.86" r="2.52"/><path class="cls-5" d="M695.18,88.1a2.52,2.52,0,1,1-2.52-2.52,2.52,2.52,0,0,1,2.52,2.52"/><circle class="cls-6" cx="692.66" cy="88.1" r="2.52"/><path class="cls-5" d="M692.78,93.5A2.52,2.52,0,1,1,690.26,91a2.52,2.52,0,0,1,2.52,2.52"/><circle class="cls-6" cx="690.26" cy="93.5" r="2.52"/><path class="cls-5" d="M690.38,93.5A2.52,2.52,0,1,1,687.86,91a2.52,2.52,0,0,1,2.52,2.52"/><circle class="cls-6" cx="687.86" cy="93.5" r="2.52"/><path class="cls-5" d="M688,93.5A2.52,2.52,0,1,1,685.46,91,2.52,2.52,0,0,1,688,93.5"/><circle class="cls-6" cx="685.46" cy="93.5" r="2.52"/><path class="cls-5" d="M685.58,93.5A2.52,2.52,0,1,1,683.06,91a2.52,2.52,0,0,1,2.52,2.52"/><circle class="cls-6" cx="683.06" cy="93.5" r="2.52"/><path class="cls-5" d="M683.18,93.5A2.52,2.52,0,1,1,680.66,91a2.52,2.52,0,0,1,2.52,2.52"/><circle class="cls-6" cx="680.66" cy="93.5" r="2.52"/><path class="cls-5" d="M680.66,98.66a2.52,2.52,0,1,1-2.52-2.52,2.52,2.52,0,0,1,2.52,2.52"/><circle class="cls-6" cx="678.14" cy="98.66" r="2.52"/><path class="cls-5" d="M678.26,96a2.52,2.52,0,1,1-2.52-2.52A2.52,2.52,0,0,1,678.26,96"/><circle class="cls-6" cx="675.74" cy="96.02" r="2.52"/><path class="cls-5" d="M675.86,96a2.52,2.52,0,1,1-2.52-2.52A2.52,2.52,0,0,1,675.86,96"/><circle class="cls-6" cx="673.34" cy="96.02" r="2.52"/><path class="cls-5" d="M673.46,98.66a2.52,2.52,0,1,1-2.52-2.52,2.52,2.52,0,0,1,2.52,2.52"/><circle class="cls-6" cx="670.94" cy="98.66" r="2.52"/><path class="cls-5" d="M671.06,96a2.52,2.52,0,1,1-2.52-2.52A2.52,2.52,0,0,1,671.06,96"/><circle class="cls-6" cx="668.54" cy="96.02" r="2.52"/><path class="cls-5" d="M668.66,103.7a2.52,2.52,0,1,1-2.52-2.52,2.52,2.52,0,0,1,2.52,2.52"/><circle class="cls-6" cx="666.14" cy="103.7" r="2.52"/><path class="cls-5" d="M666.26,101.18a2.52,2.52,0,1,1-2.52-2.52,2.52,2.52,0,0,1,2.52,2.52"/><circle class="cls-6" cx="663.74" cy="101.18" r="2.52"/><path class="cls-5" d="M663.86,98.66a2.52,2.52,0,1,1-2.52-2.52,2.52,2.52,0,0,1,2.52,2.52"/><circle class="cls-6" cx="661.34" cy="98.66" r="2.52"/><path class="cls-5" d="M661.46,106.1a2.52,2.52,0,1,1-2.52-2.52,2.52,2.52,0,0,1,2.52,2.52"/><circle class="cls-6" cx="658.94" cy="106.1" r="2.52"/><path class="cls-5" d="M659.06,101.18a2.52,2.52,0,1,1-2.52-2.52,2.52,2.52,0,0,1,2.52,2.52"/><circle class="cls-6" cx="656.54" cy="101.18" r="2.52"/><path class="cls-5" d="M656.66,111a2.52,2.52,0,1,1-2.52-2.52,2.52,2.52,0,0,1,2.52,2.52"/><circle class="cls-6" cx="654.14" cy="111.02" r="2.52"/><path class="cls-5" d="M654.26,106.1a2.52,2.52,0,1,1-2.52-2.52,2.52,2.52,0,0,1,2.52,2.52"/><circle class="cls-6" cx="651.74" cy="106.1" r="2.52"/><path class="cls-5" d="M651.86,103.7a2.52,2.52,0,1,1-2.52-2.52,2.52,2.52,0,0,1,2.52,2.52"/><circle class="cls-6" cx="649.34" cy="103.7" r="2.52"/><path class="cls-5" d="M649.46,111a2.52,2.52,0,1,1-2.52-2.52,2.52,2.52,0,0,1,2.52,2.52"/><circle class="cls-6" cx="646.94" cy="111.02" r="2.52"/><path class="cls-5" d="M647.06,106.1a2.52,2.52,0,1,1-2.52-2.52,2.52,2.52,0,0,1,2.52,2.52"/><circle class="cls-6" cx="644.54" cy="106.1" r="2.52"/><path class="cls-5" d="M644.66,115.7a2.52,2.52,0,1,1-2.52-2.52,2.52,2.52,0,0,1,2.52,2.52"/><circle class="cls-6" cx="642.14" cy="115.7" r="2.52"/><path class="cls-5" d="M642.26,111a2.52,2.52,0,1,1-2.52-2.52,2.52,2.52,0,0,1,2.52,2.52"/><circle class="cls-6" cx="639.74" cy="111.02" r="2.52"/><path class="cls-5" d="M639.86,108.62a2.52,2.52,0,1,1-2.52-2.52,2.52,2.52,0,0,1,2.52,2.52"/><circle class="cls-6" cx="637.34" cy="108.62" r="2.52"/><path class="cls-5" d="M637.46,115.7a2.52,2.52,0,1,1-2.52-2.52,2.52,2.52,0,0,1,2.52,2.52"/><circle class="cls-6" cx="634.94" cy="115.7" r="2.52"/><path class="cls-5" d="M635.06,111a2.52,2.52,0,1,1-2.52-2.52,2.52,2.52,0,0,1,2.52,2.52"/><circle class="cls-6" cx="632.54" cy="111.02" r="2.52"/><path class="cls-5" d="M632.66,122.54a2.52,2.52,0,1,1-2.52-2.52,2.52,2.52,0,0,1,2.52,2.52"/><circle class="cls-6" cx="630.14" cy="122.54" r="2.52"/><path class="cls-5" d="M630.26,115.7a2.52,2.52,0,1,1-2.52-2.52,2.52,2.52,0,0,1,2.52,2.52"/><circle class="cls-6" cx="627.74" cy="115.7" r="2.52"/><path class="cls-5" d="M627.86,111a2.52,2.52,0,1,1-2.52-2.52,2.52,2.52,0,0,1,2.52,2.52"/><circle class="cls-6" cx="625.34" cy="111.02" r="2.52"/><path class="cls-5" d="M625.46,120.26a2.52,2.52,0,1,1-2.52-2.52,2.52,2.52,0,0,1,2.52,2.52"/><circle class="cls-6" cx="622.94" cy="120.26" r="2.52"/><path class="cls-5" d="M623.06,113.3a2.52,2.52,0,1,1-2.52-2.52,2.52,2.52,0,0,1,2.52,2.52"/><circle class="cls-6" cx="620.54" cy="113.3" r="2.52"/><path class="cls-5" d="M620.66,127a2.52,2.52,0,1,1-2.52-2.52,2.52,2.52,0,0,1,2.52,2.52"/><circle class="cls-6" cx="618.14" cy="126.98" r="2.52"/><path class="cls-5" d="M618.26,120.26a2.52,2.52,0,1,1-2.52-2.52,2.52,2.52,0,0,1,2.52,2.52"/><circle class="cls-6" cx="615.74" cy="120.26" r="2.52"/><path class="cls-5" d="M615.86,115.7a2.52,2.52,0,1,1-2.52-2.52,2.52,2.52,0,0,1,2.52,2.52"/><circle class="cls-6" cx="613.34" cy="115.7" r="2.52"/><path class="cls-5" d="M613.46,127a2.52,2.52,0,1,1-2.52-2.52,2.52,2.52,0,0,1,2.52,2.52"/><circle class="cls-6" cx="610.94" cy="126.98" r="2.52"/><path class="cls-5" d="M611.06,118a2.52,2.52,0,1,1-2.52-2.52,2.52,2.52,0,0,1,2.52,2.52"/><circle class="cls-6" cx="608.54" cy="117.98" r="2.52"/><path class="cls-5" d="M608.66,131.3a2.52,2.52,0,1,1-2.52-2.52,2.52,2.52,0,0,1,2.52,2.52"/><circle class="cls-6" cx="606.14" cy="131.3" r="2.52"/><path class="cls-5" d="M606.26,124.82a2.52,2.52,0,1,1-2.52-2.52,2.52,2.52,0,0,1,2.52,2.52"/><circle class="cls-6" cx="603.74" cy="124.82" r="2.52"/><path class="cls-5" d="M603.86,118a2.52,2.52,0,1,1-2.52-2.52,2.52,2.52,0,0,1,2.52,2.52"/><circle class="cls-6" cx="601.34" cy="117.98" r="2.52"/><path class="cls-5" d="M601.46,131.3a2.52,2.52,0,1,1-2.52-2.52,2.52,2.52,0,0,1,2.52,2.52"/><circle class="cls-6" cx="598.94" cy="131.3" r="2.52"/><path class="cls-5" d="M599.06,122.54a2.52,2.52,0,1,1-2.52-2.52,2.52,2.52,0,0,1,2.52,2.52"/><circle class="cls-6" cx="596.54" cy="122.54" r="2.52"/><path class="cls-5" d="M596.66,137.54a2.52,2.52,0,1,1-2.52-2.52,2.52,2.52,0,0,1,2.52,2.52"/><circle class="cls-6" cx="594.14" cy="137.54" r="2.52"/><path class="cls-5" d="M594.26,129.14a2.52,2.52,0,1,1-2.52-2.52,2.52,2.52,0,0,1,2.52,2.52"/><circle class="cls-6" cx="591.74" cy="129.14" r="2.52"/><path class="cls-5" d="M591.86,122.54a2.52,2.52,0,1,1-2.52-2.52,2.52,2.52,0,0,1,2.52,2.52"/><circle class="cls-6" cx="589.34" cy="122.54" r="2.52"/><path class="cls-5" d="M589.46,135.5a2.52,2.52,0,1,1-2.52-2.52,2.52,2.52,0,0,1,2.52,2.52"/><circle class="cls-6" cx="586.94" cy="135.5" r="2.52"/><path class="cls-5" d="M587.06,127a2.52,2.52,0,1,1-2.52-2.52,2.52,2.52,0,0,1,2.52,2.52"/><circle class="cls-6" cx="584.54" cy="126.98" r="2.52"/><path class="cls-5" d="M584.66,141.62a2.52,2.52,0,1,1-2.52-2.52,2.52,2.52,0,0,1,2.52,2.52"/><circle class="cls-6" cx="582.14" cy="141.62" r="2.52"/><path class="cls-5" d="M582.26,133.46a2.52,2.52,0,1,1-2.52-2.52,2.52,2.52,0,0,1,2.52,2.52"/><circle class="cls-6" cx="579.74" cy="133.46" r="2.52"/><path class="cls-5" d="M579.86,127a2.52,2.52,0,1,1-2.52-2.52,2.52,2.52,0,0,1,2.52,2.52"/><circle class="cls-6" cx="577.34" cy="126.98" r="2.52"/><path class="cls-5" d="M577.46,141.62a2.52,2.52,0,1,1-2.52-2.52,2.52,2.52,0,0,1,2.52,2.52"/><circle class="cls-6" cx="574.94" cy="141.62" r="2.52"/><path class="cls-5" d="M575.06,131.3a2.52,2.52,0,1,1-2.52-2.52,2.52,2.52,0,0,1,2.52,2.52"/><circle class="cls-6" cx="572.54" cy="131.3" r="2.52"/><path class="cls-5" d="M572.66,143.66a2.52,2.52,0,1,1-2.52-2.52,2.52,2.52,0,0,1,2.52,2.52"/><circle class="cls-6" cx="570.14" cy="143.66" r="2.52"/><path class="cls-5" d="M570.26,137.54a2.52,2.52,0,1,1-2.52-2.52,2.52,2.52,0,0,1,2.52,2.52"/><circle class="cls-6" cx="567.74" cy="137.54" r="2.52"/><path class="cls-5" d="M567.86,131.3a2.52,2.52,0,1,1-2.52-2.52,2.52,2.52,0,0,1,2.52,2.52"/><circle class="cls-6" cx="565.34" cy="131.3" r="2.52"/><path class="cls-5" d="M565.46,147.5a2.52,2.52,0,1,1-2.52-2.52,2.52,2.52,0,0,1,2.52,2.52"/><circle class="cls-6" cx="562.94" cy="147.5" r="2.52"/><path class="cls-5" d="M563.06,135.5a2.52,2.52,0,1,1-2.52-2.52,2.52,2.52,0,0,1,2.52,2.52"/><circle class="cls-6" cx="560.54" cy="135.5" r="2.52"/><path class="cls-5" d="M560.66,147.5a2.52,2.52,0,1,1-2.52-2.52,2.52,2.52,0,0,1,2.52,2.52"/><circle class="cls-6" cx="558.14" cy="147.5" r="2.52"/><path class="cls-5" d="M558.26,143.66a2.52,2.52,0,1,1-2.52-2.52,2.52,2.52,0,0,1,2.52,2.52"/><circle class="cls-6" cx="555.74" cy="143.66" r="2.52"/><path class="cls-5" d="M555.86,135.5a2.52,2.52,0,1,1-2.52-2.52,2.52,2.52,0,0,1,2.52,2.52"/><circle class="cls-6" cx="553.34" cy="135.5" r="2.52"/><path class="cls-5" d="M553.46,155.06a2.52,2.52,0,1,1-2.52-2.52,2.52,2.52,0,0,1,2.52,2.52"/><circle class="cls-6" cx="550.94" cy="155.06" r="2.52"/><path class="cls-5" d="M551.06,141.62a2.52,2.52,0,1,1-2.52-2.52,2.52,2.52,0,0,1,2.52,2.52"/><circle class="cls-6" cx="548.54" cy="141.62" r="2.52"/><path class="cls-5" d="M548.66,151.34a2.52,2.52,0,1,1-2.52-2.52,2.52,2.52,0,0,1,2.52,2.52"/><circle class="cls-6" cx="546.14" cy="151.34" r="2.52"/><path class="cls-5" d="M546.26,149.42a2.52,2.52,0,1,1-2.52-2.52,2.52,2.52,0,0,1,2.52,2.52"/><circle class="cls-6" cx="543.74" cy="149.42" r="2.52"/><path class="cls-5" d="M543.86,137.54a2.52,2.52,0,1,1-2.52-2.52,2.52,2.52,0,0,1,2.52,2.52"/><circle class="cls-6" cx="541.34" cy="137.54" r="2.52"/><path class="cls-5" d="M541.46,162.26a2.52,2.52,0,1,1-2.52-2.52,2.52,2.52,0,0,1,2.52,2.52"/><circle class="cls-6" cx="538.94" cy="162.26" r="2.52"/><path class="cls-5" d="M539.06,145.58a2.52,2.52,0,1,1-2.52-2.52,2.52,2.52,0,0,1,2.52,2.52"/><circle class="cls-6" cx="536.54" cy="145.58" r="2.52"/><path class="cls-5" d="M536.66,155.06a2.52,2.52,0,1,1-2.52-2.52,2.52,2.52,0,0,1,2.52,2.52"/><circle class="cls-6" cx="534.14" cy="155.06" r="2.52"/><path class="cls-5" d="M534.26,153.26a2.52,2.52,0,1,1-2.52-2.52,2.52,2.52,0,0,1,2.52,2.52"/><circle class="cls-6" cx="531.74" cy="153.26" r="2.52"/><path class="cls-5" d="M531.86,141.62a2.52,2.52,0,1,1-2.52-2.52,2.52,2.52,0,0,1,2.52,2.52"/><circle class="cls-6" cx="529.34" cy="141.62" r="2.52"/><path class="cls-5" d="M529.46,165.74a2.52,2.52,0,1,1-2.52-2.52,2.52,2.52,0,0,1,2.52,2.52"/><circle class="cls-6" cx="526.94" cy="165.74" r="2.52"/><path class="cls-5" d="M527.06,149.42a2.52,2.52,0,1,1-2.52-2.52,2.52,2.52,0,0,1,2.52,2.52"/><circle class="cls-6" cx="524.54" cy="149.42" r="2.52"/><path class="cls-5" d="M524.66,160.46a2.52,2.52,0,1,1-2.52-2.52,2.52,2.52,0,0,1,2.52,2.52"/><circle class="cls-6" cx="522.14" cy="160.46" r="2.52"/><path class="cls-5" d="M522.26,158.78a2.52,2.52,0,1,1-2.52-2.52,2.52,2.52,0,0,1,2.52,2.52"/><circle class="cls-6" cx="519.74" cy="158.78" r="2.52"/><path class="cls-5" d="M519.86,147.5a2.52,2.52,0,1,1-2.52-2.52,2.52,2.52,0,0,1,2.52,2.52"/><circle class="cls-6" cx="517.34" cy="147.5" r="2.52"/><path class="cls-5" d="M517.46,172.46a2.52,2.52,0,1,1-2.52-2.52,2.52,2.52,0,0,1,2.52,2.52"/><circle class="cls-6" cx="514.94" cy="172.46" r="2.52"/><path class="cls-5" d="M514.94,155.06a2.52,2.52,0,1,1-2.52-2.52,2.52,2.52,0,0,1,2.52,2.52"/><circle class="cls-6" cx="512.42" cy="155.06" r="2.52"/><path class="cls-5" d="M512.54,164.06a2.52,2.52,0,1,1-2.52-2.52,2.52,2.52,0,0,1,2.52,2.52"/><circle class="cls-6" cx="510.02" cy="164.06" r="2.52"/><path class="cls-5" d="M510.14,164.06a2.52,2.52,0,1,1-2.52-2.52,2.52,2.52,0,0,1,2.52,2.52"/><circle class="cls-6" cx="507.62" cy="164.06" r="2.52"/><path class="cls-5" d="M507.74,151.34a2.52,2.52,0,1,1-2.52-2.52,2.52,2.52,0,0,1,2.52,2.52"/><circle class="cls-6" cx="505.22" cy="151.34" r="2.52"/><path class="cls-5" d="M505.34,178.94a2.52,2.52,0,1,1-2.52-2.52,2.52,2.52,0,0,1,2.52,2.52"/><circle class="cls-6" cx="502.82" cy="178.94" r="2.52"/><path class="cls-5" d="M502.94,158.78a2.52,2.52,0,1,1-2.52-2.52,2.52,2.52,0,0,1,2.52,2.52"/><circle class="cls-6" cx="500.42" cy="158.78" r="2.52"/><path class="cls-5" d="M500.54,167.54A2.52,2.52,0,1,1,498,165a2.52,2.52,0,0,1,2.52,2.52"/><circle class="cls-6" cx="498.02" cy="167.54" r="2.52"/><path class="cls-5" d="M498.14,170.9a2.52,2.52,0,1,1-2.52-2.52,2.52,2.52,0,0,1,2.52,2.52"/><circle class="cls-6" cx="495.62" cy="170.9" r="2.52"/><path class="cls-5" d="M495.74,155.06a2.52,2.52,0,1,1-2.52-2.52,2.52,2.52,0,0,1,2.52,2.52"/><circle class="cls-6" cx="493.22" cy="155.06" r="2.52"/><path class="cls-5" d="M493.34,186.62a2.52,2.52,0,1,1-2.52-2.52,2.52,2.52,0,0,1,2.52,2.52"/><circle class="cls-6" cx="490.82" cy="186.62" r="2.52"/><path class="cls-5" d="M490.94,164.06a2.52,2.52,0,1,1-2.52-2.52,2.52,2.52,0,0,1,2.52,2.52"/><circle class="cls-6" cx="488.42" cy="164.06" r="2.52"/><path class="cls-5" d="M488.54,172.46a2.52,2.52,0,1,1-2.52-2.52,2.52,2.52,0,0,1,2.52,2.52"/><circle class="cls-6" cx="486.02" cy="172.46" r="2.52"/><path class="cls-5" d="M486.14,175.82a2.52,2.52,0,1,1-2.52-2.52,2.52,2.52,0,0,1,2.52,2.52"/><circle class="cls-6" cx="483.62" cy="175.82" r="2.52"/><path class="cls-5" d="M483.74,160.46a2.52,2.52,0,1,1-2.52-2.52,2.52,2.52,0,0,1,2.52,2.52"/><circle class="cls-6" cx="481.22" cy="160.46" r="2.52"/><path class="cls-5" d="M481.34,188.18a2.52,2.52,0,1,1-2.52-2.52,2.52,2.52,0,0,1,2.52,2.52"/><circle class="cls-6" cx="478.82" cy="188.18" r="2.52"/><path class="cls-5" d="M478.94,169.22a2.52,2.52,0,1,1-2.52-2.52,2.52,2.52,0,0,1,2.52,2.52"/><circle class="cls-6" cx="476.42" cy="169.22" r="2.52"/><path class="cls-5" d="M476.54,177.38a2.52,2.52,0,1,1-2.52-2.52,2.52,2.52,0,0,1,2.52,2.52"/><circle class="cls-6" cx="474.02" cy="177.38" r="2.52"/><path class="cls-5" d="M474.14,182.06a2.52,2.52,0,1,1-2.52-2.52,2.52,2.52,0,0,1,2.52,2.52"/><circle class="cls-6" cx="471.62" cy="182.06" r="2.52"/><path class="cls-5" d="M471.74,164.06a2.52,2.52,0,1,1-2.52-2.52,2.52,2.52,0,0,1,2.52,2.52"/><circle class="cls-6" cx="469.22" cy="164.06" r="2.52"/><path class="cls-5" d="M469.34,193.94a2.52,2.52,0,1,1-2.52-2.52,2.52,2.52,0,0,1,2.52,2.52"/><circle class="cls-6" cx="466.82" cy="193.94" r="2.52"/><path class="cls-5" d="M466.94,177.38a2.52,2.52,0,1,1-2.52-2.52,2.52,2.52,0,0,1,2.52,2.52"/><circle class="cls-6" cx="464.42" cy="177.38" r="2.52"/><path class="cls-5" d="M464.54,178.94a2.52,2.52,0,1,1-2.52-2.52,2.52,2.52,0,0,1,2.52,2.52"/><circle class="cls-6" cx="462.02" cy="178.94" r="2.52"/><path class="cls-5" d="M462.14,189.62a2.52,2.52,0,1,1-2.52-2.52,2.52,2.52,0,0,1,2.52,2.52"/><circle class="cls-6" cx="459.62" cy="189.62" r="2.52"/><path class="cls-5" d="M459.74,170.9a2.52,2.52,0,1,1-2.52-2.52,2.52,2.52,0,0,1,2.52,2.52"/><circle class="cls-6" cx="457.22" cy="170.9" r="2.52"/><path class="cls-5" d="M457.34,196.82a2.52,2.52,0,1,1-2.52-2.52,2.52,2.52,0,0,1,2.52,2.52"/><circle class="cls-6" cx="454.82" cy="196.82" r="2.52"/><path class="cls-5" d="M454.94,182.06a2.52,2.52,0,1,1-2.52-2.52,2.52,2.52,0,0,1,2.52,2.52"/><circle class="cls-6" cx="452.42" cy="182.06" r="2.52"/><path class="cls-5" d="M452.54,178.94a2.52,2.52,0,1,1-2.52-2.52,2.52,2.52,0,0,1,2.52,2.52"/><circle class="cls-6" cx="450.02" cy="178.94" r="2.52"/><path class="cls-5" d="M450.14,199.58a2.52,2.52,0,1,1-2.52-2.52,2.52,2.52,0,0,1,2.52,2.52"/><circle class="cls-6" cx="447.62" cy="199.58" r="2.52"/><path class="cls-5" d="M447.74,177.38a2.52,2.52,0,1,1-2.52-2.52,2.52,2.52,0,0,1,2.52,2.52"/><circle class="cls-6" cx="445.22" cy="177.38" r="2.52"/><path class="cls-5" d="M445.34,198.14a2.52,2.52,0,1,1-2.52-2.52,2.52,2.52,0,0,1,2.52,2.52"/><circle class="cls-6" cx="442.82" cy="198.14" r="2.52"/><path class="cls-5" d="M442.94,189.62a2.52,2.52,0,1,1-2.52-2.52,2.52,2.52,0,0,1,2.52,2.52"/><circle class="cls-6" cx="440.42" cy="189.62" r="2.52"/><path class="cls-5" d="M440.54,183.62A2.52,2.52,0,1,1,438,181.1a2.52,2.52,0,0,1,2.52,2.52"/><circle class="cls-6" cx="438.02" cy="183.62" r="2.52"/><path class="cls-5" d="M438.14,207.5a2.52,2.52,0,1,1-2.52-2.52,2.52,2.52,0,0,1,2.52,2.52"/><circle class="cls-6" cx="435.62" cy="207.5" r="2.52"/><path class="cls-5" d="M435.74,183.62a2.52,2.52,0,1,1-2.52-2.52,2.52,2.52,0,0,1,2.52,2.52"/><circle class="cls-6" cx="433.22" cy="183.62" r="2.52"/><path class="cls-5" d="M433.34,200.9a2.52,2.52,0,1,1-2.52-2.52,2.52,2.52,0,0,1,2.52,2.52"/><circle class="cls-6" cx="430.82" cy="200.9" r="2.52"/><path class="cls-5" d="M430.94,196.82a2.52,2.52,0,1,1-2.52-2.52,2.52,2.52,0,0,1,2.52,2.52"/><circle class="cls-6" cx="428.42" cy="196.82" r="2.52"/><path class="cls-5" d="M428.54,186.62A2.52,2.52,0,1,1,426,184.1a2.52,2.52,0,0,1,2.52,2.52"/><circle class="cls-6" cx="426.02" cy="186.62" r="2.52"/><path class="cls-5" d="M426.14,213.74a2.52,2.52,0,1,1-2.52-2.52,2.52,2.52,0,0,1,2.52,2.52"/><circle class="cls-6" cx="423.62" cy="213.74" r="2.52"/><path class="cls-5" d="M423.74,189.62a2.52,2.52,0,1,1-2.52-2.52,2.52,2.52,0,0,1,2.52,2.52"/><circle class="cls-6" cx="421.22" cy="189.62" r="2.52"/><path class="cls-5" d="M421.34,204.86a2.52,2.52,0,1,1-2.52-2.52,2.52,2.52,0,0,1,2.52,2.52"/><circle class="cls-6" cx="418.82" cy="204.86" r="2.52"/><path class="cls-5" d="M418.94,204.86a2.52,2.52,0,1,1-2.52-2.52,2.52,2.52,0,0,1,2.52,2.52"/><circle class="cls-6" cx="416.42" cy="204.86" r="2.52"/><path class="cls-5" d="M416.54,189.62A2.52,2.52,0,1,1,414,187.1a2.52,2.52,0,0,1,2.52,2.52"/><circle class="cls-6" cx="414.02" cy="189.62" r="2.52"/><path class="cls-5" d="M414.14,218.66a2.52,2.52,0,1,1-2.52-2.52,2.52,2.52,0,0,1,2.52,2.52"/><circle class="cls-6" cx="411.62" cy="218.66" r="2.52"/><path class="cls-5" d="M411.74,195.38a2.52,2.52,0,1,1-2.52-2.52,2.52,2.52,0,0,1,2.52,2.52"/><circle class="cls-6" cx="409.22" cy="195.38" r="2.52"/><path class="cls-5" d="M409.34,208.82a2.52,2.52,0,1,1-2.52-2.52,2.52,2.52,0,0,1,2.52,2.52"/><circle class="cls-6" cx="406.82" cy="208.82" r="2.52"/><path class="cls-5" d="M406.94,211.34a2.52,2.52,0,1,1-2.52-2.52,2.52,2.52,0,0,1,2.52,2.52"/><circle class="cls-6" cx="404.42" cy="211.34" r="2.52"/><path class="cls-5" d="M404.54,193.94a2.52,2.52,0,1,1-2.52-2.52,2.52,2.52,0,0,1,2.52,2.52"/><circle class="cls-6" cx="402.02" cy="193.94" r="2.52"/><path class="cls-5" d="M402.14,223.22a2.52,2.52,0,1,1-2.52-2.52,2.52,2.52,0,0,1,2.52,2.52"/><circle class="cls-6" cx="399.62" cy="223.22" r="2.52"/><path class="cls-5" d="M399.74,202.22a2.52,2.52,0,1,1-2.52-2.52,2.52,2.52,0,0,1,2.52,2.52"/><circle class="cls-6" cx="397.22" cy="202.22" r="2.52"/><path class="cls-5" d="M397.34,212.54a2.52,2.52,0,1,1-2.52-2.52,2.52,2.52,0,0,1,2.52,2.52"/><circle class="cls-6" cx="394.82" cy="212.54" r="2.52"/><path class="cls-5" d="M394.94,218.66a2.52,2.52,0,1,1-2.52-2.52,2.52,2.52,0,0,1,2.52,2.52"/><circle class="cls-6" cx="392.42" cy="218.66" r="2.52"/><path class="cls-5" d="M392.54,198.14a2.52,2.52,0,1,1-2.52-2.52,2.52,2.52,0,0,1,2.52,2.52"/><circle class="cls-6" cx="390.02" cy="198.14" r="2.52"/><path class="cls-5" d="M390.14,226.58a2.52,2.52,0,1,1-2.52-2.52,2.52,2.52,0,0,1,2.52,2.52"/><circle class="cls-6" cx="387.62" cy="226.58" r="2.52"/><path class="cls-5" d="M387.74,208.82a2.52,2.52,0,1,1-2.52-2.52,2.52,2.52,0,0,1,2.52,2.52"/><circle class="cls-6" cx="385.22" cy="208.82" r="2.52"/><path class="cls-5" d="M385.34,216.26a2.52,2.52,0,1,1-2.52-2.52,2.52,2.52,0,0,1,2.52,2.52"/><circle class="cls-6" cx="382.82" cy="216.26" r="2.52"/><path class="cls-5" d="M382.94,226.58a2.52,2.52,0,1,1-2.52-2.52,2.52,2.52,0,0,1,2.52,2.52"/><circle class="cls-6" cx="380.42" cy="226.58" r="2.52"/><path class="cls-5" d="M380.54,203.54A2.52,2.52,0,1,1,378,201a2.52,2.52,0,0,1,2.52,2.52"/><circle class="cls-6" cx="378.02" cy="203.54" r="2.52"/><path class="cls-5" d="M378.14,231a2.52,2.52,0,1,1-2.52-2.52,2.52,2.52,0,0,1,2.52,2.52"/><circle class="cls-6" cx="375.62" cy="231.02" r="2.52"/><path class="cls-5" d="M375.74,215.06a2.52,2.52,0,1,1-2.52-2.52,2.52,2.52,0,0,1,2.52,2.52"/><circle class="cls-6" cx="373.22" cy="215.06" r="2.52"/><path class="cls-5" d="M373.34,220.94a2.52,2.52,0,1,1-2.52-2.52,2.52,2.52,0,0,1,2.52,2.52"/><circle class="cls-6" cx="370.82" cy="220.94" r="2.52"/><path class="cls-5" d="M370.94,234.14a2.52,2.52,0,1,1-2.52-2.52,2.52,2.52,0,0,1,2.52,2.52"/><circle class="cls-6" cx="368.42" cy="234.14" r="2.52"/><path class="cls-5" d="M368.54,208.82A2.52,2.52,0,1,1,366,206.3a2.52,2.52,0,0,1,2.52,2.52"/><circle class="cls-6" cx="366.02" cy="208.82" r="2.52"/><path class="cls-5" d="M366.14,236.3a2.52,2.52,0,1,1-2.52-2.52,2.52,2.52,0,0,1,2.52,2.52"/><circle class="cls-6" cx="363.62" cy="236.3" r="2.52"/><path class="cls-5" d="M363.74,222.14a2.52,2.52,0,1,1-2.52-2.52,2.52,2.52,0,0,1,2.52,2.52"/><circle class="cls-6" cx="361.22" cy="222.14" r="2.52"/><path class="cls-5" d="M361.34,226.58a2.52,2.52,0,1,1-2.52-2.52,2.52,2.52,0,0,1,2.52,2.52"/><circle class="cls-6" cx="358.82" cy="226.58" r="2.52"/><path class="cls-5" d="M358.94,242.3a2.52,2.52,0,1,1-2.52-2.52,2.52,2.52,0,0,1,2.52,2.52"/><circle class="cls-6" cx="356.42" cy="242.3" r="2.52"/><path class="cls-5" d="M356.54,215.06a2.52,2.52,0,1,1-2.52-2.52,2.52,2.52,0,0,1,2.52,2.52"/><circle class="cls-6" cx="354.02" cy="215.06" r="2.52"/><path class="cls-5" d="M354.14,241.22a2.52,2.52,0,1,1-2.52-2.52,2.52,2.52,0,0,1,2.52,2.52"/><circle class="cls-6" cx="351.62" cy="241.22" r="2.52"/><path class="cls-5" d="M351.74,227.78a2.52,2.52,0,1,1-2.52-2.52,2.52,2.52,0,0,1,2.52,2.52"/><circle class="cls-6" cx="349.22" cy="227.78" r="2.52"/><path class="cls-5" d="M349.22,233.18a2.52,2.52,0,1,1-2.52-2.52,2.52,2.52,0,0,1,2.52,2.52"/><circle class="cls-6" cx="346.7" cy="233.18" r="2.52"/><path class="cls-5" d="M346.82,247.94a2.52,2.52,0,1,1-2.52-2.52,2.52,2.52,0,0,1,2.52,2.52"/><circle class="cls-6" cx="344.3" cy="247.94" r="2.52"/><path class="cls-5" d="M344.42,220.94a2.52,2.52,0,1,1-2.52-2.52,2.52,2.52,0,0,1,2.52,2.52"/><circle class="cls-6" cx="341.9" cy="220.94" r="2.52"/><path class="cls-5" d="M342,246a2.52,2.52,0,1,1-2.52-2.52A2.52,2.52,0,0,1,342,246"/><circle class="cls-6" cx="339.5" cy="246.02" r="2.52"/><path class="cls-5" d="M339.62,235.22a2.52,2.52,0,1,1-2.52-2.52,2.52,2.52,0,0,1,2.52,2.52"/><circle class="cls-6" cx="337.1" cy="235.22" r="2.52"/><path class="cls-5" d="M337.22,238.22a2.52,2.52,0,1,1-2.52-2.52,2.52,2.52,0,0,1,2.52,2.52"/><circle class="cls-6" cx="334.7" cy="238.22" r="2.52"/><path class="cls-5" d="M334.82,255.14a2.52,2.52,0,1,1-2.52-2.52,2.52,2.52,0,0,1,2.52,2.52"/><circle class="cls-6" cx="332.3" cy="255.14" r="2.52"/><path class="cls-5" d="M332.42,226.58a2.52,2.52,0,1,1-2.52-2.52,2.52,2.52,0,0,1,2.52,2.52"/><circle class="cls-6" cx="329.9" cy="226.58" r="2.52"/><path class="cls-5" d="M330,249.74a2.52,2.52,0,1,1-2.52-2.52,2.52,2.52,0,0,1,2.52,2.52"/><circle class="cls-6" cx="327.5" cy="249.74" r="2.52"/><path class="cls-5" d="M327.62,244.22a2.52,2.52,0,1,1-2.52-2.52,2.52,2.52,0,0,1,2.52,2.52"/><circle class="cls-6" cx="325.1" cy="244.22" r="2.52"/><path class="cls-5" d="M325.22,242.3a2.52,2.52,0,1,1-2.52-2.52,2.52,2.52,0,0,1,2.52,2.52"/><circle class="cls-6" cx="322.7" cy="242.3" r="2.52"/><path class="cls-5" d="M322.82,261.86a2.52,2.52,0,1,1-2.52-2.52,2.52,2.52,0,0,1,2.52,2.52"/><circle class="cls-6" cx="320.3" cy="261.86" r="2.52"/><path class="cls-5" d="M320.42,234.14a2.52,2.52,0,1,1-2.52-2.52,2.52,2.52,0,0,1,2.52,2.52"/><circle class="cls-6" cx="317.9" cy="234.14" r="2.52"/><path class="cls-5" d="M318,256a2.52,2.52,0,1,1-2.52-2.52A2.52,2.52,0,0,1,318,256"/><circle class="cls-6" cx="315.5" cy="255.98" r="2.52"/><path class="cls-5" d="M315.62,250.7a2.52,2.52,0,1,1-2.52-2.52,2.52,2.52,0,0,1,2.52,2.52"/><circle class="cls-6" cx="313.1" cy="250.7" r="2.52"/><path class="cls-5" d="M313.22,247.94a2.52,2.52,0,1,1-2.52-2.52,2.52,2.52,0,0,1,2.52,2.52"/><circle class="cls-6" cx="310.7" cy="247.94" r="2.52"/><path class="cls-5" d="M310.82,266.66a2.52,2.52,0,1,1-2.52-2.52,2.52,2.52,0,0,1,2.52,2.52"/><circle class="cls-6" cx="308.3" cy="266.66" r="2.52"/><path class="cls-5" d="M308.42,240.26a2.52,2.52,0,1,1-2.52-2.52,2.52,2.52,0,0,1,2.52,2.52"/><circle class="cls-6" cx="305.9" cy="240.26" r="2.52"/><path class="cls-5" d="M306,260.18a2.52,2.52,0,1,1-2.52-2.52,2.52,2.52,0,0,1,2.52,2.52"/><circle class="cls-6" cx="303.5" cy="260.18" r="2.52"/><path class="cls-5" d="M303.62,258.5A2.52,2.52,0,1,1,301.1,256a2.52,2.52,0,0,1,2.52,2.52"/><circle class="cls-6" cx="301.1" cy="258.5" r="2.52"/><path class="cls-5" d="M301.22,254.3a2.52,2.52,0,1,1-2.52-2.52,2.52,2.52,0,0,1,2.52,2.52"/><circle class="cls-6" cx="298.7" cy="254.3" r="2.52"/><path class="cls-5" d="M298.82,271.94a2.52,2.52,0,1,1-2.52-2.52,2.52,2.52,0,0,1,2.52,2.52"/><circle class="cls-6" cx="296.3" cy="271.94" r="2.52"/><path class="cls-5" d="M296.42,247a2.52,2.52,0,1,1-2.52-2.52,2.52,2.52,0,0,1,2.52,2.52"/><circle class="cls-6" cx="293.9" cy="246.98" r="2.52"/><path class="cls-5" d="M294,266.66a2.52,2.52,0,1,1-2.52-2.52,2.52,2.52,0,0,1,2.52,2.52"/><circle class="cls-6" cx="291.5" cy="266.66" r="2.52"/><path class="cls-5" d="M291.62,265.94a2.52,2.52,0,1,1-2.52-2.52,2.52,2.52,0,0,1,2.52,2.52"/><circle class="cls-6" cx="289.1" cy="265.94" r="2.52"/><path class="cls-5" d="M289.22,260.18a2.52,2.52,0,1,1-2.52-2.52,2.52,2.52,0,0,1,2.52,2.52"/><circle class="cls-6" cx="286.7" cy="260.18" r="2.52"/><path class="cls-5" d="M286.82,277.1a2.52,2.52,0,1,1-2.52-2.52,2.52,2.52,0,0,1,2.52,2.52"/><circle class="cls-6" cx="284.3" cy="277.1" r="2.52"/><path class="cls-5" d="M284.42,254.3a2.52,2.52,0,1,1-2.52-2.52,2.52,2.52,0,0,1,2.52,2.52"/><circle class="cls-6" cx="281.9" cy="254.3" r="2.52"/><path class="cls-5" d="M282,272.78a2.52,2.52,0,1,1-2.52-2.52,2.52,2.52,0,0,1,2.52,2.52"/><circle class="cls-6" cx="279.5" cy="272.78" r="2.52"/><path class="cls-5" d="M279.62,274.22a2.52,2.52,0,1,1-2.52-2.52,2.52,2.52,0,0,1,2.52,2.52"/><circle class="cls-6" cx="277.1" cy="274.22" r="2.52"/><path class="cls-5" d="M277.22,266.66a2.52,2.52,0,1,1-2.52-2.52,2.52,2.52,0,0,1,2.52,2.52"/><circle class="cls-6" cx="274.7" cy="266.66" r="2.52"/><path class="cls-5" d="M274.82,282.5A2.52,2.52,0,1,1,272.3,280a2.52,2.52,0,0,1,2.52,2.52"/><circle class="cls-6" cx="272.3" cy="282.5" r="2.52"/><path class="cls-5" d="M272.42,261a2.52,2.52,0,1,1-2.52-2.52,2.52,2.52,0,0,1,2.52,2.52"/><circle class="cls-6" cx="269.9" cy="261.02" r="2.52"/><path class="cls-5" d="M270,278.42a2.52,2.52,0,1,1-2.52-2.52,2.52,2.52,0,0,1,2.52,2.52"/><circle class="cls-6" cx="267.5" cy="278.42" r="2.52"/><path class="cls-5" d="M267.62,281.9a2.52,2.52,0,1,1-2.52-2.52,2.52,2.52,0,0,1,2.52,2.52"/><circle class="cls-6" cx="265.1" cy="281.9" r="2.52"/><path class="cls-5" d="M265.22,273.5A2.52,2.52,0,1,1,262.7,271a2.52,2.52,0,0,1,2.52,2.52"/><circle class="cls-6" cx="262.7" cy="273.5" r="2.52"/><path class="cls-5" d="M262.82,288.38a2.52,2.52,0,1,1-2.52-2.52,2.52,2.52,0,0,1,2.52,2.52"/><circle class="cls-6" cx="260.3" cy="288.38" r="2.52"/><path class="cls-5" d="M260.42,268.94a2.52,2.52,0,1,1-2.52-2.52,2.52,2.52,0,0,1,2.52,2.52"/><circle class="cls-6" cx="257.9" cy="268.94" r="2.52"/><path class="cls-5" d="M258,284.54A2.52,2.52,0,1,1,255.5,282a2.52,2.52,0,0,1,2.52,2.52"/><circle class="cls-6" cx="255.5" cy="284.54" r="2.52"/><path class="cls-5" d="M255.62,289.58a2.52,2.52,0,1,1-2.52-2.52,2.52,2.52,0,0,1,2.52,2.52"/><circle class="cls-6" cx="253.1" cy="289.58" r="2.52"/><path class="cls-5" d="M253.22,280.46a2.52,2.52,0,1,1-2.52-2.52,2.52,2.52,0,0,1,2.52,2.52"/><circle class="cls-6" cx="250.7" cy="280.46" r="2.52"/><path class="cls-5" d="M250.82,294.38a2.52,2.52,0,1,1-2.52-2.52,2.52,2.52,0,0,1,2.52,2.52"/><circle class="cls-6" cx="248.3" cy="294.38" r="2.52"/><path class="cls-5" d="M248.42,276.38a2.52,2.52,0,1,1-2.52-2.52,2.52,2.52,0,0,1,2.52,2.52"/><circle class="cls-6" cx="245.9" cy="276.38" r="2.52"/><path class="cls-5" d="M246,290.78a2.52,2.52,0,1,1-2.52-2.52,2.52,2.52,0,0,1,2.52,2.52"/><circle class="cls-6" cx="243.5" cy="290.78" r="2.52"/><path class="cls-5" d="M243.62,297.86a2.52,2.52,0,1,1-2.52-2.52,2.52,2.52,0,0,1,2.52,2.52"/><circle class="cls-6" cx="241.1" cy="297.86" r="2.52"/><path class="cls-5" d="M241.22,287.06a2.52,2.52,0,1,1-2.52-2.52,2.52,2.52,0,0,1,2.52,2.52"/><circle class="cls-6" cx="238.7" cy="287.06" r="2.52"/><path class="cls-5" d="M238.82,300.62a2.52,2.52,0,1,1-2.52-2.52,2.52,2.52,0,0,1,2.52,2.52"/><circle class="cls-6" cx="236.3" cy="300.62" r="2.52"/><path class="cls-5" d="M236.42,284.54A2.52,2.52,0,1,1,233.9,282a2.52,2.52,0,0,1,2.52,2.52"/><circle class="cls-6" cx="233.9" cy="284.54" r="2.52"/><path class="cls-5" d="M234,297.86a2.52,2.52,0,1,1-2.52-2.52,2.52,2.52,0,0,1,2.52,2.52"/><circle class="cls-6" cx="231.5" cy="297.86" r="2.52"/><path class="cls-5" d="M231.62,306.86a2.52,2.52,0,1,1-2.52-2.52,2.52,2.52,0,0,1,2.52,2.52"/><circle class="cls-6" cx="229.1" cy="306.86" r="2.52"/><path class="cls-5" d="M229.22,295a2.52,2.52,0,1,1-2.52-2.52,2.52,2.52,0,0,1,2.52,2.52"/><circle class="cls-6" cx="226.7" cy="294.98" r="2.52"/><path class="cls-5" d="M226.82,307.46a2.52,2.52,0,1,1-2.52-2.52,2.52,2.52,0,0,1,2.52,2.52"/><circle class="cls-6" cx="224.3" cy="307.46" r="2.52"/><path class="cls-5" d="M224.42,292a2.52,2.52,0,1,1-2.52-2.52,2.52,2.52,0,0,1,2.52,2.52"/><circle class="cls-6" cx="221.9" cy="291.98" r="2.52"/><path class="cls-5" d="M222,305.42a2.52,2.52,0,1,1-2.52-2.52,2.52,2.52,0,0,1,2.52,2.52"/><circle class="cls-6" cx="219.5" cy="305.42" r="2.52"/><path class="cls-5" d="M219.62,315.14a2.52,2.52,0,1,1-2.52-2.52,2.52,2.52,0,0,1,2.52,2.52"/><circle class="cls-6" cx="217.1" cy="315.14" r="2.52"/><path class="cls-5" d="M217.22,302.18a2.52,2.52,0,1,1-2.52-2.52,2.52,2.52,0,0,1,2.52,2.52"/><circle class="cls-6" cx="214.7" cy="302.18" r="2.52"/><path class="cls-5" d="M214.82,314.18a2.52,2.52,0,1,1-2.52-2.52,2.52,2.52,0,0,1,2.52,2.52"/><circle class="cls-6" cx="212.3" cy="314.18" r="2.52"/><path class="cls-5" d="M212.42,300a2.52,2.52,0,1,1-2.52-2.52,2.52,2.52,0,0,1,2.52,2.52"/><circle class="cls-6" cx="209.9" cy="300.02" r="2.52"/><path class="cls-5" d="M210,312.26a2.52,2.52,0,1,1-2.52-2.52,2.52,2.52,0,0,1,2.52,2.52"/><circle class="cls-6" cx="207.5" cy="312.26" r="2.52"/><path class="cls-5" d="M207.62,321.74a2.52,2.52,0,1,1-2.52-2.52,2.52,2.52,0,0,1,2.52,2.52"/><circle class="cls-6" cx="205.1" cy="321.74" r="2.52"/><path class="cls-5" d="M205.22,309.38a2.52,2.52,0,1,1-2.52-2.52,2.52,2.52,0,0,1,2.52,2.52"/><circle class="cls-6" cx="202.7" cy="309.38" r="2.52"/><path class="cls-5" d="M202.82,320.9a2.52,2.52,0,1,1-2.52-2.52,2.52,2.52,0,0,1,2.52,2.52"/><circle class="cls-6" cx="200.3" cy="320.9" r="2.52"/><path class="cls-5" d="M200.42,310.82a2.52,2.52,0,1,1-2.52-2.52,2.52,2.52,0,0,1,2.52,2.52"/><circle class="cls-6" cx="197.9" cy="310.82" r="2.52"/><path class="cls-5" d="M198,319.58a2.52,2.52,0,1,1-2.52-2.52,2.52,2.52,0,0,1,2.52,2.52"/><circle class="cls-6" cx="195.5" cy="319.58" r="2.52"/><path class="cls-5" d="M195.62,328.58a2.52,2.52,0,1,1-2.52-2.52,2.52,2.52,0,0,1,2.52,2.52"/><circle class="cls-6" cx="193.1" cy="328.58" r="2.52"/><path class="cls-5" d="M193.22,318.26a2.52,2.52,0,1,1-2.52-2.52,2.52,2.52,0,0,1,2.52,2.52"/><circle class="cls-6" cx="190.7" cy="318.26" r="2.52"/><path class="cls-5" d="M190.82,328.22a2.52,2.52,0,1,1-2.52-2.52,2.52,2.52,0,0,1,2.52,2.52"/><circle class="cls-6" cx="188.3" cy="328.22" r="2.52"/><path class="cls-5" d="M188.42,319.58a2.52,2.52,0,1,1-2.52-2.52,2.52,2.52,0,0,1,2.52,2.52"/><circle class="cls-6" cx="185.9" cy="319.58" r="2.52"/><path class="cls-5" d="M186,327.74a2.52,2.52,0,1,1-2.52-2.52,2.52,2.52,0,0,1,2.52,2.52"/><circle class="cls-6" cx="183.5" cy="327.74" r="2.52"/><path class="cls-5" d="M183.5,335.9a2.52,2.52,0,1,1-2.52-2.52,2.52,2.52,0,0,1,2.52,2.52"/><circle class="cls-6" cx="180.98" cy="335.9" r="2.52"/><path class="cls-5" d="M181.1,327a2.52,2.52,0,1,1-2.52-2.52A2.52,2.52,0,0,1,181.1,327"/><circle class="cls-6" cx="178.58" cy="327.02" r="2.52"/><path class="cls-5" d="M178.7,335.9a2.52,2.52,0,1,1-2.52-2.52,2.52,2.52,0,0,1,2.52,2.52"/><circle class="cls-6" cx="176.18" cy="335.9" r="2.52"/><path class="cls-5" d="M176.3,329.3a2.52,2.52,0,1,1-2.52-2.52,2.52,2.52,0,0,1,2.52,2.52"/><circle class="cls-6" cx="173.78" cy="329.3" r="2.52"/><path class="cls-5" d="M173.9,335.9a2.52,2.52,0,1,1-2.52-2.52,2.52,2.52,0,0,1,2.52,2.52"/><circle class="cls-6" cx="171.38" cy="335.9" r="2.52"/><path class="cls-5" d="M171.5,343.1a2.52,2.52,0,1,1-2.52-2.52,2.52,2.52,0,0,1,2.52,2.52"/><circle class="cls-6" cx="168.98" cy="343.1" r="2.52"/><path class="cls-5" d="M169.1,335.9a2.52,2.52,0,1,1-2.52-2.52,2.52,2.52,0,0,1,2.52,2.52"/><circle class="cls-6" cx="166.58" cy="335.9" r="2.52"/><path class="cls-5" d="M166.7,343.7a2.52,2.52,0,1,1-2.52-2.52,2.52,2.52,0,0,1,2.52,2.52"/><circle class="cls-6" cx="164.18" cy="343.7" r="2.52"/><path class="cls-5" d="M164.3,339.26a2.52,2.52,0,1,1-2.52-2.52,2.52,2.52,0,0,1,2.52,2.52"/><circle class="cls-6" cx="161.78" cy="339.26" r="2.52"/><path class="cls-5" d="M161.9,344.66a2.52,2.52,0,1,1-2.52-2.52,2.52,2.52,0,0,1,2.52,2.52"/><circle class="cls-6" cx="159.38" cy="344.66" r="2.52"/><path class="cls-5" d="M159.5,351A2.52,2.52,0,1,1,157,348.5,2.52,2.52,0,0,1,159.5,351"/><circle class="cls-6" cx="156.98" cy="351.02" r="2.52"/><path class="cls-5" d="M157.1,345.26a2.52,2.52,0,1,1-2.52-2.52,2.52,2.52,0,0,1,2.52,2.52"/><circle class="cls-6" cx="154.58" cy="345.26" r="2.52"/><path class="cls-5" d="M154.7,352.34a2.52,2.52,0,1,1-2.52-2.52,2.52,2.52,0,0,1,2.52,2.52"/><circle class="cls-6" cx="152.18" cy="352.34" r="2.52"/><path class="cls-5" d="M152.3,350.42a2.52,2.52,0,1,1-2.52-2.52,2.52,2.52,0,0,1,2.52,2.52"/><circle class="cls-6" cx="149.78" cy="350.42" r="2.52"/><path class="cls-5" d="M149.9,353.66a2.52,2.52,0,1,1-2.52-2.52,2.52,2.52,0,0,1,2.52,2.52"/><circle class="cls-6" cx="147.38" cy="353.66" r="2.52"/><path class="cls-5" d="M147.5,359.42A2.52,2.52,0,1,1,145,356.9a2.52,2.52,0,0,1,2.52,2.52"/><circle class="cls-6" cx="144.98" cy="359.42" r="2.52"/><path class="cls-5" d="M145.1,355a2.52,2.52,0,1,1-2.52-2.52A2.52,2.52,0,0,1,145.1,355"/><circle class="cls-6" cx="142.58" cy="354.98" r="2.52"/><path class="cls-5" d="M142.7,360.86a2.52,2.52,0,1,1-2.52-2.52,2.52,2.52,0,0,1,2.52,2.52"/><circle class="cls-6" cx="140.18" cy="360.86" r="2.52"/><path class="cls-5" d="M140.3,365.54a2.52,2.52,0,1,1-2.52-2.52,2.52,2.52,0,0,1,2.52,2.52"/><circle class="cls-6" cx="137.78" cy="365.54" r="2.52"/><path class="cls-5" d="M137.9,362.66a2.52,2.52,0,1,1-2.52-2.52,2.52,2.52,0,0,1,2.52,2.52"/><circle class="cls-6" cx="135.38" cy="362.66" r="2.52"/><path class="cls-5" d="M135.5,367.7a2.52,2.52,0,1,1-2.52-2.52,2.52,2.52,0,0,1,2.52,2.52"/><circle class="cls-6" cx="132.98" cy="367.7" r="2.52"/><path class="cls-5" d="M133.1,364.22a2.52,2.52,0,1,1-2.52-2.52,2.52,2.52,0,0,1,2.52,2.52"/><circle class="cls-6" cx="130.58" cy="364.22" r="2.52"/><path class="cls-5" d="M130.7,370.1a2.52,2.52,0,1,1-2.52-2.52,2.52,2.52,0,0,1,2.52,2.52"/><circle class="cls-6" cx="128.18" cy="370.1" r="2.52"/><path class="cls-5" d="M128.3,374.18a2.52,2.52,0,1,1-2.52-2.52,2.52,2.52,0,0,1,2.52,2.52"/><circle class="cls-6" cx="125.78" cy="374.18" r="2.52"/><path class="cls-5" d="M125.9,372.5a2.52,2.52,0,1,1-2.52-2.52,2.52,2.52,0,0,1,2.52,2.52"/><circle class="cls-6" cx="123.38" cy="372.5" r="2.52"/><path class="cls-5" d="M123.5,376.82A2.52,2.52,0,1,1,121,374.3a2.52,2.52,0,0,1,2.52,2.52"/><circle class="cls-6" cx="120.98" cy="376.82" r="2.52"/><path class="cls-5" d="M121.1,380.66a2.52,2.52,0,1,1-2.52-2.52,2.52,2.52,0,0,1,2.52,2.52"/><circle class="cls-6" cx="118.58" cy="380.66" r="2.52"/><path class="cls-5" d="M118.7,380.06a2.52,2.52,0,1,1-2.52-2.52,2.52,2.52,0,0,1,2.52,2.52"/><circle class="cls-6" cx="116.18" cy="380.06" r="2.52"/><path class="cls-5" d="M116.3,383.9a2.52,2.52,0,1,1-2.52-2.52,2.52,2.52,0,0,1,2.52,2.52"/><circle class="cls-6" cx="113.78" cy="383.9" r="2.52"/><path class="cls-5" d="M113.9,383.42a2.52,2.52,0,1,1-2.52-2.52,2.52,2.52,0,0,1,2.52,2.52"/><circle class="cls-6" cx="111.38" cy="383.42" r="2.52"/><path class="cls-5" d="M111.5,387.38a2.52,2.52,0,1,1-2.52-2.52,2.52,2.52,0,0,1,2.52,2.52"/><circle class="cls-6" cx="108.98" cy="387.38" r="2.52"/><path class="cls-5" d="M109.1,390.74a2.52,2.52,0,1,1-2.52-2.52,2.52,2.52,0,0,1,2.52,2.52"/><circle class="cls-6" cx="106.58" cy="390.74" r="2.52"/><path class="cls-5" d="M106.7,391.46a2.52,2.52,0,1,1-2.52-2.52,2.52,2.52,0,0,1,2.52,2.52"/><circle class="cls-6" cx="104.18" cy="391.46" r="2.52"/><path class="cls-5" d="M104.3,394.82a2.52,2.52,0,1,1-2.52-2.52,2.52,2.52,0,0,1,2.52,2.52"/><circle class="cls-6" cx="101.78" cy="394.82" r="2.52"/><path class="cls-5" d="M101.9,397.82a2.52,2.52,0,1,1-2.52-2.52,2.52,2.52,0,0,1,2.52,2.52"/><circle class="cls-6" cx="99.38" cy="397.82" r="2.52"/><path class="cls-5" d="M99.5,399.26A2.52,2.52,0,1,1,97,396.74a2.52,2.52,0,0,1,2.52,2.52"/><circle class="cls-6" cx="96.98" cy="399.26" r="2.52"/><path class="cls-5" d="M97.1,402.26a2.52,2.52,0,1,1-2.52-2.52,2.52,2.52,0,0,1,2.52,2.52"/><circle class="cls-6" cx="94.58" cy="402.26" r="2.52"/><path class="cls-5" d="M94.7,404.3a2.52,2.52,0,1,1-2.52-2.52,2.52,2.52,0,0,1,2.52,2.52"/><circle class="cls-6" cx="92.18" cy="404.3" r="2.52"/><path class="cls-5" d="M92.3,407.18a2.52,2.52,0,1,1-2.52-2.52,2.52,2.52,0,0,1,2.52,2.52"/><circle class="cls-6" cx="89.78" cy="407.18" r="2.52"/><path class="cls-5" d="M89.9,409.94a2.52,2.52,0,1,1-2.52-2.52,2.52,2.52,0,0,1,2.52,2.52"/><circle class="cls-6" cx="87.38" cy="409.94" r="2.52"/><g class="cls-7"><line class="cls-8" x1="87.37" y1="373.42" x2="697.41" y2="68.74"/></g><text class="cls-9" transform="translate(64.88 424.26)">0</text><text class="cls-10" transform="translate(32.97 370.29)">0<tspan class="cls-11" x="7.09" y="0">.</tspan><tspan x="10.67" y="0">000</tspan><tspan class="cls-12" x="31.94" y="0">1</tspan></text><text class="cls-10" transform="translate(32.97 316.32)">0<tspan class="cls-11" x="7.09" y="0">.</tspan><tspan x="10.67" y="0">000</tspan><tspan class="cls-12" x="31.94" y="0">2</tspan></text><text class="cls-10" transform="translate(32.97 262.35)">0<tspan class="cls-11" x="7.09" y="0">.</tspan><tspan x="10.67" y="0">000</tspan><tspan class="cls-12" x="31.94" y="0">3</tspan></text><text class="cls-10" transform="translate(32.97 208.38)">0<tspan class="cls-11" x="7.09" y="0">.</tspan><tspan x="10.67" y="0">000</tspan><tspan class="cls-12" x="31.94" y="0">4</tspan></text><text class="cls-10" transform="translate(32.97 154.41)">0<tspan class="cls-11" x="7.09" y="0">.</tspan><tspan x="10.67" y="0">000</tspan><tspan class="cls-12" x="31.94" y="0">5</tspan></text><text class="cls-10" transform="translate(32.97 100.44)">0<tspan class="cls-11" x="7.09" y="0">.</tspan><tspan x="10.67" y="0">000</tspan><tspan class="cls-12" x="31.94" y="0">6</tspan></text><text class="cls-10" transform="translate(32.97 46.47)">0<tspan class="cls-11" x="7.09" y="0">.</tspan><tspan x="10.67" y="0">000</tspan><tspan class="cls-12" x="31.94" y="0">7</tspan></text><text class="cls-13" transform="translate(67.55 442.48)">0<tspan class="cls-11" x="7.09" y="0">.</tspan><tspan class="cls-14" x="10.67" y="0">00</tspan><tspan class="cls-12" x="24.85" y="0">%</tspan></text><text class="cls-13" transform="translate(125.24 442.48)">10<tspan class="cls-11" x="14.18" y="0">.</tspan><tspan class="cls-14" x="17.76" y="0">00</tspan><tspan class="cls-12" x="31.94" y="0">%</tspan></text><text class="cls-10" transform="translate(186.48 442.48)">20<tspan class="cls-11" x="14.18" y="0">.</tspan><tspan x="17.76" y="0">00</tspan><tspan class="cls-12" x="31.94" y="0">%</tspan></text><text class="cls-10" transform="translate(247.72 442.48)">30<tspan class="cls-11" x="14.18" y="0">.</tspan><tspan x="17.76" y="0">00</tspan><tspan class="cls-12" x="31.94" y="0">%</tspan></text><text class="cls-13" transform="translate(308.97 442.48)">40<tspan class="cls-11" x="14.18" y="0">.</tspan><tspan class="cls-14" x="17.76" y="0">00</tspan><tspan class="cls-12" x="31.94" y="0">%</tspan></text><text class="cls-9" transform="translate(370.21 442.48)"><tspan class="cls-14">50</tspan><tspan class="cls-15" x="14.18" y="0">.</tspan><tspan class="cls-16" x="17.76" y="0">00</tspan><tspan x="31.94" y="0">%</tspan></text><text class="cls-13" transform="translate(431.45 442.48)">60<tspan class="cls-11" x="14.18" y="0">.</tspan><tspan x="17.76" y="0">00</tspan><tspan class="cls-17" x="31.94" y="0">%</tspan></text><text class="cls-13" transform="translate(492.69 442.48)">70<tspan class="cls-11" x="14.18" y="0">.</tspan><tspan x="17.76" y="0">00</tspan><tspan class="cls-17" x="31.94" y="0">%</tspan></text><text class="cls-13" transform="translate(553.94 442.48)">80<tspan class="cls-11" x="14.18" y="0">.</tspan><tspan x="17.76" y="0">00</tspan><tspan class="cls-17" x="31.94" y="0">%</tspan></text><text class="cls-13" transform="translate(615.18 442.48)">90<tspan class="cls-11" x="14.18" y="0">.</tspan><tspan x="17.76" y="0">00</tspan><tspan class="cls-17" x="31.94" y="0">%</tspan></text><text class="cls-9" transform="translate(672.87 442.48)"><tspan class="cls-16">100</tspan><tspan class="cls-18" x="21.26" y="0">.</tspan><tspan class="cls-16" x="24.86" y="0">00</tspan><tspan x="39.04" y="0">%</tspan></text><text class="cls-9" transform="translate(26.19 276.57) rotate(-90)"><tspan class="cls-16">1</tspan><tspan class="cls-19" x="7.09" y="0">/</tspan><tspan class="cls-20" x="12.5" y="0">R</tspan><tspan class="cls-19" x="19.94" y="0">e</tspan><tspan class="cls-21" x="26.91" y="0">s</tspan><tspan class="cls-22" x="32.43" y="0">i</tspan><tspan class="cls-23" x="35.66" y="0">s</tspan><tspan class="cls-24" x="41.07" y="0">t</tspan><tspan x="45.63" y="0">a</tspan><tspan class="cls-25" x="52.36" y="0">n</tspan><tspan class="cls-26" x="59.68" y="0">c</tspan><tspan class="cls-19" x="65.57" y="0">e</tspan><tspan class="cls-27" x="72.55" y="0"> </tspan><tspan class="cls-25" x="75.55" y="0">(</tspan><tspan class="cls-21" x="79.75" y="0">S</tspan><tspan x="86.23" y="0">)</tspan></text><text class="cls-9" transform="translate(349.33 462.55)"><tspan class="cls-28">LE</tspan><tspan x="12.73" y="0">D</tspan><tspan class="cls-25" x="21.37" y="0" xml:space="preserve"> b</tspan><tspan class="cls-22" x="31.81" y="0">ri</tspan><tspan class="cls-17" x="39.95" y="0">g</tspan><tspan class="cls-27" x="46.56" y="0">h</tspan><tspan class="cls-29" x="53.77" y="0">t</tspan><tspan class="cls-30" x="58.46" y="0">n</tspan><tspan class="cls-28" x="65.79" y="0">e</tspan><tspan class="cls-31" x="72.76" y="0">s</tspan><tspan x="78.27" y="0">s</tspan></text><text class="cls-32" transform="translate(275.59 23.12)">L<tspan class="cls-33" x="6.71" y="0">i</tspan><tspan x="10.42" y="0">n</tspan><tspan class="cls-34" x="18.81" y="0">e</tspan><tspan class="cls-35" x="26.73" y="0">a</tspan><tspan class="cls-36" x="34.41" y="0">r</tspan><tspan class="cls-37" x="39.94" y="0">it</tspan><tspan class="cls-38" x="49.04" y="0">y</tspan><tspan x="56.25" y="0"> </tspan><tspan class="cls-34" x="59.86" y="0">o</tspan><tspan class="cls-33" x="68.26" y="0">f</tspan><tspan class="cls-39" x="73.18" y="0" xml:space="preserve"> s</tspan><tspan class="cls-34" x="83.03" y="0">e</tspan><tspan class="cls-40" x="90.95" y="0">n</tspan><tspan x="99.36" y="0">s</tspan><tspan class="cls-34" x="105.6" y="0">o</tspan><tspan class="cls-41" x="114" y="0">r</tspan><tspan class="cls-42" x="119.53" y="0"> </tspan><tspan class="cls-43" x="123.36" y="0">r</tspan><tspan class="cls-44" x="128.66" y="0">e</tspan><tspan x="136.58" y="0">sp</tspan><tspan class="cls-38" x="151.21" y="0">o</tspan><tspan x="159.61" y="0">nse</tspan></text><g class="cls-45"><rect class="cls-3" x="0.38" y="0.38" width="732.54" height="478.45"/></g></svg>