<?xml version='1.0' encoding='UTF-8' standalone='no'?>
<!-- Created with Fritzing (http://www.fritzing.org/) -->
<svg xmlns:svg='http://www.w3.org/2000/svg' xmlns='http://www.w3.org/2000/svg' version='1.2' baseProfile='tiny' x='0in' y='0in' width='2.48544in' height='2.31459in' viewBox='0 0 178.952 166.65' >
<g partID='58130'><g transform='translate(132.696,78.8499)' ><g transform='matrix(0,1,-1,0,0,0)'  ><g xmlns="http://www.w3.org/2000/svg" id="schematic">
<line stroke-width="0.432002" y1="3.096" xmlns="http://www.w3.org/2000/svg" y2="0.216" class="other" stroke-linecap="round" x2="8.63003" stroke="#000000" x1="7.55002"/>
<line stroke-width="0.432002" y1="0.216" xmlns="http://www.w3.org/2000/svg" y2="5.976" class="other" stroke-linecap="round" x2="10.43" stroke="#000000" x1="8.63003"/>
<line stroke-width="0.432002" y1="5.976" xmlns="http://www.w3.org/2000/svg" y2="0.216" class="other" stroke-linecap="round" x2="12.23" stroke="#000000" x1="10.43"/>
<line stroke-width="0.432002" y1="0.216" xmlns="http://www.w3.org/2000/svg" y2="5.976" class="other" stroke-linecap="round" x2="14.03" stroke="#000000" x1="12.23"/>
<line stroke-width="0.432002" y1="5.976" xmlns="http://www.w3.org/2000/svg" y2="0.216" class="other" stroke-linecap="round" x2="15.8301" stroke="#000000" x1="14.03"/>
<line stroke-width="0.432002" y1="0.216" xmlns="http://www.w3.org/2000/svg" y2="5.976" class="other" stroke-linecap="round" x2="17.6301" stroke="#000000" x1="15.8301"/>
<line stroke-width="0.432002" y1="5.976" xmlns="http://www.w3.org/2000/svg" y2="0.216" class="other" stroke-linecap="round" x2="19.4301" stroke="#000000" x1="17.6301"/>
<line stroke-width="0.432002" y1="0.216" xmlns="http://www.w3.org/2000/svg" y2="5.976" class="other" stroke-linecap="round" x2="21.2301" stroke="#000000" x1="19.4301"/>
<line stroke-width="0.432002" y1="5.976" xmlns="http://www.w3.org/2000/svg" y2="3.096" class="other" stroke-linecap="round" x2="21.9501" stroke="#000000" x1="21.2301"/>
<line stroke-width="0.700001" y1="3.096" xmlns="http://www.w3.org/2000/svg" y2="3.096" class="pin" stroke-linecap="round" id="connector1pin" x2="21.9501" connectorname="2" stroke="#787878" x1="29.1502"/>
<g stroke-width="0" fill="none" xmlns="http://www.w3.org/2000/svg" class="terminal" y="3.096" height="0.000283465" x="29.1502" id="connector1terminal" width="0.000283466" stroke="none"/>
<text stroke-width="0" fill="#8c8c8c" text-anchor="middle" xmlns="http://www.w3.org/2000/svg" class="text" y="2.046" x="25.5501" font-size="2.50001" font-family="'Droid Sans'" stroke="none">2</text>
<line stroke-width="0.700001" y1="3.096" xmlns="http://www.w3.org/2000/svg" y2="3.096" class="pin" stroke-linecap="round" id="connector0pin" x2="7.55002" connectorname="1" stroke="#787878" x1="0.350001"/>
<g stroke-width="0" fill="none" xmlns="http://www.w3.org/2000/svg" class="terminal" y="3.096" height="0.000283465" x="0.350001" id="connector0terminal" width="0.000283466" stroke="none"/>
<text stroke-width="0" fill="#8c8c8c" text-anchor="middle" xmlns="http://www.w3.org/2000/svg" class="text" y="2.046" x="3.95001" font-size="2.50001" font-family="'Droid Sans'" stroke="none">1</text>
</g>
</g></g></g><g partID='57960'><g id="schematic">
<rect stroke-width="0.9" fill="#FFFFFF" class="interior rect" y="14.85" height="135.9" x="14.85" stroke-linecap="round" width="78.3" stroke="#000000"/>
<line stroke-width="0.699999" y1="28.8" fill="none" y2="28.8" class="pin" stroke-linecap="round" id="connector61pin" x2="107.65" stroke="#787878" x1="93.2499"/>
<text stroke-width="0" fill="#8c8c8c" text-anchor="end" class="text" y="29.4999" x="91.8499" font-size="3.49999" font-family="'Droid Sans'" stroke="none">D0/RX</text>
<g stroke-width="0" fill="none" class="terminal" y="28.4499" height="0.699999" x="107.65" id="connector61terminal" width="0.699999" stroke="none"/>
<line stroke-width="0.699999" y1="36" fill="none" y2="36" class="pin" stroke-linecap="round" id="connector62pin" x2="107.65" stroke="#787878" x1="93.2499"/>
<text stroke-width="0" fill="#8c8c8c" text-anchor="end" class="text" y="36.6999" x="91.8499" font-size="3.49999" font-family="'Droid Sans'" stroke="none">D1/TX</text>
<g stroke-width="0" fill="none" class="terminal" y="35.6499" height="0.699999" x="107.65" id="connector62terminal" width="0.699999" stroke="none"/>
<line stroke-width="0.699999" y1="43.2" fill="none" y2="43.2" class="pin" stroke-linecap="round" id="connector63pin" x2="107.65" stroke="#787878" x1="93.2499"/>
<text stroke-width="0" fill="#8c8c8c" text-anchor="end" class="text" y="43.8999" x="91.8499" font-size="3.49999" font-family="'Droid Sans'" stroke="none">D2</text>
<g stroke-width="0" fill="none" class="terminal" y="42.8499" height="0.699999" x="107.65" id="connector63terminal" width="0.699999" stroke="none"/>
<line stroke-width="0.699999" y1="50.4" fill="none" y2="50.4" class="pin" stroke-linecap="round" id="connector64pin" x2="107.65" stroke="#787878" x1="93.2499"/>
<text stroke-width="0" fill="#8c8c8c" text-anchor="end" class="text" y="51.0999" x="91.8499" font-size="3.49999" font-family="'Droid Sans'" stroke="none">D3 PWM</text>
<g stroke-width="0" fill="none" class="terminal" y="50.0499" height="0.699999" x="107.65" id="connector64terminal" width="0.699999" stroke="none"/>
<line stroke-width="0.699999" y1="57.6" fill="none" y2="57.6" class="pin" stroke-linecap="round" id="connector65pin" x2="107.65" stroke="#787878" x1="93.2499"/>
<text stroke-width="0" fill="#8c8c8c" text-anchor="end" class="text" y="58.2999" x="91.8499" font-size="3.49999" font-family="'Droid Sans'" stroke="none">D4</text>
<g stroke-width="0" fill="none" class="terminal" y="57.2499" height="0.699999" x="107.65" id="connector65terminal" width="0.699999" stroke="none"/>
<line stroke-width="0.699999" y1="64.8" fill="none" y2="64.8" class="pin" stroke-linecap="round" id="connector66pin" x2="107.65" stroke="#787878" x1="93.2499"/>
<text stroke-width="0" fill="#8c8c8c" text-anchor="end" class="text" y="65.4999" x="91.8499" font-size="3.49999" font-family="'Droid Sans'" stroke="none">D5 PWM</text>
<g stroke-width="0" fill="none" class="terminal" y="64.4499" height="0.699999" x="107.65" id="connector66terminal" width="0.699999" stroke="none"/>
<line stroke-width="0.699999" y1="72" fill="none" y2="72" class="pin" stroke-linecap="round" id="connector67pin" x2="107.65" stroke="#787878" x1="93.2499"/>
<text stroke-width="0" fill="#8c8c8c" text-anchor="end" class="text" y="72.6999" x="91.8499" font-size="3.49999" font-family="'Droid Sans'" stroke="none">D6 PWM</text>
<g stroke-width="0" fill="none" class="terminal" y="71.6499" height="0.699999" x="107.65" id="connector67terminal" width="0.699999" stroke="none"/>
<line stroke-width="0.699999" y1="79.2" fill="none" y2="79.2" class="pin" stroke-linecap="round" id="connector68pin" x2="107.65" stroke="#787878" x1="93.2499"/>
<text stroke-width="0" fill="#8c8c8c" text-anchor="end" class="text" y="79.8999" x="91.8499" font-size="3.49999" font-family="'Droid Sans'" stroke="none">D7</text>
<g stroke-width="0" fill="none" class="terminal" y="78.8499" height="0.699999" x="107.65" id="connector68terminal" width="0.699999" stroke="none"/>
<line stroke-width="0.699999" y1="86.4" fill="none" y2="86.4" class="pin" stroke-linecap="round" id="connector51pin" x2="107.65" stroke="#787878" x1="93.2499"/>
<text stroke-width="0" fill="#8c8c8c" text-anchor="end" class="text" y="87.0999" x="91.8499" font-size="3.49999" font-family="'Droid Sans'" stroke="none">D8</text>
<g stroke-width="0" fill="none" class="terminal" y="86.0499" height="0.699999" x="107.65" id="connector51terminal" width="0.699999" stroke="none"/>
<line stroke-width="0.699999" y1="93.6" fill="none" y2="93.6" class="pin" stroke-linecap="round" id="connector52pin" x2="107.65" stroke="#787878" x1="93.2499"/>
<text stroke-width="0" fill="#8c8c8c" text-anchor="end" class="text" y="94.2999" x="91.8499" font-size="3.49999" font-family="'Droid Sans'" stroke="none">D9 PWM</text>
<g stroke-width="0" fill="none" class="terminal" y="93.2499" height="0.699999" x="107.65" id="connector52terminal" width="0.699999" stroke="none"/>
<line stroke-width="0.699999" y1="100.8" fill="none" y2="100.8" class="pin" stroke-linecap="round" id="connector53pin" x2="107.65" stroke="#787878" x1="93.2499"/>
<text stroke-width="0" fill="#8c8c8c" text-anchor="end" class="text" y="101.5" x="91.8499" font-size="3.49999" font-family="'Droid Sans'" stroke="none">D10 PWM/SS</text>
<g stroke-width="0" fill="none" class="terminal" y="100.45" height="0.699999" x="107.65" id="connector53terminal" width="0.699999" stroke="none"/>
<line stroke-width="0.699999" y1="108" fill="none" y2="108" class="pin" stroke-linecap="round" id="connector54pin" x2="107.65" stroke="#787878" x1="93.2499"/>
<text stroke-width="0" fill="#8c8c8c" text-anchor="end" class="text" y="108.7" x="91.8499" font-size="3.49999" font-family="'Droid Sans'" stroke="none">D11 PWM/MOSI</text>
<g stroke-width="0" fill="none" class="terminal" y="107.65" height="0.699999" x="107.65" id="connector54terminal" width="0.699999" stroke="none"/>
<line stroke-width="0.699999" y1="115.2" fill="none" y2="115.2" class="pin" stroke-linecap="round" id="connector55pin" x2="107.65" stroke="#787878" x1="93.2499"/>
<text stroke-width="0" fill="#8c8c8c" text-anchor="end" class="text" y="115.9" x="91.8499" font-size="3.49999" font-family="'Droid Sans'" stroke="none">D12/MISO</text>
<g stroke-width="0" fill="none" class="terminal" y="114.85" height="0.699999" x="107.65" id="connector55terminal" width="0.699999" stroke="none"/>
<line stroke-width="0" y1="122.4" fill="none" y2="122.4" class="pin" stroke-linecap="round" id="connector41pin" x2="107.65" stroke="none" x1="93.2499"/>
<rect stroke-width="0" fill="none" class="terminal" y="122.05" height="0.699999" x="107.65" id="connector41terminal" width="0.699999" stroke="none"/>
<line stroke-width="0.699999" y1="122.4" fill="none" y2="122.4" class="pin" stroke-linecap="round" id="connector56pin" x2="107.65" stroke="#787878" x1="93.2499"/>
<text stroke-width="0" fill="#8c8c8c" text-anchor="end" class="text" y="123.1" x="91.8499" font-size="3.49999" font-family="'Droid Sans'" stroke="none">D13/SCK</text>
<g stroke-width="0" fill="none" class="terminal" y="122.05" height="0.699999" x="107.65" id="connector56terminal" width="0.699999" stroke="none"/>
<line stroke-width="0" y1="28.8" fill="none" y2="28.8" class="pin" stroke-linecap="round" id="connector43pin" x2="14.75" stroke="none" x1="0.349999"/>
<rect stroke-width="0" fill="none" class="terminal" y="28.4499" height="0.699999" x="-0.349999" id="connector43terminal" width="0.699999" stroke="none"/>
<line stroke-width="0.699999" y1="28.8" fill="none" y2="28.8" class="pin" stroke-linecap="round" id="connector85pin" x2="14.75" stroke="#787878" x1="0.349999"/>
<text stroke-width="0" fill="#8c8c8c" text-anchor="start" class="text" y="29.4999" x="16.15" font-size="3.49999" font-family="'Droid Sans'" stroke="none">RESET</text>
<g stroke-width="0" fill="none" class="terminal" y="28.4499" height="0.699999" x="-0.349999" id="connector85terminal" width="0.699999" stroke="none"/>
<line stroke-width="0.699999" y1="36" fill="none" y2="36" class="pin" stroke-linecap="round" id="connector49pin" x2="14.75" stroke="#787878" x1="0.349999"/>
<text stroke-width="0" fill="#8c8c8c" text-anchor="start" class="text" y="36.6999" x="16.15" font-size="3.49999" font-family="'Droid Sans'" stroke="none">RESET2</text>
<rect stroke-width="0" fill="none" class="terminal" y="35.6499" height="0.699999" x="-0.349999" id="connector49terminal" width="0.699999" stroke="none"/>
<line stroke-width="0.699999" y1="43.2" fill="none" y2="43.2" class="pin" stroke-linecap="round" id="connector58pin" x2="14.75" stroke="#787878" x1="0.349999"/>
<text stroke-width="0" fill="#8c8c8c" text-anchor="start" class="text" y="43.8999" x="16.15" font-size="3.49999" font-family="'Droid Sans'" stroke="none">AREF</text>
<g stroke-width="0" fill="none" class="terminal" y="42.8499" height="0.699999" x="-0.349999" id="connector58terminal" width="0.699999" stroke="none"/>
<line stroke-width="0.699999" y1="50.4" fill="none" y2="50.4" class="pin" stroke-linecap="round" id="connector84pin" x2="14.75" stroke="#787878" x1="0.349999"/>
<text stroke-width="0" fill="#8c8c8c" text-anchor="start" class="text" y="51.0999" x="16.15" font-size="3.49999" font-family="'Droid Sans'" stroke="none">ioref</text>
<g stroke-width="0" fill="none" class="terminal" y="50.0499" height="0.699999" x="-0.349999" id="connector84terminal" width="0.699999" stroke="none"/>
<line stroke-width="0.699999" y1="64.8" fill="none" y2="64.8" class="pin" stroke-linecap="round" id="connector0pin" x2="14.75" stroke="#787878" x1="0.349999"/>
<text stroke-width="0" fill="#8c8c8c" text-anchor="start" class="text" y="65.4999" x="16.15" font-size="3.49999" font-family="'Droid Sans'" stroke="none">A0</text>
<g stroke-width="0" fill="none" class="terminal" y="64.4499" height="0.699999" x="-0.349999" id="connector0terminal" width="0.699999" stroke="none"/>
<line stroke-width="0.699999" y1="72" fill="none" y2="72" class="pin" stroke-linecap="round" id="connector1pin" x2="14.75" stroke="#787878" x1="0.349999"/>
<text stroke-width="0" fill="#8c8c8c" text-anchor="start" class="text" y="72.6999" x="16.15" font-size="3.49999" font-family="'Droid Sans'" stroke="none">A1</text>
<g stroke-width="0" fill="none" class="terminal" y="71.6499" height="0.699999" x="-0.349999" id="connector1terminal" width="0.699999" stroke="none"/>
<line stroke-width="0.699999" y1="79.2" fill="none" y2="79.2" class="pin" stroke-linecap="round" id="connector2pin" x2="14.75" stroke="#787878" x1="0.349999"/>
<text stroke-width="0" fill="#8c8c8c" text-anchor="start" class="text" y="79.8999" x="16.15" font-size="3.49999" font-family="'Droid Sans'" stroke="none">A2</text>
<g stroke-width="0" fill="none" class="terminal" y="78.8499" height="0.699999" x="-0.349999" id="connector2terminal" width="0.699999" stroke="none"/>
<line stroke-width="0.699999" y1="86.4" fill="none" y2="86.4" class="pin" stroke-linecap="round" id="connector3pin" x2="14.75" stroke="#787878" x1="0.349999"/>
<text stroke-width="0" fill="#8c8c8c" text-anchor="start" class="text" y="87.0999" x="16.15" font-size="3.49999" font-family="'Droid Sans'" stroke="none">A3</text>
<g stroke-width="0" fill="none" class="terminal" y="86.0499" height="0.699999" x="-0.349999" id="connector3terminal" width="0.699999" stroke="none"/>
<line stroke-width="0" y1="93.6" fill="none" y2="93.6" class="pin" stroke-linecap="round" id="connector48pin" x2="14.75" stroke="none" x1="0.349999"/>
<rect stroke-width="0" fill="none" class="terminal" y="93.2499" height="0.699999" x="-0.349999" id="connector48terminal" width="0.699999" stroke="none"/>
<line stroke-width="0" y1="93.6" fill="none" y2="93.6" class="pin" stroke-linecap="round" id="connector45pin" x2="14.75" stroke="none" x1="0.349999"/>
<rect stroke-width="0" fill="none" class="terminal" y="93.2499" height="0.699999" x="-0.349999" id="connector45terminal" width="0.699999" stroke="none"/>
<line stroke-width="0" y1="93.6" fill="none" y2="93.6" class="pin" stroke-linecap="round" id="connector4pin" x2="14.75" stroke="none" x1="0.349999"/>
<g stroke-width="0" fill="none" class="terminal" y="93.2499" height="0.699999" x="-0.349999" id="connector4terminal" width="0.699999" stroke="none"/>
<line stroke-width="0" y1="93.6" fill="none" y2="93.6" class="pin" stroke-linecap="round" id="connector39pin" x2="14.75" stroke="none" x1="0.349999"/>
<rect stroke-width="0" fill="none" class="terminal" y="93.2499" height="0.699999" x="-0.349999" id="connector39terminal" width="0.699999" stroke="none"/>
<line stroke-width="0" y1="93.6" fill="none" y2="93.6" class="pin" stroke-linecap="round" id="connector47pin" x2="14.75" stroke="none" x1="0.349999"/>
<rect stroke-width="0" fill="none" class="terminal" y="93.2499" height="0.699999" x="-0.349999" id="connector47terminal" width="0.699999" stroke="none"/>
<line stroke-width="0" y1="93.6" fill="none" y2="93.6" class="pin" stroke-linecap="round" id="connector42pin" x2="14.75" stroke="none" x1="0.349999"/>
<rect stroke-width="0" fill="none" class="terminal" y="93.2499" height="0.699999" x="-0.349999" id="connector42terminal" width="0.699999" stroke="none"/>
<line stroke-width="0.699999" y1="93.6" fill="none" y2="93.6" class="pin" stroke-linecap="round" id="connector59pin" x2="14.75" stroke="#787878" x1="0.349999"/>
<text stroke-width="0" fill="#8c8c8c" text-anchor="start" class="text" y="94.2999" x="16.15" font-size="3.49999" font-family="'Droid Sans'" stroke="none">A4/SDA</text>
<g stroke-width="0" fill="none" class="terminal" y="93.2499" height="0.699999" x="-0.349999" id="connector59terminal" width="0.699999" stroke="none"/>
<line stroke-width="0" y1="100.8" fill="none" y2="100.8" class="pin" stroke-linecap="round" id="connector5pin" x2="14.75" stroke="none" x1="0.349999"/>
<g stroke-width="0" fill="none" class="terminal" y="100.45" height="0.699999" x="-0.349999" id="connector5terminal" width="0.699999" stroke="none"/>
<line stroke-width="0.699999" y1="100.8" fill="none" y2="100.8" class="pin" stroke-linecap="round" id="connector60pin" x2="14.75" stroke="#787878" x1="0.349999"/>
<text stroke-width="0" fill="#8c8c8c" text-anchor="start" class="text" y="101.5" x="16.15" font-size="3.49999" font-family="'Droid Sans'" stroke="none">A5/SCL</text>
<g stroke-width="0" fill="none" class="terminal" y="100.45" height="0.699999" x="-0.349999" id="connector60terminal" width="0.699999" stroke="none"/>
<line stroke-width="0.699999" y1="136.8" fill="none" y2="136.8" class="pin" stroke-linecap="round" id="connector91pin" x2="14.75" stroke="#787878" x1="0.349999"/>
<text stroke-width="0" fill="#8c8c8c" text-anchor="start" class="text" y="137.5" x="16.15" font-size="3.49999" font-family="'Droid Sans'" stroke="none">N/C</text>
<g stroke-width="0" fill="none" class="terminal" y="136.45" height="0.699999" x="-0.349999" id="connector91terminal" width="0.699999" stroke="none"/>
<line stroke-width="0" y1="150.85" fill="none" y2="165.25" class="pin" stroke-linecap="round" id="connector88pin" x2="57.6" stroke="none" x1="57.6"/>
<g stroke-width="0" fill="none" class="terminal" y="165.25" height="0.699999" x="57.2499" id="connector88terminal" width="0.699999" stroke="none"/>
<line stroke-width="0" y1="150.85" fill="none" y2="165.25" class="pin" stroke-linecap="round" id="connector57pin" x2="57.6" stroke="none" x1="57.6"/>
<g stroke-width="0" fill="none" class="terminal" y="165.25" height="0.699999" x="57.2499" id="connector57terminal" width="0.699999" stroke="none"/>
<line stroke-width="0" y1="150.85" fill="none" y2="165.25" class="pin" stroke-linecap="round" id="connector44pin" x2="57.6" stroke="none" x1="57.6"/>
<rect stroke-width="0" fill="none" class="terminal" y="165.25" height="0.699999" x="57.2499" id="connector44terminal" width="0.699999" stroke="none"/>
<line stroke-width="0" y1="150.85" fill="none" y2="165.25" class="pin" stroke-linecap="round" id="connector50pin" x2="57.6" stroke="none" x1="57.6"/>
<rect stroke-width="0" fill="none" class="terminal" y="165.25" height="0.699999" x="57.2499" id="connector50terminal" width="0.699999" stroke="none"/>
<line stroke-width="0.699999" y1="150.85" fill="none" y2="165.25" class="pin" stroke-linecap="round" id="connector89pin" x2="57.6" stroke="#787878" x1="57.6"/>
<g transform="matrix(1, 0, 0, 1, 58.2999, 149.45)">
<g>
<g transform="rotate(270)">
<g>
<text stroke-width="0" fill="#8c8c8c" text-anchor="start" class="text" y="0" x="0" font-size="3.49999" font-family="'Droid Sans'" stroke="none">GND</text>
</g>
</g>
</g>
</g>
<g stroke-width="0" fill="none" class="terminal" y="165.25" height="0.699999" x="57.2499" id="connector89terminal" width="0.699999" stroke="none"/>
<line stroke-width="0.699999" y1="0.349999" fill="none" y2="14.75" class="pin" stroke-linecap="round" id="connector86pin" x2="36" stroke="#787878" x1="36"/>
<g transform="matrix(1, 0, 0, 1, 36.6999, 16.15)">
<g>
<g transform="rotate(270)">
<g>
<text stroke-width="0" fill="#8c8c8c" text-anchor="end" class="text" y="0" x="0" font-size="3.49999" font-family="'Droid Sans'" stroke="none">3V3</text>
</g>
</g>
</g>
</g>
<g stroke-width="0" fill="none" class="terminal" y="-0.349999" height="0.699999" x="35.6499" id="connector86terminal" width="0.699999" stroke="none"/>
<line stroke-width="0" y1="0.349999" fill="none" y2="14.75" class="pin" stroke-linecap="round" id="connector40pin" x2="50.4" stroke="none" x1="50.4"/>
<rect stroke-width="0" fill="none" class="terminal" y="-0.349999" height="0.699999" x="50.0499" id="connector40terminal" width="0.699999" stroke="none"/>
<line stroke-width="0" y1="0.349999" fill="none" y2="14.75" class="pin" stroke-linecap="round" id="connector46pin" x2="50.4" stroke="none" x1="50.4"/>
<rect stroke-width="0" fill="none" class="terminal" y="-0.349999" height="0.699999" x="50.0499" id="connector46terminal" width="0.699999" stroke="none"/>
<line stroke-width="0.699999" y1="0.349999" fill="none" y2="14.75" class="pin" stroke-linecap="round" id="connector87pin" x2="50.4" stroke="#787878" x1="50.4"/>
<g transform="matrix(1, 0, 0, 1, 51.0999, 16.15)">
<g>
<g transform="rotate(270)">
<g>
<text stroke-width="0" fill="#8c8c8c" text-anchor="end" class="text" y="0" x="0" font-size="3.49999" font-family="'Droid Sans'" stroke="none">5V</text>
</g>
</g>
</g>
</g>
<g stroke-width="0" fill="none" class="terminal" y="-0.349999" height="0.699999" x="50.0499" id="connector87terminal" width="0.699999" stroke="none"/>
<line stroke-width="0.699999" y1="0.349999" fill="none" y2="14.75" class="pin" stroke-linecap="round" id="connector90pin" x2="64.8" stroke="#787878" x1="64.8"/>
<g transform="matrix(1, 0, 0, 1, 65.4999, 16.15)">
<g>
<g transform="rotate(270)">
<g>
<text stroke-width="0" fill="#8c8c8c" text-anchor="end" class="text" y="0" x="0" font-size="3.49999" font-family="'Droid Sans'" stroke="none">VIN</text>
</g>
</g>
</g>
</g>
<g stroke-width="0" fill="none" class="terminal" y="-0.349999" height="0.699999" x="64.4499" id="connector90terminal" width="0.699999" stroke="none"/>
<text stroke-width="0" fill="#000000" text-anchor="middle" class="text" y="76.4498" x="54.4501" id="label" font-size="4.25001" font-family="'Droid Sans'" stroke="none">Arduino</text>
<text stroke-width="0" fill="#000000" text-anchor="middle" class="text" y="80.9833" x="54.4501" id="label" font-size="4.25001" font-family="'Droid Sans'" stroke="none">Uno</text>
<text stroke-width="0" fill="#000000" text-anchor="middle" class="text" y="85.5167" x="54.4501" id="label" font-size="4.25001" font-family="'Droid Sans'" stroke="none">(Rev3)</text>
</g>
</g><g partID='58320'><g transform='translate(119.699,50.1839)' ><g id="schematic">
<g>
<path d="M13.5,14.966L9.9,14.966c-0.193,0,-0.35,-0.156,-0.35,-0.35s0.156,-0.35,0.35,-0.35L13.5,14.266c0.193,0,0.35,0.156,0.35,0.35S13.694,14.966,13.5,14.966z"/>
</g>
<g>
<path d="M9.9,14.966L6.3,14.966c-0.193,0,-0.35,-0.156,-0.35,-0.35s0.157,-0.35,0.35,-0.35l3.6,0c0.193,0,0.35,0.156,0.35,0.35S10.093,14.966,9.9,14.966z"/>
</g>
<g>
<polygon fill="#FFFFFF" points="9.9,14.616,6.3,7.416,9.9,7.416,13.5,7.416"/>
<path d="M9.9,15.398L5.734,7.066l8.333,0L9.9,15.398zM6.866,7.766L9.9,13.834l3.034,-6.068L6.866,7.766z"/>
</g>
<g>
<path d="M9.9,14.841c-0.124,0,-0.225,-0.101,-0.225,-0.225l0,-7.2c0,-0.124,0.101,-0.225,0.225,-0.225s0.225,0.101,0.225,0.225l0,7.2C10.124,14.74,10.024,14.841,9.9,14.841z"/>
</g>
<g>
<path d="M1.8,12.141c-0.058,0,-0.115,-0.021,-0.159,-0.065c-0.088,-0.088,-0.088,-0.23,0,-0.318l2.34,-2.341c0.088,-0.088,0.23,-0.088,0.318,0s0.088,0.23,0,0.318l-2.34,2.341C1.915,12.12,1.858,12.141,1.8,12.141z"/>
</g>
<g>
<path d="M2.16,15.381c-0.058,0,-0.115,-0.021,-0.159,-0.065c-0.088,-0.088,-0.088,-0.23,0,-0.318l2.34,-2.34c0.088,-0.088,0.23,-0.088,0.318,0s0.088,0.23,0,0.318l-2.34,2.34C2.276,15.359,2.218,15.381,2.16,15.381z"/>
</g>
<g id="connector0pin">
<path d="M9.9,22.166c-0.193,0,-0.35,-0.156,-0.35,-0.35l0,-7.2c0,-0.193,0.156,-0.35,0.35,-0.35s0.35,0.156,0.35,0.35l0,7.2C10.249,22.01,10.093,22.166,9.9,22.166z" fill="#787878"/>
</g>
<g id="connector0terminal">
<rect fill="none" y="21.816" height="0.001" x="9.9" width="0.001"/>
</g>
<g transform="matrix(1, 0, 0, 1, 3.429, 6.4262)">
<g>
<g transform="rotate(270)">
<g>
<g enable-background="new    ">
<path d="M-11.647,5.54l-0.891,0L-12.538,5.388l0.342,-0.372c0.049,-0.053,0.093,-0.101,0.131,-0.145s0.071,-0.086,0.099,-0.128c0.026,-0.042,0.047,-0.084,0.062,-0.125c0.015,-0.043,0.021,-0.088,0.021,-0.138c0,-0.038,-0.005,-0.072,-0.017,-0.102s-0.027,-0.054,-0.047,-0.075c-0.021,-0.02,-0.045,-0.035,-0.073,-0.046s-0.06,-0.016,-0.094,-0.016c-0.062,0,-0.118,0.013,-0.167,0.038c-0.051,0.024,-0.098,0.057,-0.143,0.096l-0.1,-0.116c0.025,-0.023,0.055,-0.046,0.084,-0.065c0.029,-0.021,0.063,-0.039,0.097,-0.054s0.071,-0.026,0.109,-0.036c0.038,-0.008,0.079,-0.013,0.121,-0.013c0.063,0,0.119,0.009,0.169,0.026c0.051,0.018,0.094,0.043,0.129,0.076c0.035,0.032,0.063,0.072,0.082,0.119c0.019,0.048,0.028,0.101,0.028,0.16c0,0.056,-0.009,0.108,-0.026,0.158c-0.017,0.05,-0.041,0.1,-0.07,0.148c-0.031,0.048,-0.066,0.097,-0.109,0.146c-0.041,0.049,-0.087,0.1,-0.136,0.152L-12.32,5.37l0,0.008l0.673,0L-11.647,5.54z" fill="#787878"/>
</g>
</g>
</g>
</g>
</g>
<g id="connector1pin">
<path d="M9.9,7.766c-0.193,0,-0.35,-0.157,-0.35,-0.35l0,-7.2c0,-0.193,0.156,-0.35,0.35,-0.35s0.35,0.157,0.35,0.35l0,7.2C10.249,7.609,10.093,7.766,9.9,7.766z" fill="#787878"/>
</g>
<g id="connector1terminal">
<polygon fill="none" points="9.9,0.216,9.901,0.216,9.901,0.216"/>
</g>
<g transform="matrix(1, 0, 0, 1, 3.429, 1.3462)">
<g>
<g transform="rotate(270)">
<g>
<g enable-background="new    ">
<path d="M-2.616,5.54l-0.172,0L-2.788,4.648c0,-0.028,0,-0.058,0,-0.09s0.001,-0.063,0.002,-0.095c0.001,-0.032,0.002,-0.063,0.003,-0.092c0.001,-0.028,0.002,-0.054,0.002,-0.076c-0.011,0.012,-0.021,0.021,-0.029,0.03s-0.017,0.017,-0.026,0.024s-0.018,0.016,-0.028,0.025c-0.01,0.008,-0.021,0.019,-0.035,0.03l-0.145,0.118l-0.094,-0.12l0.374,-0.292l0.146,0L-2.618,5.54z" fill="#787878"/>
</g>
</g>
</g>
</g>
</g>
<g>
<path d="M0.18,13.536l1.08,-2.521l1.44,1.438L0.18,13.536z"/>
</g>
<g>
<path d="M0.54,16.776l1.08,-2.521l1.438,1.438L0.54,16.776z"/>
</g>
</g>
</g></g><g partID='59540'><line stroke-linecap='round' stroke='#404040' x1='129.554' y1='165.575' x2='129.6' y2='108' stroke-width='0.699998' /></g><g partID='59550'><line stroke-linecap='round' stroke='#404040' x1='57.5999' y1='165.6' x2='129.554' y2='165.575' stroke-width='0.699998' /></g><g partID='59620'><line stroke-linecap='round' stroke='#404040' x1='129.554' y1='79.2454' x2='129.6' y2='72.0004' stroke-width='0.699998' /></g><g partID='59630'><line stroke-linecap='round' stroke='#404040' x1='129.6' y1='79.1998' x2='129.554' y2='79.2454' stroke-width='0.699998' /></g><g partID='59700'><line stroke-linecap='round' stroke='#404040' x1='129.554' y1='50.4288' x2='129.6' y2='50.3999' stroke-width='0.699998' /></g><g partID='59710'><line stroke-linecap='round' stroke='#404040' x1='108' y1='50.3999' x2='129.554' y2='50.4288' stroke-width='0.699998' /></g><g partID='58130' id='partLabel'><g transform='translate(137.098,87.9551)' ><g font-size='5' font-style='normal' font-weight='normal' fill='#000000' font-family="'DroidSans'" id='schematicLabel' fill-opacity='1' stroke='none' ><text x='0' y='3.75'>R1</text><text x='0' y='8.75'>150&#x3a9;</text></g></g></g><g partID='58320' id='partLabel'><g transform='translate(138.152,56.9358)' ><g font-size='5' font-style='normal' font-weight='normal' fill='#000000' font-family="'DroidSans'" id='schematicLabel' fill-opacity='1' stroke='none' ><text x='0' y='3.75'>LED1</text><text x='0' y='8.75'>Red (633nm)</text></g></g></g></svg>