<svg id="Layer_1" data-name="Layer 1" xmlns="http://www.w3.org/2000/svg" viewBox="0 0 478.5 454.13"><defs><style>.cls-1,.cls-7{fill:none;stroke:#000;stroke-miterlimit:10;}.cls-1{stroke-width:2px;}.cls-2{font-size:17.6px;font-family:MyriadPro-Regular, Myriad Pro;}.cls-3{letter-spacing:0em;}.cls-4{letter-spacing:-0.01em;}.cls-5{letter-spacing:0em;}.cls-6{letter-spacing:-0.01em;}</style></defs><title>Artboard 1</title><line class="cls-1" x1="19.5" y1="199.54" x2="457.5" y2="199.54"/><polygon points="478.5 199.54 448.65 211.74 455.73 199.54 448.65 187.35 478.5 199.54"/><line class="cls-1" x1="19.5" y1="200.54" x2="19.5" y2="47.54"/><polygon points="20 26.55 32.2 56.39 20 49.31 7.81 56.39 20 26.55"/><text class="cls-2" transform="translate(0 14.73)"><tspan class="cls-3">O</tspan><tspan x="12.18" y="0">utput </tspan><tspan class="cls-4" x="56.97" y="0">v</tspan><tspan class="cls-5" x="65.26" y="0">oltage</tspan></text><text class="cls-2" transform="translate(407.5 227.73)"><tspan class="cls-6">T</tspan><tspan x="8.54" y="0">ime</tspan></text><line class="cls-7" x1="20.5" y1="67.04" x2="72.5" y2="67.04"/><line class="cls-7" x1="72" y1="67.54" x2="72" y2="199.54"/><line class="cls-7" x1="223.5" y1="67.04" x2="275.5" y2="67.04"/><line class="cls-7" x1="275" y1="67.54" x2="275" y2="199.54"/><line class="cls-7" x1="224" y1="199.54" x2="224" y2="66.54"/><line class="cls-7" x1="325.5" y1="67.04" x2="377.5" y2="67.04"/><line class="cls-7" x1="377" y1="67.54" x2="377" y2="199.54"/><line class="cls-7" x1="326" y1="199.54" x2="326" y2="66.54"/><line class="cls-7" x1="121.5" y1="67.04" x2="173.5" y2="67.04"/><line class="cls-7" x1="173" y1="67.54" x2="173" y2="199.54"/><line class="cls-7" x1="122" y1="199.54" x2="122" y2="66.54"/><line class="cls-1" x1="19.5" y1="421.54" x2="457.5" y2="421.54"/><polygon points="478.5 421.55 448.65 433.74 455.73 421.55 448.65 409.35 478.5 421.55"/><line class="cls-1" x1="19.5" y1="422.54" x2="19.5" y2="269.54"/><polygon points="20 248.54 32.2 278.39 20 271.31 7.81 278.39 20 248.54"/><text class="cls-2" transform="translate(0 236.73)"><tspan class="cls-3">O</tspan><tspan x="12.18" y="0">utput </tspan><tspan class="cls-4" x="56.97" y="0">v</tspan><tspan class="cls-5" x="65.26" y="0">oltage</tspan></text><text class="cls-2" transform="translate(407.5 449.73)"><tspan class="cls-6">T</tspan><tspan x="8.54" y="0">ime</tspan></text><line class="cls-7" x1="19.5" y1="289.04" x2="37.5" y2="289.04"/><line class="cls-7" x1="37" y1="289.54" x2="37" y2="421.54"/><line class="cls-7" x1="226.5" y1="289.04" x2="244.5" y2="289.04"/><line class="cls-7" x1="244" y1="289.54" x2="244" y2="421.54"/><line class="cls-7" x1="227" y1="421.54" x2="227" y2="288.54"/><line class="cls-7" x1="326.5" y1="289.04" x2="344.5" y2="289.04"/><line class="cls-7" x1="344" y1="289.54" x2="344" y2="421.54"/><line class="cls-7" x1="327" y1="421.54" x2="327" y2="288.54"/><line class="cls-7" x1="123.5" y1="289.04" x2="140.5" y2="289.04"/><line class="cls-7" x1="140" y1="289.54" x2="140" y2="421.54"/><line class="cls-7" x1="123" y1="421.54" x2="123" y2="288.54"/></svg>