<?xml version='1.0' encoding='UTF-8' standalone='no'?>
<!-- Created with Fritzing (http://www.fritzing.org/) -->
<svg xmlns:svg='http://www.w3.org/2000/svg' xmlns='http://www.w3.org/2000/svg' version='1.2' baseProfile='tiny' x='0in' y='0in' width='3.95683in' height='2.52982in' viewBox='0 0 284.892 182.147' >
<g partID='57960'><g transform='translate(57.961,15.4968)' ><g id="schematic">
<rect class="interior rect" fill="#FFFFFF" stroke="#000000" x="14.85" y="14.85" stroke-width="0.9" height="135.9" stroke-linecap="round" width="78.3"/>
<line class="pin" x1="93.2499" fill="none" stroke="#787878" stroke-width="0.699999" stroke-linecap="round" id="connector61pin" y1="28.8" y2="28.8" x2="107.65"/>
<text class="text" stroke="none" fill="#8c8c8c" x="91.8499" y="29.4999" font-size="3.49999" stroke-width="0" text-anchor="end" font-family="'Droid Sans'">D0/RX</text>
<g class="terminal" fill="none" stroke="none" x="107.65" y="28.4499" stroke-width="0" height="0.699999" id="connector61terminal" width="0.699999"/>
<line class="pin" x1="93.2499" fill="none" stroke="#787878" stroke-width="0.699999" stroke-linecap="round" id="connector62pin" y1="36" y2="36" x2="107.65"/>
<text class="text" stroke="none" fill="#8c8c8c" x="91.8499" y="36.6999" font-size="3.49999" stroke-width="0" text-anchor="end" font-family="'Droid Sans'">D1/TX</text>
<g class="terminal" fill="none" stroke="none" x="107.65" y="35.6499" stroke-width="0" height="0.699999" id="connector62terminal" width="0.699999"/>
<line class="pin" x1="93.2499" fill="none" stroke="#787878" stroke-width="0.699999" stroke-linecap="round" id="connector63pin" y1="43.2" y2="43.2" x2="107.65"/>
<text class="text" stroke="none" fill="#8c8c8c" x="91.8499" y="43.8999" font-size="3.49999" stroke-width="0" text-anchor="end" font-family="'Droid Sans'">D2</text>
<g class="terminal" fill="none" stroke="none" x="107.65" y="42.8499" stroke-width="0" height="0.699999" id="connector63terminal" width="0.699999"/>
<line class="pin" x1="93.2499" fill="none" stroke="#787878" stroke-width="0.699999" stroke-linecap="round" id="connector64pin" y1="50.4" y2="50.4" x2="107.65"/>
<text class="text" stroke="none" fill="#8c8c8c" x="91.8499" y="51.0999" font-size="3.49999" stroke-width="0" text-anchor="end" font-family="'Droid Sans'">D3 PWM</text>
<g class="terminal" fill="none" stroke="none" x="107.65" y="50.0499" stroke-width="0" height="0.699999" id="connector64terminal" width="0.699999"/>
<line class="pin" x1="93.2499" fill="none" stroke="#787878" stroke-width="0.699999" stroke-linecap="round" id="connector65pin" y1="57.6" y2="57.6" x2="107.65"/>
<text class="text" stroke="none" fill="#8c8c8c" x="91.8499" y="58.2999" font-size="3.49999" stroke-width="0" text-anchor="end" font-family="'Droid Sans'">D4</text>
<g class="terminal" fill="none" stroke="none" x="107.65" y="57.2499" stroke-width="0" height="0.699999" id="connector65terminal" width="0.699999"/>
<line class="pin" x1="93.2499" fill="none" stroke="#787878" stroke-width="0.699999" stroke-linecap="round" id="connector66pin" y1="64.8" y2="64.8" x2="107.65"/>
<text class="text" stroke="none" fill="#8c8c8c" x="91.8499" y="65.4999" font-size="3.49999" stroke-width="0" text-anchor="end" font-family="'Droid Sans'">D5 PWM</text>
<g class="terminal" fill="none" stroke="none" x="107.65" y="64.4499" stroke-width="0" height="0.699999" id="connector66terminal" width="0.699999"/>
<line class="pin" x1="93.2499" fill="none" stroke="#787878" stroke-width="0.699999" stroke-linecap="round" id="connector67pin" y1="72" y2="72" x2="107.65"/>
<text class="text" stroke="none" fill="#8c8c8c" x="91.8499" y="72.6999" font-size="3.49999" stroke-width="0" text-anchor="end" font-family="'Droid Sans'">D6 PWM</text>
<g class="terminal" fill="none" stroke="none" x="107.65" y="71.6499" stroke-width="0" height="0.699999" id="connector67terminal" width="0.699999"/>
<line class="pin" x1="93.2499" fill="none" stroke="#787878" stroke-width="0.699999" stroke-linecap="round" id="connector68pin" y1="79.2" y2="79.2" x2="107.65"/>
<text class="text" stroke="none" fill="#8c8c8c" x="91.8499" y="79.8999" font-size="3.49999" stroke-width="0" text-anchor="end" font-family="'Droid Sans'">D7</text>
<g class="terminal" fill="none" stroke="none" x="107.65" y="78.8499" stroke-width="0" height="0.699999" id="connector68terminal" width="0.699999"/>
<line class="pin" x1="93.2499" fill="none" stroke="#787878" stroke-width="0.699999" stroke-linecap="round" id="connector51pin" y1="86.4" y2="86.4" x2="107.65"/>
<text class="text" stroke="none" fill="#8c8c8c" x="91.8499" y="87.0999" font-size="3.49999" stroke-width="0" text-anchor="end" font-family="'Droid Sans'">D8</text>
<g class="terminal" fill="none" stroke="none" x="107.65" y="86.0499" stroke-width="0" height="0.699999" id="connector51terminal" width="0.699999"/>
<line class="pin" x1="93.2499" fill="none" stroke="#787878" stroke-width="0.699999" stroke-linecap="round" id="connector52pin" y1="93.6" y2="93.6" x2="107.65"/>
<text class="text" stroke="none" fill="#8c8c8c" x="91.8499" y="94.2999" font-size="3.49999" stroke-width="0" text-anchor="end" font-family="'Droid Sans'">D9 PWM</text>
<g class="terminal" fill="none" stroke="none" x="107.65" y="93.2499" stroke-width="0" height="0.699999" id="connector52terminal" width="0.699999"/>
<line class="pin" x1="93.2499" fill="none" stroke="#787878" stroke-width="0.699999" stroke-linecap="round" id="connector53pin" y1="100.8" y2="100.8" x2="107.65"/>
<text class="text" stroke="none" fill="#8c8c8c" x="91.8499" y="101.5" font-size="3.49999" stroke-width="0" text-anchor="end" font-family="'Droid Sans'">D10 PWM/SS</text>
<g class="terminal" fill="none" stroke="none" x="107.65" y="100.45" stroke-width="0" height="0.699999" id="connector53terminal" width="0.699999"/>
<line class="pin" x1="93.2499" fill="none" stroke="#787878" stroke-width="0.699999" stroke-linecap="round" id="connector54pin" y1="108" y2="108" x2="107.65"/>
<text class="text" stroke="none" fill="#8c8c8c" x="91.8499" y="108.7" font-size="3.49999" stroke-width="0" text-anchor="end" font-family="'Droid Sans'">D11 PWM/MOSI</text>
<g class="terminal" fill="none" stroke="none" x="107.65" y="107.65" stroke-width="0" height="0.699999" id="connector54terminal" width="0.699999"/>
<line class="pin" x1="93.2499" fill="none" stroke="#787878" stroke-width="0.699999" stroke-linecap="round" id="connector55pin" y1="115.2" y2="115.2" x2="107.65"/>
<text class="text" stroke="none" fill="#8c8c8c" x="91.8499" y="115.9" font-size="3.49999" stroke-width="0" text-anchor="end" font-family="'Droid Sans'">D12/MISO</text>
<g class="terminal" fill="none" stroke="none" x="107.65" y="114.85" stroke-width="0" height="0.699999" id="connector55terminal" width="0.699999"/>
<line class="pin" x1="93.2499" fill="none" stroke="none" stroke-width="0" stroke-linecap="round" id="connector41pin" y1="122.4" y2="122.4" x2="107.65"/>
<rect class="terminal" fill="none" stroke="none" x="107.65" y="122.05" stroke-width="0" height="0.699999" id="connector41terminal" width="0.699999"/>
<line class="pin" x1="93.2499" fill="none" stroke="#787878" stroke-width="0.699999" stroke-linecap="round" id="connector56pin" y1="122.4" y2="122.4" x2="107.65"/>
<text class="text" stroke="none" fill="#8c8c8c" x="91.8499" y="123.1" font-size="3.49999" stroke-width="0" text-anchor="end" font-family="'Droid Sans'">D13/SCK</text>
<g class="terminal" fill="none" stroke="none" x="107.65" y="122.05" stroke-width="0" height="0.699999" id="connector56terminal" width="0.699999"/>
<line class="pin" x1="0.349999" fill="none" stroke="none" stroke-width="0" stroke-linecap="round" id="connector43pin" y1="28.8" y2="28.8" x2="14.75"/>
<rect class="terminal" fill="none" stroke="none" x="-0.349999" y="28.4499" stroke-width="0" height="0.699999" id="connector43terminal" width="0.699999"/>
<line class="pin" x1="0.349999" fill="none" stroke="#787878" stroke-width="0.699999" stroke-linecap="round" id="connector85pin" y1="28.8" y2="28.8" x2="14.75"/>
<text class="text" stroke="none" fill="#8c8c8c" x="16.15" y="29.4999" font-size="3.49999" stroke-width="0" text-anchor="start" font-family="'Droid Sans'">RESET</text>
<g class="terminal" fill="none" stroke="none" x="-0.349999" y="28.4499" stroke-width="0" height="0.699999" id="connector85terminal" width="0.699999"/>
<line class="pin" x1="0.349999" fill="none" stroke="#787878" stroke-width="0.699999" stroke-linecap="round" id="connector49pin" y1="36" y2="36" x2="14.75"/>
<text class="text" stroke="none" fill="#8c8c8c" x="16.15" y="36.6999" font-size="3.49999" stroke-width="0" text-anchor="start" font-family="'Droid Sans'">RESET2</text>
<rect class="terminal" fill="none" stroke="none" x="-0.349999" y="35.6499" stroke-width="0" height="0.699999" id="connector49terminal" width="0.699999"/>
<line class="pin" x1="0.349999" fill="none" stroke="#787878" stroke-width="0.699999" stroke-linecap="round" id="connector58pin" y1="43.2" y2="43.2" x2="14.75"/>
<text class="text" stroke="none" fill="#8c8c8c" x="16.15" y="43.8999" font-size="3.49999" stroke-width="0" text-anchor="start" font-family="'Droid Sans'">AREF</text>
<g class="terminal" fill="none" stroke="none" x="-0.349999" y="42.8499" stroke-width="0" height="0.699999" id="connector58terminal" width="0.699999"/>
<line class="pin" x1="0.349999" fill="none" stroke="#787878" stroke-width="0.699999" stroke-linecap="round" id="connector84pin" y1="50.4" y2="50.4" x2="14.75"/>
<text class="text" stroke="none" fill="#8c8c8c" x="16.15" y="51.0999" font-size="3.49999" stroke-width="0" text-anchor="start" font-family="'Droid Sans'">ioref</text>
<g class="terminal" fill="none" stroke="none" x="-0.349999" y="50.0499" stroke-width="0" height="0.699999" id="connector84terminal" width="0.699999"/>
<line class="pin" x1="0.349999" fill="none" stroke="#787878" stroke-width="0.699999" stroke-linecap="round" id="connector0pin" y1="64.8" y2="64.8" x2="14.75"/>
<text class="text" stroke="none" fill="#8c8c8c" x="16.15" y="65.4999" font-size="3.49999" stroke-width="0" text-anchor="start" font-family="'Droid Sans'">A0</text>
<g class="terminal" fill="none" stroke="none" x="-0.349999" y="64.4499" stroke-width="0" height="0.699999" id="connector0terminal" width="0.699999"/>
<line class="pin" x1="0.349999" fill="none" stroke="#787878" stroke-width="0.699999" stroke-linecap="round" id="connector1pin" y1="72" y2="72" x2="14.75"/>
<text class="text" stroke="none" fill="#8c8c8c" x="16.15" y="72.6999" font-size="3.49999" stroke-width="0" text-anchor="start" font-family="'Droid Sans'">A1</text>
<g class="terminal" fill="none" stroke="none" x="-0.349999" y="71.6499" stroke-width="0" height="0.699999" id="connector1terminal" width="0.699999"/>
<line class="pin" x1="0.349999" fill="none" stroke="#787878" stroke-width="0.699999" stroke-linecap="round" id="connector2pin" y1="79.2" y2="79.2" x2="14.75"/>
<text class="text" stroke="none" fill="#8c8c8c" x="16.15" y="79.8999" font-size="3.49999" stroke-width="0" text-anchor="start" font-family="'Droid Sans'">A2</text>
<g class="terminal" fill="none" stroke="none" x="-0.349999" y="78.8499" stroke-width="0" height="0.699999" id="connector2terminal" width="0.699999"/>
<line class="pin" x1="0.349999" fill="none" stroke="#787878" stroke-width="0.699999" stroke-linecap="round" id="connector3pin" y1="86.4" y2="86.4" x2="14.75"/>
<text class="text" stroke="none" fill="#8c8c8c" x="16.15" y="87.0999" font-size="3.49999" stroke-width="0" text-anchor="start" font-family="'Droid Sans'">A3</text>
<g class="terminal" fill="none" stroke="none" x="-0.349999" y="86.0499" stroke-width="0" height="0.699999" id="connector3terminal" width="0.699999"/>
<line class="pin" x1="0.349999" fill="none" stroke="none" stroke-width="0" stroke-linecap="round" id="connector48pin" y1="93.6" y2="93.6" x2="14.75"/>
<rect class="terminal" fill="none" stroke="none" x="-0.349999" y="93.2499" stroke-width="0" height="0.699999" id="connector48terminal" width="0.699999"/>
<line class="pin" x1="0.349999" fill="none" stroke="none" stroke-width="0" stroke-linecap="round" id="connector45pin" y1="93.6" y2="93.6" x2="14.75"/>
<rect class="terminal" fill="none" stroke="none" x="-0.349999" y="93.2499" stroke-width="0" height="0.699999" id="connector45terminal" width="0.699999"/>
<line class="pin" x1="0.349999" fill="none" stroke="none" stroke-width="0" stroke-linecap="round" id="connector4pin" y1="93.6" y2="93.6" x2="14.75"/>
<g class="terminal" fill="none" stroke="none" x="-0.349999" y="93.2499" stroke-width="0" height="0.699999" id="connector4terminal" width="0.699999"/>
<line class="pin" x1="0.349999" fill="none" stroke="none" stroke-width="0" stroke-linecap="round" id="connector39pin" y1="93.6" y2="93.6" x2="14.75"/>
<rect class="terminal" fill="none" stroke="none" x="-0.349999" y="93.2499" stroke-width="0" height="0.699999" id="connector39terminal" width="0.699999"/>
<line class="pin" x1="0.349999" fill="none" stroke="none" stroke-width="0" stroke-linecap="round" id="connector47pin" y1="93.6" y2="93.6" x2="14.75"/>
<rect class="terminal" fill="none" stroke="none" x="-0.349999" y="93.2499" stroke-width="0" height="0.699999" id="connector47terminal" width="0.699999"/>
<line class="pin" x1="0.349999" fill="none" stroke="none" stroke-width="0" stroke-linecap="round" id="connector42pin" y1="93.6" y2="93.6" x2="14.75"/>
<rect class="terminal" fill="none" stroke="none" x="-0.349999" y="93.2499" stroke-width="0" height="0.699999" id="connector42terminal" width="0.699999"/>
<line class="pin" x1="0.349999" fill="none" stroke="#787878" stroke-width="0.699999" stroke-linecap="round" id="connector59pin" y1="93.6" y2="93.6" x2="14.75"/>
<text class="text" stroke="none" fill="#8c8c8c" x="16.15" y="94.2999" font-size="3.49999" stroke-width="0" text-anchor="start" font-family="'Droid Sans'">A4/SDA</text>
<g class="terminal" fill="none" stroke="none" x="-0.349999" y="93.2499" stroke-width="0" height="0.699999" id="connector59terminal" width="0.699999"/>
<line class="pin" x1="0.349999" fill="none" stroke="none" stroke-width="0" stroke-linecap="round" id="connector5pin" y1="100.8" y2="100.8" x2="14.75"/>
<g class="terminal" fill="none" stroke="none" x="-0.349999" y="100.45" stroke-width="0" height="0.699999" id="connector5terminal" width="0.699999"/>
<line class="pin" x1="0.349999" fill="none" stroke="#787878" stroke-width="0.699999" stroke-linecap="round" id="connector60pin" y1="100.8" y2="100.8" x2="14.75"/>
<text class="text" stroke="none" fill="#8c8c8c" x="16.15" y="101.5" font-size="3.49999" stroke-width="0" text-anchor="start" font-family="'Droid Sans'">A5/SCL</text>
<g class="terminal" fill="none" stroke="none" x="-0.349999" y="100.45" stroke-width="0" height="0.699999" id="connector60terminal" width="0.699999"/>
<line class="pin" x1="0.349999" fill="none" stroke="#787878" stroke-width="0.699999" stroke-linecap="round" id="connector91pin" y1="136.8" y2="136.8" x2="14.75"/>
<text class="text" stroke="none" fill="#8c8c8c" x="16.15" y="137.5" font-size="3.49999" stroke-width="0" text-anchor="start" font-family="'Droid Sans'">N/C</text>
<g class="terminal" fill="none" stroke="none" x="-0.349999" y="136.45" stroke-width="0" height="0.699999" id="connector91terminal" width="0.699999"/>
<line class="pin" x1="57.6" fill="none" stroke="none" stroke-width="0" stroke-linecap="round" id="connector88pin" y1="150.85" y2="165.25" x2="57.6"/>
<g class="terminal" fill="none" stroke="none" x="57.2499" y="165.25" stroke-width="0" height="0.699999" id="connector88terminal" width="0.699999"/>
<line class="pin" x1="57.6" fill="none" stroke="none" stroke-width="0" stroke-linecap="round" id="connector57pin" y1="150.85" y2="165.25" x2="57.6"/>
<g class="terminal" fill="none" stroke="none" x="57.2499" y="165.25" stroke-width="0" height="0.699999" id="connector57terminal" width="0.699999"/>
<line class="pin" x1="57.6" fill="none" stroke="none" stroke-width="0" stroke-linecap="round" id="connector44pin" y1="150.85" y2="165.25" x2="57.6"/>
<rect class="terminal" fill="none" stroke="none" x="57.2499" y="165.25" stroke-width="0" height="0.699999" id="connector44terminal" width="0.699999"/>
<line class="pin" x1="57.6" fill="none" stroke="none" stroke-width="0" stroke-linecap="round" id="connector50pin" y1="150.85" y2="165.25" x2="57.6"/>
<rect class="terminal" fill="none" stroke="none" x="57.2499" y="165.25" stroke-width="0" height="0.699999" id="connector50terminal" width="0.699999"/>
<line class="pin" x1="57.6" fill="none" stroke="#787878" stroke-width="0.699999" stroke-linecap="round" id="connector89pin" y1="150.85" y2="165.25" x2="57.6"/>
<g transform="matrix(1, 0, 0, 1, 58.2999, 149.45)">
<g>
<g transform="rotate(270)">
<g>
<text class="text" stroke="none" fill="#8c8c8c" x="0" y="0" font-size="3.49999" stroke-width="0" text-anchor="start" font-family="'Droid Sans'">GND</text>
</g>
</g>
</g>
</g>
<g class="terminal" fill="none" stroke="none" x="57.2499" y="165.25" stroke-width="0" height="0.699999" id="connector89terminal" width="0.699999"/>
<line class="pin" x1="36" fill="none" stroke="#787878" stroke-width="0.699999" stroke-linecap="round" id="connector86pin" y1="0.349999" y2="14.75" x2="36"/>
<g transform="matrix(1, 0, 0, 1, 36.6999, 16.15)">
<g>
<g transform="rotate(270)">
<g>
<text class="text" stroke="none" fill="#8c8c8c" x="0" y="0" font-size="3.49999" stroke-width="0" text-anchor="end" font-family="'Droid Sans'">3V3</text>
</g>
</g>
</g>
</g>
<g class="terminal" fill="none" stroke="none" x="35.6499" y="-0.349999" stroke-width="0" height="0.699999" id="connector86terminal" width="0.699999"/>
<line class="pin" x1="50.4" fill="none" stroke="none" stroke-width="0" stroke-linecap="round" id="connector40pin" y1="0.349999" y2="14.75" x2="50.4"/>
<rect class="terminal" fill="none" stroke="none" x="50.0499" y="-0.349999" stroke-width="0" height="0.699999" id="connector40terminal" width="0.699999"/>
<line class="pin" x1="50.4" fill="none" stroke="none" stroke-width="0" stroke-linecap="round" id="connector46pin" y1="0.349999" y2="14.75" x2="50.4"/>
<rect class="terminal" fill="none" stroke="none" x="50.0499" y="-0.349999" stroke-width="0" height="0.699999" id="connector46terminal" width="0.699999"/>
<line class="pin" x1="50.4" fill="none" stroke="#787878" stroke-width="0.699999" stroke-linecap="round" id="connector87pin" y1="0.349999" y2="14.75" x2="50.4"/>
<g transform="matrix(1, 0, 0, 1, 51.0999, 16.15)">
<g>
<g transform="rotate(270)">
<g>
<text class="text" stroke="none" fill="#8c8c8c" x="0" y="0" font-size="3.49999" stroke-width="0" text-anchor="end" font-family="'Droid Sans'">5V</text>
</g>
</g>
</g>
</g>
<g class="terminal" fill="none" stroke="none" x="50.0499" y="-0.349999" stroke-width="0" height="0.699999" id="connector87terminal" width="0.699999"/>
<line class="pin" x1="64.8" fill="none" stroke="#787878" stroke-width="0.699999" stroke-linecap="round" id="connector90pin" y1="0.349999" y2="14.75" x2="64.8"/>
<g transform="matrix(1, 0, 0, 1, 65.4999, 16.15)">
<g>
<g transform="rotate(270)">
<g>
<text class="text" stroke="none" fill="#8c8c8c" x="0" y="0" font-size="3.49999" stroke-width="0" text-anchor="end" font-family="'Droid Sans'">VIN</text>
</g>
</g>
</g>
</g>
<g class="terminal" fill="none" stroke="none" x="64.4499" y="-0.349999" stroke-width="0" height="0.699999" id="connector90terminal" width="0.699999"/>
<text class="text" stroke="none" fill="#000000" x="54.4501" y="76.4498" font-size="4.25001" stroke-width="0" id="label" text-anchor="middle" font-family="'Droid Sans'">Arduino</text>
<text class="text" stroke="none" fill="#000000" x="54.4501" y="80.9833" font-size="4.25001" stroke-width="0" id="label" text-anchor="middle" font-family="'Droid Sans'">Uno</text>
<text class="text" stroke="none" fill="#000000" x="54.4501" y="85.5167" font-size="4.25001" stroke-width="0" id="label" text-anchor="middle" font-family="'Droid Sans'">(Rev3)</text>
</g>
</g></g><g partID='58130'><g transform='translate(190.657,144.746)' ><g transform='matrix(0,1,-1,0,0,0)'  ><g xmlns="http://www.w3.org/2000/svg" id="schematic">
<line class="other" x1="7.55002" stroke="#000000" xmlns="http://www.w3.org/2000/svg" stroke-width="0.432002" stroke-linecap="round" y1="3.096" y2="0.216" x2="8.63003"/>
<line class="other" x1="8.63003" stroke="#000000" xmlns="http://www.w3.org/2000/svg" stroke-width="0.432002" stroke-linecap="round" y1="0.216" y2="5.976" x2="10.43"/>
<line class="other" x1="10.43" stroke="#000000" xmlns="http://www.w3.org/2000/svg" stroke-width="0.432002" stroke-linecap="round" y1="5.976" y2="0.216" x2="12.23"/>
<line class="other" x1="12.23" stroke="#000000" xmlns="http://www.w3.org/2000/svg" stroke-width="0.432002" stroke-linecap="round" y1="0.216" y2="5.976" x2="14.03"/>
<line class="other" x1="14.03" stroke="#000000" xmlns="http://www.w3.org/2000/svg" stroke-width="0.432002" stroke-linecap="round" y1="5.976" y2="0.216" x2="15.8301"/>
<line class="other" x1="15.8301" stroke="#000000" xmlns="http://www.w3.org/2000/svg" stroke-width="0.432002" stroke-linecap="round" y1="0.216" y2="5.976" x2="17.6301"/>
<line class="other" x1="17.6301" stroke="#000000" xmlns="http://www.w3.org/2000/svg" stroke-width="0.432002" stroke-linecap="round" y1="5.976" y2="0.216" x2="19.4301"/>
<line class="other" x1="19.4301" stroke="#000000" xmlns="http://www.w3.org/2000/svg" stroke-width="0.432002" stroke-linecap="round" y1="0.216" y2="5.976" x2="21.2301"/>
<line class="other" x1="21.2301" stroke="#000000" xmlns="http://www.w3.org/2000/svg" stroke-width="0.432002" stroke-linecap="round" y1="5.976" y2="3.096" x2="21.9501"/>
<line class="pin" x1="29.1502" stroke="#787878" xmlns="http://www.w3.org/2000/svg" connectorname="2" stroke-width="0.700001" id="connector1pin" stroke-linecap="round" y1="3.096" y2="3.096" x2="21.9501"/>
<g class="terminal" stroke="none" fill="none" xmlns="http://www.w3.org/2000/svg" x="29.1502" y="3.096" stroke-width="0" id="connector1terminal" height="0.000283465" width="0.000283466"/>
<text class="text" stroke="none" fill="#8c8c8c" xmlns="http://www.w3.org/2000/svg" x="25.5501" y="2.046" font-size="2.50001" stroke-width="0" text-anchor="middle" font-family="'Droid Sans'">2</text>
<line class="pin" x1="0.350001" stroke="#787878" xmlns="http://www.w3.org/2000/svg" connectorname="1" stroke-width="0.700001" id="connector0pin" stroke-linecap="round" y1="3.096" y2="3.096" x2="7.55002"/>
<g class="terminal" stroke="none" fill="none" xmlns="http://www.w3.org/2000/svg" x="0.350001" y="3.096" stroke-width="0" id="connector0terminal" height="0.000283465" width="0.000283466"/>
<text class="text" stroke="none" fill="#8c8c8c" xmlns="http://www.w3.org/2000/svg" x="3.95001" y="2.046" font-size="2.50001" stroke-width="0" text-anchor="middle" font-family="'Droid Sans'">1</text>
</g>
</g></g></g><g partID='58320'><g transform='translate(177.661,116.081)' ><g id="schematic">
<g>
<path d="M13.5,14.966L9.9,14.966c-0.193,0,-0.35,-0.156,-0.35,-0.35s0.156,-0.35,0.35,-0.35L13.5,14.266c0.193,0,0.35,0.156,0.35,0.35S13.694,14.966,13.5,14.966z"/>
</g>
<g>
<path d="M9.9,14.966L6.3,14.966c-0.193,0,-0.35,-0.156,-0.35,-0.35s0.157,-0.35,0.35,-0.35l3.6,0c0.193,0,0.35,0.156,0.35,0.35S10.093,14.966,9.9,14.966z"/>
</g>
<g>
<polygon fill="#FFFFFF" points="9.9,14.616,6.3,7.416,9.9,7.416,13.5,7.416"/>
<path d="M9.9,15.398L5.734,7.066l8.333,0L9.9,15.398zM6.866,7.766L9.9,13.834l3.034,-6.068L6.866,7.766z"/>
</g>
<g>
<path d="M9.9,14.841c-0.124,0,-0.225,-0.101,-0.225,-0.225l0,-7.2c0,-0.124,0.101,-0.225,0.225,-0.225s0.225,0.101,0.225,0.225l0,7.2C10.124,14.74,10.024,14.841,9.9,14.841z"/>
</g>
<g>
<path d="M1.8,12.141c-0.058,0,-0.115,-0.021,-0.159,-0.065c-0.088,-0.088,-0.088,-0.23,0,-0.318l2.34,-2.341c0.088,-0.088,0.23,-0.088,0.318,0s0.088,0.23,0,0.318l-2.34,2.341C1.915,12.12,1.858,12.141,1.8,12.141z"/>
</g>
<g>
<path d="M2.16,15.381c-0.058,0,-0.115,-0.021,-0.159,-0.065c-0.088,-0.088,-0.088,-0.23,0,-0.318l2.34,-2.34c0.088,-0.088,0.23,-0.088,0.318,0s0.088,0.23,0,0.318l-2.34,2.34C2.276,15.359,2.218,15.381,2.16,15.381z"/>
</g>
<g id="connector0pin">
<path fill="#787878" d="M9.9,22.166c-0.193,0,-0.35,-0.156,-0.35,-0.35l0,-7.2c0,-0.193,0.156,-0.35,0.35,-0.35s0.35,0.156,0.35,0.35l0,7.2C10.249,22.01,10.093,22.166,9.9,22.166z"/>
</g>
<g id="connector0terminal">
<rect fill="none" x="9.9" y="21.816" height="0.001" width="0.001"/>
</g>
<g transform="matrix(1, 0, 0, 1, 3.429, 6.4262)">
<g>
<g transform="rotate(270)">
<g>
<g enable-background="new    ">
<path fill="#787878" d="M-11.647,5.54l-0.891,0L-12.538,5.388l0.342,-0.372c0.049,-0.053,0.093,-0.101,0.131,-0.145s0.071,-0.086,0.099,-0.128c0.026,-0.042,0.047,-0.084,0.062,-0.125c0.015,-0.043,0.021,-0.088,0.021,-0.138c0,-0.038,-0.005,-0.072,-0.017,-0.102s-0.027,-0.054,-0.047,-0.075c-0.021,-0.02,-0.045,-0.035,-0.073,-0.046s-0.06,-0.016,-0.094,-0.016c-0.062,0,-0.118,0.013,-0.167,0.038c-0.051,0.024,-0.098,0.057,-0.143,0.096l-0.1,-0.116c0.025,-0.023,0.055,-0.046,0.084,-0.065c0.029,-0.021,0.063,-0.039,0.097,-0.054s0.071,-0.026,0.109,-0.036c0.038,-0.008,0.079,-0.013,0.121,-0.013c0.063,0,0.119,0.009,0.169,0.026c0.051,0.018,0.094,0.043,0.129,0.076c0.035,0.032,0.063,0.072,0.082,0.119c0.019,0.048,0.028,0.101,0.028,0.16c0,0.056,-0.009,0.108,-0.026,0.158c-0.017,0.05,-0.041,0.1,-0.07,0.148c-0.031,0.048,-0.066,0.097,-0.109,0.146c-0.041,0.049,-0.087,0.1,-0.136,0.152L-12.32,5.37l0,0.008l0.673,0L-11.647,5.54z"/>
</g>
</g>
</g>
</g>
</g>
<g id="connector1pin">
<path fill="#787878" d="M9.9,7.766c-0.193,0,-0.35,-0.157,-0.35,-0.35l0,-7.2c0,-0.193,0.156,-0.35,0.35,-0.35s0.35,0.157,0.35,0.35l0,7.2C10.249,7.609,10.093,7.766,9.9,7.766z"/>
</g>
<g id="connector1terminal">
<polygon fill="none" points="9.9,0.216,9.901,0.216,9.901,0.216"/>
</g>
<g transform="matrix(1, 0, 0, 1, 3.429, 1.3462)">
<g>
<g transform="rotate(270)">
<g>
<g enable-background="new    ">
<path fill="#787878" d="M-2.616,5.54l-0.172,0L-2.788,4.648c0,-0.028,0,-0.058,0,-0.09s0.001,-0.063,0.002,-0.095c0.001,-0.032,0.002,-0.063,0.003,-0.092c0.001,-0.028,0.002,-0.054,0.002,-0.076c-0.011,0.012,-0.021,0.021,-0.029,0.03s-0.017,0.017,-0.026,0.024s-0.018,0.016,-0.028,0.025c-0.01,0.008,-0.021,0.019,-0.035,0.03l-0.145,0.118l-0.094,-0.12l0.374,-0.292l0.146,0L-2.618,5.54z"/>
</g>
</g>
</g>
</g>
</g>
<g>
<path d="M0.18,13.536l1.08,-2.521l1.44,1.438L0.18,13.536z"/>
</g>
<g>
<path d="M0.54,16.776l1.08,-2.521l1.438,1.438L0.54,16.776z"/>
</g>
</g>
</g></g><g partID='61980'><g transform='translate(15.121,25.9462)' ><g transform='matrix(0,1,-1,0,0,0)'  ><g id="schematic">
<path fill="#FFFFFF" stroke="#000000" d="M29.15,0.36c3.977,0,7.2,3.223,7.201,7.199c0.001,3.976,-3.223,7.2,-7.199,7.201c0,0,-0.001,0,-0.002,0l-14.4,0c-3.977,0.001,-7.2,-3.223,-7.201,-7.199c0,-3.977,3.223,-7.2,7.199,-7.201c0.001,0,0.001,0,0.002,0L29.15,0.36z" stroke-width="0.9"/>
<line fill="none" stroke="#000000" x1="17.63" stroke-width="0.5" stroke-linecap="round" y1="0.36" y2="1.8" x2="17.63"/>
<path fill="none" stroke="#000000" d="M17.63,1.8c0,0.795,0.646,1.44,1.44,1.44" stroke-width="0.5"/>
<line fill="none" stroke="#000000" x1="19.07" stroke-width="0.5" stroke-linecap="round" y1="3.24" y2="3.24" x2="25.55"/>
<path fill="none" stroke="#000000" d="M25.55,3.24c0.597,0,1.081,0.483,1.081,1.08c0,0.596,-0.483,1.08,-1.08,1.08c0,0,0,0,-0.001,0" stroke-width="0.5"/>
<line fill="none" stroke="#000000" x1="18.35" stroke-width="0.5" stroke-linecap="round" y1="5.4" y2="5.4" x2="25.55"/>
<path fill="none" stroke="#000000" d="M18.35,7.56c-0.597,0,-1.08,-0.483,-1.08,-1.08s0.483,-1.08,1.08,-1.08l0,0" stroke-width="0.5"/>
<line fill="none" stroke="#000000" x1="18.35" stroke-width="0.5" stroke-linecap="round" y1="7.56" y2="7.56" x2="25.55"/>
<path fill="none" stroke="#000000" d="M25.55,7.56c0.597,0,1.081,0.483,1.081,1.079c0.001,0.597,-0.482,1.081,-1.079,1.081c-0.001,0,-0.001,0,-0.002,0" stroke-width="0.5"/>
<line fill="none" stroke="#000000" x1="18.35" stroke-width="0.5" stroke-linecap="round" y1="9.72" y2="9.72" x2="25.55"/>
<path fill="none" stroke="#000000" d="M18.35,11.88c-0.597,0,-1.08,-0.484,-1.08,-1.08c0,-0.597,0.483,-1.08,1.08,-1.08l0,0" stroke-width="0.5"/>
<line fill="none" stroke="#000000" x1="18.35" stroke-width="0.5" stroke-linecap="round" y1="11.88" y2="11.88" x2="24.83"/>
<path fill="none" stroke="#000000" d="M26.27,13.32c0,-0.795,-0.645,-1.439,-1.44,-1.439l0,0" stroke-width="0.5"/>
<line fill="none" stroke="#000000" x1="26.27" stroke-width="0.5" stroke-linecap="round" y1="13.32" y2="14.76" x2="26.27"/>
<line fill="none" stroke="#787878" x1="0.35" stroke-width="0.75" id="connector0pin" stroke-linecap="round" y1="7.56" y2="7.56" x2="7.55"/>
<g fill="none" x="0.35" y="7.56" id="connector0terminal" height="0" width="0"/>
<g transform="matrix(1, 0, 0, 1, 3.2615, 6.5103)">
<text fill="#8C8C8C" font-size="2.5" font-family="'DroidSans'">1</text>
</g>
<line fill="none" stroke="#787878" x1="43.551" stroke-width="0.75" id="connector1pin" stroke-linecap="round" y1="7.56" y2="7.56" x2="36.35"/>
<g fill="none" x="43.551" y="7.56" id="connector1terminal" height="0" width="0"/>
<g transform="matrix(1, 0, 0, 1, 39.2615, 6.5103)">
<text fill="#8C8C8C" font-size="2.5" font-family="'DroidSans'">2</text>
</g>
</g>
</g></g></g><g partID='62030'><g transform='translate(10.6571,79.9464)' ><g transform='matrix(0,1,-1,0,0,0)'  ><g xmlns="http://www.w3.org/2000/svg" id="schematic">
<line class="other" x1="7.55002" stroke="#000000" xmlns="http://www.w3.org/2000/svg" stroke-width="0.432002" stroke-linecap="round" y1="3.096" y2="0.216" x2="8.63003"/>
<line class="other" x1="8.63003" stroke="#000000" xmlns="http://www.w3.org/2000/svg" stroke-width="0.432002" stroke-linecap="round" y1="0.216" y2="5.976" x2="10.43"/>
<line class="other" x1="10.43" stroke="#000000" xmlns="http://www.w3.org/2000/svg" stroke-width="0.432002" stroke-linecap="round" y1="5.976" y2="0.216" x2="12.23"/>
<line class="other" x1="12.23" stroke="#000000" xmlns="http://www.w3.org/2000/svg" stroke-width="0.432002" stroke-linecap="round" y1="0.216" y2="5.976" x2="14.03"/>
<line class="other" x1="14.03" stroke="#000000" xmlns="http://www.w3.org/2000/svg" stroke-width="0.432002" stroke-linecap="round" y1="5.976" y2="0.216" x2="15.8301"/>
<line class="other" x1="15.8301" stroke="#000000" xmlns="http://www.w3.org/2000/svg" stroke-width="0.432002" stroke-linecap="round" y1="0.216" y2="5.976" x2="17.6301"/>
<line class="other" x1="17.6301" stroke="#000000" xmlns="http://www.w3.org/2000/svg" stroke-width="0.432002" stroke-linecap="round" y1="5.976" y2="0.216" x2="19.4301"/>
<line class="other" x1="19.4301" stroke="#000000" xmlns="http://www.w3.org/2000/svg" stroke-width="0.432002" stroke-linecap="round" y1="0.216" y2="5.976" x2="21.2301"/>
<line class="other" x1="21.2301" stroke="#000000" xmlns="http://www.w3.org/2000/svg" stroke-width="0.432002" stroke-linecap="round" y1="5.976" y2="3.096" x2="21.9501"/>
<line class="pin" x1="29.1502" stroke="#787878" xmlns="http://www.w3.org/2000/svg" connectorname="2" stroke-width="0.700001" id="connector1pin" stroke-linecap="round" y1="3.096" y2="3.096" x2="21.9501"/>
<g class="terminal" stroke="none" fill="none" xmlns="http://www.w3.org/2000/svg" x="29.1502" y="3.096" stroke-width="0" id="connector1terminal" height="0.000283465" width="0.000283466"/>
<text class="text" stroke="none" fill="#8c8c8c" xmlns="http://www.w3.org/2000/svg" x="25.5501" y="2.046" font-size="2.50001" stroke-width="0" text-anchor="middle" font-family="'Droid Sans'">2</text>
<line class="pin" x1="0.350001" stroke="#787878" xmlns="http://www.w3.org/2000/svg" connectorname="1" stroke-width="0.700001" id="connector0pin" stroke-linecap="round" y1="3.096" y2="3.096" x2="7.55002"/>
<g class="terminal" stroke="none" fill="none" xmlns="http://www.w3.org/2000/svg" x="0.350001" y="3.096" stroke-width="0" id="connector0terminal" height="0.000283465" width="0.000283466"/>
<text class="text" stroke="none" fill="#8c8c8c" xmlns="http://www.w3.org/2000/svg" x="3.95001" y="2.046" font-size="2.50001" stroke-width="0" text-anchor="middle" font-family="'Droid Sans'">1</text>
</g>
</g></g></g><g partID='70610'><g transform='translate(237.792,87.4962)' ><g xmlns="http://www.w3.org/2000/svg" id="schematic">
<rect fill="none" xmlns="http://www.w3.org/2000/svg" y="28.461" id="connector0pin" height="0.677" width="4.063"/>
<rect fill="none" xmlns="http://www.w3.org/2000/svg" y="14.062" id="connector1pin" height="0.677" width="4.063"/>
<rect fill="none" xmlns="http://www.w3.org/2000/svg" y="21.262" id="connector2pin" height="0.677" width="4.063"/>
<g fill="none" xmlns="http://www.w3.org/2000/svg" y="28.461" id="connector0terminal" height="0.677" width="0.338"/>
<g fill="none" xmlns="http://www.w3.org/2000/svg" y="14.062" id="connector1terminal" height="0.677" width="0.338"/>
<g fill="none" xmlns="http://www.w3.org/2000/svg" y="21.262" id="connector2terminal" height="0.677" width="0.338"/>
<g xmlns="http://www.w3.org/2000/svg" id="Diagram">
<rect fill="none" stroke="#000000" xmlns="http://www.w3.org/2000/svg" x="7.2" y="7.2" stroke-linejoin="round" stroke-width="0.9" stroke-linecap="round" height="28.8" width="28.8"/>
<line fill="none" stroke="#787878" x1="7.2" xmlns="http://www.w3.org/2000/svg" stroke-linejoin="round" stroke-width="0.7" stroke-linecap="round" y1="28.8" y2="28.8" x2="0"/>
<line fill="none" stroke="#787878" x1="0" xmlns="http://www.w3.org/2000/svg" stroke-linejoin="round" stroke-width="0.7" stroke-linecap="round" y1="14.4" y2="14.4" x2="7.2"/>
<line fill="none" stroke="#787878" x1="0" xmlns="http://www.w3.org/2000/svg" stroke-linejoin="round" stroke-width="0.7" stroke-linecap="round" y1="21.6" y2="21.6" x2="7.2"/>
<g xmlns="http://www.w3.org/2000/svg">
<path fill="#FFFFFF" stroke="#000000" xmlns="http://www.w3.org/2000/svg" stroke-linejoin="round" d="M46.091,15.05c-0.469,-1.065,-1.604,-1.63,-2.701,-1.424l0,0l-12.355,1.986l0.002,0.004c-0.513,0.071,-1.023,0.209,-1.521,0.427c-2.91,1.278,-4.233,4.675,-2.955,7.585c1.277,2.911,4.674,4.233,7.584,2.956c0.498,-0.219,0.944,-0.503,1.344,-0.832l0.002,0.004l9.823,-7.753l-0.001,-0.001C46.206,17.333,46.559,16.116,46.091,15.05z" stroke-width="0.9" stroke-linecap="round"/>
<circle r="3.301" cy="21.313" fill="none" stroke="#000000" xmlns="http://www.w3.org/2000/svg" stroke-linejoin="round" stroke-width="0.9" cx="31.83" stroke-linecap="round"/>
<circle r="1.051" cy="16.037" fill="#FFFFFF" stroke="#000000" xmlns="http://www.w3.org/2000/svg" stroke-linejoin="round" stroke-width="0.9" cx="43.843" stroke-linecap="round"/>
</g>
</g>
</g>
</g></g><g partID='59700'><line stroke-linecap='round' stroke='#404040' x1='187.515' y1='65.9256' x2='187.561' y2='116.297' stroke-width='0.699998' /></g><g partID='59710'><line stroke-linecap='round' stroke='#404040' x1='165.961' y1='65.8967' x2='187.515' y2='65.9256' stroke-width='0.699998' /></g><g partID='70050'><line stroke-linecap='round' stroke='#404040' x1='108.361' y1='15.4968' x2='108.378' y2='1.05067' stroke-width='0.699998' /></g><circle  fill="black" cx="108.361" cy="15.4968" r="1.44" stroke-width="0" stroke="none" /><g partID='70100'><line stroke-linecap='round' stroke='#404040' x1='7.54429' y1='1.05067' x2='7.561' y2='29.8962' stroke-width='0.699998' /></g><g partID='70150'><line stroke-linecap='round' stroke='#404040' x1='108.378' y1='1.05067' x2='7.54429' y2='1.05067' stroke-width='0.699998' /></g><g partID='70200'><line stroke-linecap='round' stroke='#404040' x1='7.561' y1='80.2965' x2='57.961' y2='80.2967' stroke-width='0.699998' /></g><circle  fill="black" cx="7.561" cy="80.2965" r="1.44" stroke-width="0" stroke="none" /><g partID='70310'><line stroke-linecap='round' stroke='#404040' x1='7.54429' y1='80.3595' x2='7.561' y2='80.2965' stroke-width='0.699998' /></g><circle  fill="black" cx="7.561" cy="80.2965" r="1.44" stroke-width="0" stroke="none" /><g partID='70320'><line stroke-linecap='round' stroke='#404040' x1='7.561' y1='65.8967' x2='7.54429' y2='80.3595' stroke-width='0.699998' /></g><g partID='70410'><line stroke-linecap='round' stroke='#404040' x1='7.54429' y1='181.048' x2='7.561' y2='109.097' stroke-width='0.699998' /></g><g partID='70420'><line stroke-linecap='round' stroke='#404040' x1='115.561' y1='181.097' x2='7.54429' y2='181.048' stroke-width='0.699998' /></g><circle  fill="black" cx="115.561" cy="181.097" r="1.44" stroke-width="0" stroke="none" /><g partID='70530'><line stroke-linecap='round' stroke='#404040' x1='187.542' y1='181.048' x2='115.561' y2='181.097' stroke-width='0.699998' /></g><circle  fill="black" cx="115.561" cy="181.097" r="1.44" stroke-width="0" stroke="none" /><g partID='70540'><line stroke-linecap='round' stroke='#404040' x1='187.561' y1='173.897' x2='187.542' y2='181.048' stroke-width='0.699998' /></g><circle  fill="black" cx="187.561" cy="173.897" r="1.44" stroke-width="0" stroke="none" /><g partID='75380'><line stroke-linecap='round' stroke='#404040' x1='187.507' y1='137.838' x2='187.561' y2='137.897' stroke-width='0.699998' /></g><g partID='75390'><line stroke-linecap='round' stroke='#404040' x1='187.561' y1='145.097' x2='187.507' y2='137.838' stroke-width='0.699998' /></g><g partID='77430'><line stroke-linecap='round' stroke='#404040' x1='230.736' y1='101.955' x2='237.961' y2='101.897' stroke-width='0.699998' /></g><g partID='77580'><line stroke-linecap='round' stroke='#404040' x1='108.395' y1='1.08701' x2='230.736' y2='1.08701' stroke-width='0.699998' /></g><g partID='77440'><line stroke-linecap='round' stroke='#404040' x1='108.361' y1='15.4968' x2='108.395' y2='1.08701' stroke-width='0.699998' /></g><circle  fill="black" cx="108.361" cy="15.4968" r="1.44" stroke-width="0" stroke="none" /><g partID='77510'><line stroke-linecap='round' stroke='#404040' x1='230.736' y1='1.08701' x2='230.736' y2='101.955' stroke-width='0.699998' /></g><g partID='77730'><line stroke-linecap='round' stroke='#404040' x1='230.736' y1='109.16' x2='237.961' y2='109.097' stroke-width='0.699998' /></g><g partID='77780'><line stroke-linecap='round' stroke='#404040' x1='173.097' y1='80.3404' x2='230.736' y2='109.16' stroke-width='0.699998' /></g><g partID='77670'><line stroke-linecap='round' stroke='#404040' x1='165.893' y1='80.3404' x2='173.097' y2='80.3404' stroke-width='0.699998' /></g><g partID='77680'><line stroke-linecap='round' stroke='#404040' x1='165.961' y1='80.2967' x2='165.893' y2='80.3404' stroke-width='0.699998' /></g><g partID='77850'><line stroke-linecap='round' stroke='#404040' x1='230.736' y1='116.365' x2='237.961' y2='116.296' stroke-width='0.699998' /></g><g partID='77950'><line stroke-linecap='round' stroke='#404040' x1='230.736' y1='181.067' x2='230.736' y2='116.365' stroke-width='0.699998' /></g><g partID='77860'><line stroke-linecap='round' stroke='#404040' x1='187.561' y1='173.897' x2='187.507' y2='181.067' stroke-width='0.699998' /></g><circle  fill="black" cx="187.561" cy="173.897" r="1.44" stroke-width="0" stroke="none" /><g partID='78040'><line stroke-linecap='round' stroke='#404040' x1='187.507' y1='181.067' x2='230.736' y2='181.067' stroke-width='0.699998' /></g><g partID='58130' id='partLabel'><g transform='translate(195.059,153.852)' ><g font-size='5' font-style='normal' font-weight='normal' fill='#000000' font-family="'DroidSans'" id='schematicLabel' fill-opacity='1' stroke='none' ><text x='0' y='3.75'>R1</text><text x='0' y='8.75'>330&#x3a9;</text></g></g></g><g partID='58320' id='partLabel'><g transform='translate(196.113,122.833)' ><g font-size='5' font-style='normal' font-weight='normal' fill='#000000' font-family="'DroidSans'" id='schematicLabel' fill-opacity='1' stroke='none' ><text x='0' y='3.75'>LED1</text><text x='0' y='8.75'>Red (633nm)</text></g></g></g><g partID='61980' id='partLabel'><g transform='translate(16.4879,47.2436)' ><g font-size='5' font-style='normal' font-weight='normal' fill='#000000' font-family="'DroidSans'" id='schematicLabel' fill-opacity='1' stroke='none' ><text x='0' y='3.75'>R2</text></g></g></g><g partID='62030' id='partLabel'><g transform='translate(11.7655,90.8015)' ><g font-size='5' font-style='normal' font-weight='normal' fill='#000000' font-family="'DroidSans'" id='schematicLabel' fill-opacity='1' stroke='none' ><text x='0' y='3.75'>R3</text><text x='0' y='8.75'>10k&#x3a9;</text></g></g></g><g partID='70610' id='partLabel'><g transform='translate(237.777,79.7798)' ><g font-size='5' font-style='normal' font-weight='normal' fill='#000000' font-family="'DroidSans'" id='schematicLabel' fill-opacity='1' stroke='none' ><text x='0' y='3.75'>J1</text></g></g></g></svg>